<?xml version="1.0" encoding="iso-8859-1"?>
<!-- Generator: Adobe Illustrator 19.0.0, SVG Export Plug-In . SVG Version: 6.00 Build 0)  -->
<svg version="1.1" id="Layer_1" xmlns="http://www.w3.org/2000/svg" xmlns:xlink="http://www.w3.org/1999/xlink" x="0px" y="0px"
	 viewBox="0 0 512 512" style="enable-background:new 0 0 512 512;" xml:space="preserve">
<path style="fill:#314E55;" d="M441.543,97.321l-94.613-94.5C345.118,1.019,342.665,0,340.104,0H77.283
	c-5.335,0-9.66,4.321-9.66,9.66V502.34c0,5.34,4.325,9.66,9.66,9.66h357.434c5.335,0,9.66-4.321,9.66-9.66V104.16
	C444.377,101.594,443.358,99.142,441.543,97.321z"/>
<g>
	<polygon style="fill:#F28544;" points="411.396,96.604 347.774,96.604 347.774,32.981 	"/>
	<path style="fill:#F28544;" d="M86.943,492.679V19.321h241.509v86.943c0,5.34,4.325,9.66,9.66,9.66h86.943v376.755H86.943z"/>
</g>
<path style="fill:#314E55;" d="M366.604,320.519c-34.995,0-52.726,6.16-61.014,10.66c-18.552-18.396-36.793-45.292-51.005-72.934
	c15.528-54.547,13.689-90.17-6.231-100.953c-11.462-6.236-25.882-1.594-34.269,11.009c-2.373,3.557-9.594,14.387,4.024,54.075
	c3.891,11.34,9.316,24.274,15.929,37.698c-5.632,18.349-13.651,40.264-24.807,66.302c-7.712,17.991-14.953,33.198-21.661,46.028
	c-26.863,11.302-50.585,23.774-61.014,35.698c-10.575,12.085-14.269,27.576-9.193,38.556c3.217,6.953,9.675,11.075,17.321,11.075
	c0.099,0,0.203,0,0.302,0c18.835-0.274,41.778-24.736,66.33-70.047c34.859-14.066,75.774-26.991,100.335-34.076
	c9.75,8.255,19.774,14.5,29.792,17.84c32.335,10.773,54.618,2.773,64.703-8.302c6.972-7.67,8.901-17.293,5.16-25.755
	C399.061,332.321,391.189,320.519,366.604,320.519z M135,438.727c-1.066-1.415-1.259-9.5,6.094-17.906
	c5.406-6.17,16.231-12.934,30.033-19.774C150.967,432.604,138.09,439.311,135,438.727z M230.16,179.019
	c2.085-3.123,5.094-5.113,7.424-5.113c0.571,0,1.104,0.123,1.566,0.368c4.995,2.708,10.844,17.774,2.665,56.264
	c-1.41-3.462-2.731-6.896-3.967-10.283C227.821,192.698,228.972,180.953,230.16,179.019z M214.434,361.802
	c4.156-8.717,8.344-18,12.552-27.821c7.703-17.962,14.241-34.802,19.613-50.424c11.326,19.594,24.703,38.877,39.109,54.594
	C268.297,343.349,241.444,351.755,214.434,361.802z M381.854,350.142c-6.165,6.783-22.25,10.33-44.297,2.991
	c-5.009-1.67-10.16-4.387-15.377-7.962c7.948-2.557,21.788-5.33,44.424-5.33c11.594,0,16.212,3.509,17.033,5.368
	S382.476,349.462,381.854,350.142z"/>
<g>
</g>
<g>
</g>
<g>
</g>
<g>
</g>
<g>
</g>
<g>
</g>
<g>
</g>
<g>
</g>
<g>
</g>
<g>
</g>
<g>
</g>
<g>
</g>
<g>
</g>
<g>
</g>
<g>
</g>
</svg>
