<?xml version="1.0" encoding="iso-8859-1"?>
<!-- Generator: Adobe Illustrator 19.0.0, SVG Export Plug-In . SVG Version: 6.00 Build 0)  -->
<svg version="1.1" id="Layer_1" xmlns="http://www.w3.org/2000/svg" xmlns:xlink="http://www.w3.org/1999/xlink" x="0px" y="0px"
	 viewBox="0 0 512 512" style="enable-background:new 0 0 512 512;" xml:space="preserve">
<path style="fill:#314E55;" d="M441.547,97.321l-94.613-94.5C345.123,1.019,342.66,0,340.104,0H77.283c-5.34,0-9.66,4.321-9.66,9.66
	V502.34c0,5.34,4.321,9.66,9.66,9.66h357.434c5.34,0,9.66-4.321,9.66-9.66V104.16C444.377,101.594,443.358,99.142,441.547,97.321z"
	/>
<g>
	<polygon style="fill:#E4AD40;" points="411.396,96.604 347.774,96.604 347.774,32.981 	"/>
	<path style="fill:#E4AD40;" d="M86.943,492.679V19.321h241.509v86.943c0,5.34,4.321,9.66,9.66,9.66h86.943v376.755H86.943z"/>
</g>
<g>
	<path style="fill:#314E55;" d="M268.934,329.481l-37.557,37.547c-6.245,6.245-14.896,9.424-24.425,8.915
		c-9.877-0.519-19.406-4.887-26.821-12.311c-15.066-15.057-16.585-38.057-3.396-51.255l37.547-37.547
		c3.774-3.774,3.774-9.887,0-13.66c-3.774-3.773-9.887-3.774-13.66,0l-37.547,37.547c-20.726,20.736-19.207,55.991,3.396,78.576
		c10.793,10.802,24.811,17.179,39.462,17.943c1.01,0.057,2.009,0.085,3,0.085c13.887,0,26.613-5.142,36.104-14.632l37.557-37.547
		c3.774-3.774,3.774-9.887,0-13.66C278.821,325.708,272.708,325.708,268.934,329.481z"/>
	<path style="fill:#314E55;" d="M272.33,189.462l-37.557,37.557c-3.774,3.774-3.774,9.887,0,13.66s9.887,3.774,13.66,0
		l37.557-37.556c13.189-13.179,36.198-11.67,51.255,3.396c15.057,15.066,16.585,38.057,3.396,51.255l-37.557,37.547
		c-3.774,3.774-3.774,9.887,0,13.66c1.887,1.887,4.359,2.83,6.83,2.83c2.472,0,4.943-0.943,6.83-2.83l37.557-37.547
		c20.717-20.726,19.198-55.972-3.396-78.576C328.302,170.264,293.066,168.745,272.33,189.462z"/>
	<path style="fill:#314E55;" d="M275.764,240.679l-68.311,68.302c-3.774,3.774-3.774,9.887,0,13.66
		c1.887,1.887,4.359,2.83,6.83,2.83s4.943-0.943,6.83-2.83l68.311-68.302c3.774-3.773,3.774-9.887,0-13.66
		C285.651,236.906,279.538,236.906,275.764,240.679z"/>
</g>
<g>
</g>
<g>
</g>
<g>
</g>
<g>
</g>
<g>
</g>
<g>
</g>
<g>
</g>
<g>
</g>
<g>
</g>
<g>
</g>
<g>
</g>
<g>
</g>
<g>
</g>
<g>
</g>
<g>
</g>
</svg>
