<?xml version="1.0" encoding="iso-8859-1"?>
<!-- Generator: Adobe Illustrator 19.0.0, SVG Export Plug-In . SVG Version: 6.00 Build 0)  -->
<svg version="1.1" id="Layer_1" xmlns="http://www.w3.org/2000/svg" xmlns:xlink="http://www.w3.org/1999/xlink" x="0px" y="0px"
	 viewBox="0 0 512 512" style="enable-background:new 0 0 512 512;" xml:space="preserve">
<path style="fill:#314E55;" d="M511.87,234.022c-0.06-0.975-0.249-1.913-0.572-2.836c-0.119-0.34-0.205-0.676-0.355-0.999
	c-0.51-1.094-1.154-2.128-2.034-3.016c-0.016-0.017-0.025-0.038-0.041-0.055L448,166.25v-59.583c0-0.227-0.117-0.43-0.131-0.656
	c-0.059-0.95-0.242-1.866-0.551-2.767c-0.115-0.337-0.204-0.665-0.352-0.99c-0.519-1.134-1.175-2.212-2.091-3.129l-96-96
	c-0.914-0.914-1.988-1.568-3.119-2.086c-0.332-0.152-0.668-0.242-1.014-0.361c-0.888-0.302-1.789-0.482-2.725-0.543
	C341.781,0.12,341.57,0,341.333,0H74.667C68.771,0,64,4.776,64,10.667V166.25L3.132,227.117c-0.016,0.017-0.025,0.038-0.041,0.055
	c-0.879,0.888-1.523,1.922-2.033,3.016c-0.151,0.323-0.237,0.659-0.355,0.997c-0.322,0.922-0.512,1.861-0.572,2.836
	C0.116,234.246,0,234.438,0,234.667v202.667C0,443.224,4.771,448,10.667,448H64v53.333C64,507.224,68.771,512,74.667,512h362.667
	c5.896,0,10.667-4.776,10.667-10.667V448h53.333c5.896,0,10.667-4.776,10.667-10.667V234.667
	C512,234.438,511.884,234.247,511.87,234.022z"/>
<polygon style="fill:#EAEAEA;" points="475.583,224 448,224 448,196.417 "/>
<polygon style="fill:#D8D8D8;" points="411.583,96 352,96 352,36.417 "/>
<g>
	<path style="fill:#EAEAEA;" d="M85.333,21.333h245.333v85.333c0,5.891,4.771,10.667,10.667,10.667h85.333v53.333V224H85.333
		v-53.333V21.333z"/>
	<polygon style="fill:#EAEAEA;" points="64,196.417 64,224 36.417,224 	"/>
	<rect x="85.333" y="448" style="fill:#EAEAEA;" width="341.333" height="42.667"/>
</g>
<polygon style="fill:#E4AD40;" points="490.667,426.667 21.333,426.667 21.333,245.333 74.667,245.333 437.333,245.333 
	490.667,245.333 "/>
<path style="fill:#314E55;" d="M329.531,342.858c2.357-1.631,4.503-3.776,6.438-6.431c1.934-2.656,3.536-5.888,4.805-9.707
	c1.27-3.809,1.904-8.181,1.904-13.142c0-6.41-0.906-11.904-2.72-16.501c-1.813-4.596-4.322-8.405-7.525-11.423
	c-3.204-3.019-7.042-5.227-11.515-6.624c-4.473-1.387-9.369-2.081-14.688-2.081h-36.629v128.384h21.034V350.57h12.149l19.947,54.763
	h22.848l-23.029-59.115C324.846,345.611,327.173,344.501,329.531,342.858z"/>
<path style="fill:#E4AD40;" d="M316.112,329.621c-3.446,3.328-7.827,4.992-13.146,4.992h-12.331v-39.531h12.331
	c2.176,0,4.351,0.299,6.528,0.907c2.176,0.608,4.141,1.631,5.893,3.082c1.753,1.451,3.173,3.445,4.261,5.984
	c1.088,2.539,1.632,5.738,1.632,9.611C321.28,321.313,319.557,326.303,316.112,329.621z"/>
<path style="fill:#314E55;" d="M242.581,347.221c-2.055-2.603-4.322-4.629-6.8-6.079c-2.478-1.452-4.926-2.475-7.344-3.083v-0.362
	c4.473-1.814,8.402-5.014,11.786-9.611c3.385-4.598,5.078-10.88,5.078-18.859c0-6.646-1.149-12.053-3.445-16.234
	c-2.297-4.171-5.198-7.425-8.705-9.792c-3.506-2.358-7.374-3.979-11.605-4.897c-4.232-0.906-8.221-1.354-11.968-1.354h-34.091
	v128.384h38.079c4.11,0,8.312-0.608,12.603-1.814c4.291-1.205,8.16-3.232,11.606-6.079c3.445-2.837,6.286-6.517,8.523-11.051
	c2.236-4.544,3.355-10.186,3.355-16.96c0-4.832-0.665-9.099-1.995-12.779C246.329,352.96,244.637,349.814,242.581,347.221z"/>
<g>
	<path style="fill:#E4AD40;" d="M195.798,295.082h11.968c2.296,0,4.533,0.299,6.709,0.907c2.176,0.608,4.08,1.6,5.712,2.987
		c1.631,1.397,2.962,3.21,3.989,5.439c1.027,2.241,1.542,4.992,1.542,8.257c0,3.264-0.514,6.048-1.542,8.341
		c-1.027,2.294-2.357,4.171-3.989,5.621c-1.632,1.452-3.506,2.508-5.622,3.168c-2.115,0.673-4.261,1.003-6.437,1.003h-12.331
		L195.798,295.082L195.798,295.082z"/>
	<path style="fill:#E4AD40;" d="M227.258,376.32c-1.027,2.421-2.418,4.438-4.171,6.079c-1.753,1.633-3.778,2.837-6.075,3.616
		c-2.296,0.789-4.775,1.185-7.434,1.185h-13.781v-40.075h13.237c2.297,0,4.594,0.363,6.891,1.089
		c2.297,0.725,4.413,1.898,6.347,3.53c1.934,1.643,3.506,3.755,4.715,6.358c1.208,2.591,1.813,5.771,1.813,9.514
		C228.8,370.997,228.286,373.898,227.258,376.32z"/>
</g>
<g>
</g>
<g>
</g>
<g>
</g>
<g>
</g>
<g>
</g>
<g>
</g>
<g>
</g>
<g>
</g>
<g>
</g>
<g>
</g>
<g>
</g>
<g>
</g>
<g>
</g>
<g>
</g>
<g>
</g>
</svg>
