<?xml version="1.0" encoding="iso-8859-1"?>
<!-- Generator: Adobe Illustrator 19.0.0, SVG Export Plug-In . SVG Version: 6.00 Build 0)  -->
<svg version="1.1" id="Layer_1" xmlns="http://www.w3.org/2000/svg" xmlns:xlink="http://www.w3.org/1999/xlink" x="0px" y="0px"
	 viewBox="0 0 512.001 512.001" style="enable-background:new 0 0 512.001 512.001;" xml:space="preserve">
<path style="fill:#314E55;" d="M511.87,234.022c-0.06-0.975-0.249-1.913-0.572-2.836c-0.119-0.34-0.205-0.676-0.355-0.999
	c-0.51-1.094-1.154-2.128-2.034-3.016c-0.016-0.017-0.025-0.038-0.041-0.055L448,166.25v-59.583c0-0.227-0.117-0.43-0.131-0.656
	c-0.059-0.95-0.242-1.866-0.551-2.767c-0.115-0.337-0.204-0.665-0.352-0.99c-0.519-1.134-1.175-2.212-2.091-3.129l-96-96
	c-0.913-0.914-1.986-1.566-3.117-2.083c-0.336-0.156-0.675-0.246-1.025-0.365c-0.88-0.299-1.773-0.477-2.701-0.539
	C341.792,0.122,341.576,0,341.333,0H74.667C68.771,0,64,4.776,64,10.667V166.25L3.132,227.117c-0.016,0.017-0.025,0.038-0.041,0.055
	c-0.879,0.888-1.523,1.922-2.033,3.016c-0.151,0.323-0.237,0.659-0.355,0.997c-0.322,0.922-0.512,1.861-0.572,2.836
	C0.116,234.246,0,234.438,0,234.667v202.667C0,443.224,4.771,448,10.667,448H64v53.333C64,507.224,68.771,512,74.667,512h362.667
	c5.896,0,10.667-4.776,10.667-10.667V448h53.333c5.896,0,10.667-4.776,10.667-10.667V234.667
	C512,234.438,511.884,234.247,511.87,234.022z"/>
<polygon style="fill:#EAEAEA;" points="448,196.417 475.583,224 448,224 "/>
<polygon style="fill:#D8D8D8;" points="411.583,96 352,96 352,36.417 "/>
<g>
	<path style="fill:#EAEAEA;" d="M85.333,170.667V21.333h245.333v85.333c0,5.891,4.771,10.667,10.667,10.667h85.333v53.333V224
		H85.333V170.667z"/>
	<polygon style="fill:#EAEAEA;" points="64,196.417 64,224 36.417,224 	"/>
	<rect x="85.33" y="448" style="fill:#EAEAEA;" width="341.33" height="42.667"/>
</g>
<polygon style="fill:#5ECB66;" points="490.667,426.667 21.333,426.667 21.333,245.333 74.667,245.333 437.333,245.333 
	490.667,245.333 "/>
<g>
	<path style="fill:#314E55;" d="M372.053,346.219c2.296-0.608,4.624-1.717,6.981-3.361c2.357-1.632,4.504-3.776,6.438-6.431
		c1.934-2.656,3.536-5.888,4.805-9.707c1.27-3.809,1.904-8.181,1.904-13.142c0-6.41-0.907-11.904-2.72-16.501
		c-1.814-4.596-4.322-8.405-7.525-11.423c-3.203-3.019-7.042-5.227-11.515-6.624c-4.473-1.387-9.369-2.081-14.688-2.081h-36.629
		v128.384h21.034V350.57h12.149l19.947,54.763h22.848L372.053,346.219z M365.616,329.621c-3.445,3.328-7.827,4.992-13.146,4.992
		h-12.331v-39.531h12.331c2.176,0,4.352,0.299,6.528,0.907s4.141,1.631,5.893,3.082c1.753,1.451,3.173,3.445,4.261,5.984
		c1.089,2.539,1.632,5.738,1.632,9.611C370.784,321.313,369.061,326.303,365.616,329.621z"/>
	<path style="fill:#314E55;" d="M149.376,307.776c2.176-4.234,4.896-7.585,8.159-10.069c3.264-2.475,7.072-3.712,11.425-3.712
		c7.858,0,14.264,3.562,19.221,10.698l12.512-15.232c-3.506-5.077-8.04-8.97-13.6-11.701c-5.561-2.72-12.029-4.075-19.402-4.075
		c-7.133,0-13.63,1.664-19.494,4.982c-5.863,3.328-10.85,7.979-14.96,13.962c-4.11,5.995-7.283,13.12-9.52,21.397
		c-2.237,8.289-3.355,17.323-3.355,27.116c0,9.792,1.118,18.794,3.355,27.018s5.379,15.318,9.429,21.301
		c4.05,5.995,9.006,10.677,14.87,14.059c5.863,3.382,12.421,5.078,19.674,5.078c7.978,0,14.597-1.568,19.856-4.715
		c5.258-3.147,9.581-7.254,12.965-12.331L188,376.865c-2.055,3.146-4.624,5.802-7.706,7.978c-3.083,2.176-6.739,3.264-10.971,3.264
		c-4.473,0-8.372-1.237-11.696-3.723c-3.325-2.475-6.075-5.824-8.251-10.059c-2.177-4.234-3.809-9.216-4.897-14.966
		c-1.088-5.738-1.631-11.807-1.631-18.217c0-6.529,0.544-12.661,1.631-18.411C145.568,316.992,147.2,312.01,149.376,307.776z"/>
	<path style="fill:#314E55;" d="M248.202,276.949h-32.277v128.384h32.096c16.562,0,29.104-5.59,37.626-16.779
		c8.523-11.178,12.785-26.923,12.785-47.232c0-20.31-4.262-36.117-12.785-47.425C277.126,282.603,264.643,276.949,248.202,276.949z"
		/>
</g>
<path style="fill:#5ECB66;" d="M274.587,360.992c-1.39,5.631-3.355,10.315-5.893,14.059c-2.538,3.743-5.561,6.56-9.066,8.427
	c-3.506,1.876-7.314,2.815-11.425,2.815h-10.336V295.99h10.336c4.11,0,7.918,0.939,11.425,2.805
	c3.506,1.878,6.528,4.694,9.066,8.438c2.538,3.745,4.503,8.458,5.893,14.145c1.39,5.685,2.085,12.331,2.085,19.947
	C276.672,348.822,275.977,355.371,274.587,360.992z"/>
<g>
</g>
<g>
</g>
<g>
</g>
<g>
</g>
<g>
</g>
<g>
</g>
<g>
</g>
<g>
</g>
<g>
</g>
<g>
</g>
<g>
</g>
<g>
</g>
<g>
</g>
<g>
</g>
<g>
</g>
</svg>
