<?xml version="1.0" encoding="iso-8859-1"?>
<!-- Generator: Adobe Illustrator 19.0.0, SVG Export Plug-In . SVG Version: 6.00 Build 0)  -->
<svg version="1.1" id="Layer_1" xmlns="http://www.w3.org/2000/svg" xmlns:xlink="http://www.w3.org/1999/xlink" x="0px" y="0px"
	 viewBox="0 0 512 512" style="enable-background:new 0 0 512 512;" xml:space="preserve">
<path style="fill:#314E55;" d="M441.543,97.321l-94.613-94.5C345.118,1.019,342.665,0,340.104,0H77.283
	c-5.335,0-9.66,4.321-9.66,9.66V502.34c0,5.34,4.325,9.66,9.66,9.66h357.434c5.335,0,9.66-4.321,9.66-9.66V104.16
	C444.377,101.594,443.358,99.142,441.543,97.321z"/>
<g>
	<polygon style="fill:#FFFFFF;" points="411.396,96.604 347.774,96.604 347.774,32.981 	"/>
	<path style="fill:#FFFFFF;" d="M86.943,492.679V19.321h241.509v86.943c0,5.34,4.325,9.66,9.66,9.66h86.943v376.755H86.943z"/>
</g>
<path style="fill:#314E55;" d="M256,154.566c-71.91,0-130.415,58.5-130.415,130.415S184.09,415.396,256,415.396
	s130.415-58.5,130.415-130.415S327.91,154.566,256,154.566z"/>
<path style="fill:#5ECB66;" d="M256,396.075c-61.259,0-111.094-49.84-111.094-111.094S194.741,173.887,256,173.887
	s111.094,49.84,111.094,111.094S317.259,396.075,256,396.075z"/>
<path style="fill:#314E55;" d="M282.443,327.821c-6.396,5.321-14.208,7.981-23.434,7.981c-7.585,0-14.632-1.953-21.141-5.859
	c-6.509-3.906-11.307-9.811-14.392-17.698c-3.085-7.906-4.627-17.142-4.627-27.726c0-8.207,1.302-16.179,3.906-23.896
	c2.604-7.736,7.118-13.887,13.542-18.472c6.424-4.585,14.42-6.877,23.986-6.877c8.321,0,15.226,2.066,20.717,6.198
	c5.49,4.132,9.679,10.726,12.566,19.783l16.217-3.821c-3.34-11.491-9.255-20.406-17.745-26.745
	c-8.491-6.34-18.962-9.509-31.415-9.509c-10.981,0-21.042,2.5-30.184,7.519c-9.142,5-16.189,12.34-21.141,21.981
	c-4.953,9.66-7.429,20.962-7.429,33.925c0,11.887,2.193,23.009,6.58,33.368c4.387,10.359,10.783,18.274,19.189,23.726
	c8.406,5.472,19.316,8.198,32.731,8.198c12.962,0,23.929-3.547,32.901-10.651c8.972-7.104,15.184-17.424,18.637-30.953l-16.472-4.16
	C293.17,314.604,288.84,322.5,282.443,327.821z"/>
<g>
</g>
<g>
</g>
<g>
</g>
<g>
</g>
<g>
</g>
<g>
</g>
<g>
</g>
<g>
</g>
<g>
</g>
<g>
</g>
<g>
</g>
<g>
</g>
<g>
</g>
<g>
</g>
<g>
</g>
</svg>
