<?xml version="1.0" encoding="iso-8859-1"?>
<!-- Generator: Adobe Illustrator 19.0.0, SVG Export Plug-In . SVG Version: 6.00 Build 0)  -->
<svg version="1.1" id="Layer_1" xmlns="http://www.w3.org/2000/svg" xmlns:xlink="http://www.w3.org/1999/xlink" x="0px" y="0px"
	 viewBox="0 0 512 512" style="enable-background:new 0 0 512 512;" xml:space="preserve">
<path style="fill:#314E55;" d="M179.009,2.741C177.231,0.982,174.833,0,172.343,0H18.963c-5.241,0-9.481,4.241-9.481,9.481v284.444
	c0,5.241,4.241,9.481,9.481,9.481h208.593c5.241,0,9.481-4.241,9.481-9.481V64.046c0-2.537-1.019-4.963-2.815-6.741L179.009,2.741z"
	/>
<g>
	<polygon style="fill:#C59981;" points="204.491,55.778 180.657,55.778 180.657,32.204 	"/>
	<path style="fill:#C59981;" d="M28.444,284.444V18.963h133.25v46.296c0,5.241,4.241,9.481,9.481,9.481h46.898v209.704H28.444z"/>
</g>
<path style="fill:#314E55;" d="M499.704,265.898l-55.213-54.565c-1.778-1.759-4.176-2.741-6.667-2.741h-153.38
	c-5.241,0-9.482,4.241-9.482,9.481v284.444c0,5.241,4.241,9.481,9.482,9.481h208.593c5.241,0,9.481-4.241,9.481-9.481v-229.88
	C502.519,270.102,501.5,267.676,499.704,265.898z"/>
<g>
	<polygon style="fill:#5ECB66;" points="469.972,264.37 446.139,264.37 446.139,240.796 	"/>
	<path style="fill:#5ECB66;" d="M293.926,493.037V227.556h133.25v46.296c0,5.241,4.241,9.481,9.481,9.481h46.898v209.704H293.926z"
		/>
</g>
<g>
</g>
<g>
</g>
<g>
</g>
<g>
</g>
<g>
</g>
<g>
</g>
<g>
</g>
<g>
</g>
<g>
</g>
<g>
</g>
<g>
</g>
<g>
</g>
<g>
</g>
<g>
</g>
<g>
</g>
</svg>
