<?xml version="1.0" encoding="iso-8859-1"?>
<!-- Generator: Adobe Illustrator 19.0.0, SVG Export Plug-In . SVG Version: 6.00 Build 0)  -->
<svg version="1.1" id="Layer_1" xmlns="http://www.w3.org/2000/svg" xmlns:xlink="http://www.w3.org/1999/xlink" x="0px" y="0px"
	 viewBox="0 0 512 512" style="enable-background:new 0 0 512 512;" xml:space="preserve">
<path style="fill:#314E55;" d="M511.867,234.008c-0.061-0.969-0.25-1.901-0.57-2.818c-0.119-0.341-0.205-0.677-0.357-1.003
	c-0.514-1.104-1.162-2.151-2.053-3.046c-0.006-0.006-0.01-0.014-0.01-0.014L448,166.25v-59.583c0-0.232-0.118-0.44-0.133-0.672
	c-0.06-0.941-0.242-1.846-0.546-2.741c-0.117-0.342-0.206-0.676-0.357-1.005c-0.519-1.133-1.173-2.21-2.088-3.124l-96-96
	c-0.919-0.919-1.998-1.575-3.135-2.095c-0.318-0.146-0.639-0.233-0.97-0.345c-0.912-0.315-1.839-0.5-2.802-0.559
	C341.75,0.112,341.553,0,341.333,0H74.667C68.776,0,64,4.776,64,10.667V166.25L3.128,227.122c0,0-0.009,0.013-0.016,0.019
	c-0.891,0.894-1.539,1.941-2.053,3.046c-0.152,0.326-0.238,0.661-0.357,1.003c-0.32,0.917-0.509,1.849-0.57,2.818
	C0.118,234.238,0,234.432,0,234.667v202.667C0,443.224,4.776,448,10.667,448H64v53.333C64,507.224,68.776,512,74.667,512h362.667
	c5.891,0,10.667-4.776,10.667-10.667V448h53.333c5.891,0,10.667-4.776,10.667-10.667V234.667
	C512,234.432,511.882,234.238,511.867,234.008z"/>
<polygon style="fill:#EAEAEA;" points="475.583,224 448,224 448,196.417 "/>
<polygon style="fill:#D8D8D8;" points="411.583,96 352,96 352,36.417 "/>
<g>
	<path style="fill:#EAEAEA;" d="M85.333,21.333h245.333v85.333c0,5.891,4.776,10.667,10.667,10.667h85.333v53.333V224H85.333
		v-53.333V21.333z"/>
	<polygon style="fill:#EAEAEA;" points="64,196.417 64,224 36.417,224 	"/>
	<rect x="85.333" y="448" style="fill:#EAEAEA;" width="341.333" height="42.667"/>
</g>
<polygon style="fill:#C59981;" points="490.667,426.667 21.333,426.667 21.333,245.333 74.667,245.333 437.333,245.333 
	490.667,245.333 "/>
<g>
	<polygon style="fill:#314E55;" points="360.902,328.992 322.459,328.992 322.459,276.949 300.88,276.949 300.88,405.333 
		322.459,405.333 322.459,348.394 360.902,348.394 360.902,405.333 382.48,405.333 382.48,276.949 360.902,276.949 	"/>
	<path style="fill:#314E55;" d="M152.912,307.776c2.176-4.234,4.896-7.585,8.16-10.069c3.264-2.475,7.072-3.712,11.424-3.712
		c7.858,0,14.265,3.562,19.221,10.698l12.512-15.232c-3.506-5.077-8.039-8.97-13.6-11.701c-5.561-2.72-12.029-4.075-19.403-4.075
		c-7.132,0-13.63,1.664-19.494,4.982c-5.863,3.328-10.85,7.979-14.96,13.962c-4.111,5.995-7.284,13.12-9.52,21.397
		c-2.236,8.289-3.355,17.323-3.355,27.116c0,9.792,1.118,18.794,3.355,27.018c2.237,8.224,5.379,15.318,9.43,21.301
		c4.05,5.995,9.006,10.677,14.869,14.059s12.421,5.078,19.674,5.078c7.978,0,14.598-1.568,19.856-4.715
		c5.258-3.147,9.581-7.254,12.966-12.331l-12.512-14.687c-2.055,3.146-4.624,5.802-7.706,7.978
		c-3.083,2.176-6.739,3.264-10.971,3.264c-4.473,0-8.372-1.237-11.696-3.723c-3.324-2.475-6.075-5.824-8.251-10.059
		c-2.176-4.234-3.808-9.216-4.896-14.966c-1.089-5.738-1.632-11.807-1.632-18.217c0-6.529,0.544-12.661,1.632-18.411
		C149.104,316.992,150.736,312.01,152.912,307.776z"/>
	<path style="fill:#314E55;" d="M240.859,297.44c1.572-1.45,3.324-2.506,5.258-3.178c1.934-0.661,3.929-0.992,5.984-0.992
		c7.132,0,13.056,2.837,17.77,8.522l11.968-15.594c-3.506-4.107-7.827-7.221-12.965-9.345c-5.138-2.112-10.971-3.168-17.499-3.168
		c-4.473,0-8.885,0.758-13.238,2.262c-4.352,1.514-8.251,3.84-11.696,6.987c-3.445,3.146-6.226,7.104-8.341,11.871
		c-2.116,4.78-3.174,10.496-3.174,17.142c0,5.323,0.695,9.878,2.086,13.685c1.39,3.819,3.264,7.137,5.621,9.974
		c2.357,2.848,5.078,5.29,8.16,7.349c3.083,2.059,6.377,3.926,9.882,5.621c5.561,2.784,10.155,5.803,13.782,9.068
		c3.626,3.263,5.439,7.68,5.439,13.237c0,5.685-1.511,10.09-4.533,13.237s-6.83,4.715-11.424,4.715c-4.11,0-8.13-0.97-12.059-2.901
		s-7.284-4.598-10.064-7.979l-11.787,15.957c3.627,4.236,8.462,7.734,14.506,10.518c6.045,2.784,12.633,4.171,19.766,4.171
		c4.956,0,9.671-0.842,14.144-2.539c4.473-1.695,8.372-4.203,11.696-7.53c3.325-3.318,5.984-7.404,7.978-12.236
		c1.995-4.832,2.992-10.4,2.992-16.682c0-5.44-0.846-10.155-2.538-14.145c-1.693-3.988-3.869-7.434-6.528-10.336
		c-2.659-2.901-5.622-5.375-8.885-7.434c-3.264-2.06-6.467-3.872-9.611-5.44c-5.319-2.656-9.611-5.473-12.875-8.438
		c-3.264-2.954-4.896-7.158-4.896-12.598c0-3.147,0.454-5.867,1.36-8.16C238.048,300.768,239.287,298.891,240.859,297.44z"/>
</g>
<g>
</g>
<g>
</g>
<g>
</g>
<g>
</g>
<g>
</g>
<g>
</g>
<g>
</g>
<g>
</g>
<g>
</g>
<g>
</g>
<g>
</g>
<g>
</g>
<g>
</g>
<g>
</g>
<g>
</g>
</svg>
