<?xml version="1.0" encoding="iso-8859-1"?>
<!-- Generator: Adobe Illustrator 19.0.0, SVG Export Plug-In . SVG Version: 6.00 Build 0)  -->
<svg version="1.1" id="Layer_1" xmlns="http://www.w3.org/2000/svg" xmlns:xlink="http://www.w3.org/1999/xlink" x="0px" y="0px"
	 viewBox="0 0 512 512" style="enable-background:new 0 0 512 512;" xml:space="preserve">
<g>
	<path style="fill:#314E55;" d="M77.283,36.751c-5.335,0-9.66,4.325-9.66,9.66v38.641c0,5.335,4.325,9.66,9.66,9.66
		c5.335,0,9.66-4.325,9.66-9.66V46.411C86.944,41.077,82.618,36.751,77.283,36.751z"/>
	<path style="fill:#314E55;" d="M137.137,19.322c5.335,0,9.66-4.325,9.66-9.66s-4.325-9.66-9.66-9.66H98.496
		c-5.335,0-9.66,4.325-9.66,9.66s4.325,9.66,9.66,9.66H137.137z"/>
	<path style="fill:#314E55;" d="M143.014,492.679h-38.641c-5.335,0-9.66,4.325-9.66,9.66c0,5.335,4.325,9.66,9.66,9.66h38.641
		c5.335,0,9.66-4.325,9.66-9.66C152.675,497.005,148.349,492.679,143.014,492.679z"/>
	<path style="fill:#314E55;" d="M233.741,19.322c5.335,0,9.66-4.325,9.66-9.66s-4.325-9.66-9.66-9.66h-38.641
		c-5.335,0-9.66,4.325-9.66,9.66s4.325,9.66,9.66,9.66H233.741z"/>
	<path style="fill:#314E55;" d="M77.283,423.165c-5.335,0-9.66,4.325-9.66,9.66v38.641c0,5.335,4.325,9.66,9.66,9.66
		c5.335,0,9.66-4.325,9.66-9.66v-38.641C86.944,427.491,82.618,423.165,77.283,423.165z"/>
	<path style="fill:#314E55;" d="M77.283,326.562c-5.335,0-9.66,4.325-9.66,9.66v38.641c0,5.335,4.325,9.66,9.66,9.66
		c5.335,0,9.66-4.325,9.66-9.66v-38.641C86.944,330.887,82.618,326.562,77.283,326.562z"/>
	<path style="fill:#314E55;" d="M77.283,133.355c-5.335,0-9.66,4.325-9.66,9.66v38.641c0,5.335,4.325,9.66,9.66,9.66
		c5.335,0,9.66-4.325,9.66-9.66v-38.641C86.944,137.68,82.618,133.355,77.283,133.355z"/>
	<path style="fill:#314E55;" d="M77.283,229.958c-5.335,0-9.66,4.325-9.66,9.66v38.641c0,5.335,4.325,9.66,9.66,9.66
		c5.335,0,9.66-4.325,9.66-9.66v-38.641C86.944,234.284,82.618,229.958,77.283,229.958z"/>
	<path style="fill:#314E55;" d="M434.717,202.189c-5.335,0-9.66,4.325-9.66,9.66v41.212c0,5.335,4.325,9.66,9.66,9.66
		s9.66-4.325,9.66-9.66V211.85C444.377,206.515,440.052,202.189,434.717,202.189z"/>
	<path style="fill:#314E55;" d="M443.146,110.787c0.153-0.284,0.37-0.521,0.495-0.824c1.495-3.613,0.67-7.764-2.094-10.528
		l-30.808-30.808c-0.418-1.613-1.101-3.166-2.366-4.428l-27.34-27.306c-1.252-1.249-2.787-1.93-4.38-2.351l-31.71-31.71
		c-2.773-2.769-6.915-3.59-10.528-2.094c-0.067,0.028-0.117,0.08-0.183,0.11c-1.194-0.528-2.499-0.846-3.888-0.846h-38.641
		c-5.335,0-9.66,4.325-9.66,9.66s4.325,9.66,9.66,9.66h36.75v86.943c0,5.335,4.325,9.66,9.66,9.66h86.943v37.962
		c0,5.335,4.325,9.66,9.66,9.66s9.66-4.325,9.66-9.66v-38.641C444.377,113.609,443.865,112.138,443.146,110.787z"/>
</g>
<polygon style="fill:#5ECB66;" points="347.773,96.605 347.773,32.982 411.396,96.605 "/>
<g>
	<path style="fill:#314E55;" d="M434.717,301.364c-5.335,0-9.66,4.325-9.66,9.66v38.641c0,5.335,4.325,9.66,9.66,9.66
		s9.66-4.325,9.66-9.66v-38.641C444.377,305.689,440.052,301.364,434.717,301.364z"/>
	<path style="fill:#314E55;" d="M239.618,492.679h-38.641c-5.335,0-9.66,4.325-9.66,9.66c0,5.335,4.325,9.66,9.66,9.66h38.641
		c5.335,0,9.66-4.325,9.66-9.66C249.278,497.005,244.953,492.679,239.618,492.679z"/>
	<path style="fill:#314E55;" d="M336.222,492.679H297.58c-5.335,0-9.66,4.325-9.66,9.66c0,5.335,4.325,9.66,9.66,9.66h38.641
		c5.335,0,9.66-4.325,9.66-9.66C345.882,497.005,341.556,492.679,336.222,492.679z"/>
	<path style="fill:#314E55;" d="M434.717,397.967c-5.335,0-9.66,4.325-9.66,9.66v38.641c0,5.335,4.325,9.66,9.66,9.66
		s9.66-4.325,9.66-9.66v-38.641C444.377,402.293,440.052,397.967,434.717,397.967z"/>
	<path style="fill:#314E55;" d="M432.825,492.679h-38.641c-5.335,0-9.66,4.325-9.66,9.66c0,5.335,4.325,9.66,9.66,9.66h38.641
		c5.335,0,9.66-4.325,9.66-9.66C442.486,497.005,438.16,492.679,432.825,492.679z"/>
</g>
<g>
</g>
<g>
</g>
<g>
</g>
<g>
</g>
<g>
</g>
<g>
</g>
<g>
</g>
<g>
</g>
<g>
</g>
<g>
</g>
<g>
</g>
<g>
</g>
<g>
</g>
<g>
</g>
<g>
</g>
</svg>
