<?xml version="1.0" encoding="iso-8859-1"?>
<!-- Generator: Adobe Illustrator 19.0.0, SVG Export Plug-In . SVG Version: 6.00 Build 0)  -->
<svg version="1.1" id="Layer_1" xmlns="http://www.w3.org/2000/svg" xmlns:xlink="http://www.w3.org/1999/xlink" x="0px" y="0px"
	 viewBox="0 0 512 512" style="enable-background:new 0 0 512 512;" xml:space="preserve">
<path style="fill:#314E55;" d="M511.87,234.022c-0.06-0.975-0.249-1.913-0.572-2.836c-0.119-0.34-0.205-0.676-0.355-0.999
	c-0.51-1.094-1.154-2.128-2.034-3.016c-0.016-0.017-0.025-0.038-0.041-0.055L448,166.25v-59.583c0-0.227-0.117-0.43-0.131-0.656
	c-0.059-0.95-0.242-1.866-0.551-2.767c-0.115-0.337-0.204-0.665-0.352-0.99c-0.519-1.134-1.175-2.212-2.091-3.129l-96-96
	c-0.911-0.909-1.981-1.561-3.107-2.078c-0.346-0.159-0.695-0.253-1.056-0.375c-0.867-0.292-1.745-0.466-2.658-0.529
	C341.807,0.125,341.583,0,341.333,0H74.667C68.771,0,64,4.776,64,10.667V166.25L3.132,227.117c-0.016,0.017-0.025,0.038-0.041,0.055
	c-0.879,0.888-1.523,1.922-2.033,3.016c-0.151,0.323-0.237,0.659-0.355,0.997c-0.322,0.922-0.512,1.861-0.572,2.836
	C0.116,234.246,0,234.438,0,234.667v202.667C0,443.224,4.771,448,10.667,448H64v53.333C64,507.224,68.771,512,74.667,512h362.667
	c5.896,0,10.667-4.776,10.667-10.667V448h53.333c5.896,0,10.667-4.776,10.667-10.667V234.667
	C512,234.438,511.884,234.247,511.87,234.022z"/>
<polygon style="fill:#EAEAEA;" points="475.583,224 448,224 448,196.417 "/>
<polygon style="fill:#D8D8D8;" points="411.583,96 352,96 352,36.417 "/>
<g>
	<path style="fill:#EAEAEA;" d="M85.333,21.333h245.333v85.333c0,5.891,4.771,10.667,10.667,10.667h85.333v53.333V224H85.333
		v-53.333V21.333z"/>
	<polygon style="fill:#EAEAEA;" points="64,196.417 64,224 36.417,224 	"/>
	<rect x="85.333" y="448" style="fill:#EAEAEA;" width="341.333" height="42.667"/>
</g>
<polygon style="fill:#D26CBA;" points="490.667,426.667 21.333,426.667 21.333,245.333 74.667,245.333 437.333,245.333 
	490.667,245.333 "/>
<path style="fill:#314E55;" d="M151.189,276.949h-32.277v128.384h32.096c16.562,0,29.104-5.59,37.627-16.779
	c8.523-11.178,12.784-26.923,12.784-47.232c0-20.31-4.261-36.117-12.784-47.425C180.112,282.603,167.63,276.949,151.189,276.949z"/>
<path style="fill:#D26CBA;" d="M177.574,360.992c-1.39,5.631-3.355,10.315-5.894,14.059c-2.538,3.743-5.56,6.56-9.066,8.427
	c-3.506,1.876-7.314,2.815-11.424,2.815h-10.336V295.99h10.336c4.11,0,7.918,0.939,11.424,2.805
	c3.506,1.878,6.528,4.694,9.066,8.438c2.539,3.745,4.504,8.458,5.894,14.145c1.389,5.685,2.085,12.331,2.085,19.947
	C179.659,348.822,178.963,355.371,177.574,360.992z"/>
<g>
	<path style="fill:#314E55;" d="M352.65,307.776c2.177-4.234,4.897-7.585,8.16-10.069c3.264-2.475,7.072-3.712,11.424-3.712
		c7.859,0,14.265,3.562,19.221,10.698l12.512-15.232c-3.506-5.077-8.04-8.97-13.6-11.701c-5.561-2.72-12.029-4.075-19.402-4.075
		c-7.133,0-13.63,1.664-19.494,4.982c-5.863,3.328-10.85,7.979-14.96,13.962c-4.109,5.995-7.283,13.12-9.519,21.397
		c-2.237,8.289-3.355,17.323-3.355,27.116c0,9.792,1.118,18.794,3.355,27.018c2.236,8.224,5.379,15.318,9.429,21.301
		c4.05,5.995,9.006,10.677,14.869,14.059c5.864,3.382,12.422,5.078,19.675,5.078c7.978,0,14.597-1.568,19.856-4.715
		c5.258-3.147,9.581-7.254,12.965-12.331l-12.512-14.687c-2.055,3.146-4.624,5.802-7.707,7.978
		c-3.083,2.176-6.739,3.264-10.97,3.264c-4.473,0-8.372-1.237-11.697-3.723c-3.324-2.475-6.074-5.824-8.251-10.059
		c-2.176-4.234-3.808-9.216-4.896-14.966c-1.088-5.738-1.632-11.807-1.632-18.217c0-6.529,0.544-12.661,1.632-18.411
		C348.842,316.992,350.475,312.01,352.65,307.776z"/>
	<path style="fill:#314E55;" d="M296.618,292.181c-3.989-5.919-8.855-10.484-14.597-13.695c-5.742-3.201-12.179-4.801-19.312-4.801
		c-7.254,0-13.752,1.6-19.494,4.801c-5.742,3.211-10.608,7.776-14.598,13.695c-3.989,5.921-7.011,12.992-9.066,21.216
		c-2.055,8.224-3.083,17.407-3.083,27.562s1.058,19.371,3.173,27.649c2.115,8.288,5.168,15.392,9.158,21.313
		c3.989,5.919,8.824,10.517,14.506,13.781c5.682,3.263,12.149,4.896,19.403,4.896c7.133,0,13.57-1.633,19.312-4.896
		c5.742-3.264,10.608-7.862,14.597-13.781c3.99-5.921,7.042-13.025,9.158-21.313c2.115-8.277,3.173-17.494,3.173-27.649
		s-1.058-19.339-3.173-27.562C303.661,305.174,300.608,298.102,296.618,292.181z"/>
</g>
<path style="fill:#D26CBA;" d="M285.013,359.359c-0.967,5.75-2.448,10.732-4.442,14.966c-1.995,4.234-4.473,7.552-7.435,9.973
	c-2.962,2.422-6.438,3.628-10.426,3.628c-3.99,0-7.465-1.206-10.427-3.628c-2.962-2.421-5.44-5.738-7.434-9.973
	c-1.995-4.234-3.475-9.216-4.443-14.966c-0.967-5.738-1.451-11.871-1.451-18.4c0-6.527,0.484-12.661,1.451-18.41
	c0.967-5.738,2.448-10.687,4.443-14.87c1.994-4.171,4.472-7.456,7.434-9.878c2.962-2.421,6.438-3.626,10.427-3.626
	c3.869,0,7.283,1.206,10.245,3.626c2.962,2.422,5.44,5.707,7.435,9.878c1.995,4.182,3.506,9.131,4.533,14.87
	c1.027,5.749,1.542,11.883,1.542,18.41C286.464,347.488,285.981,353.621,285.013,359.359z"/>
<g>
</g>
<g>
</g>
<g>
</g>
<g>
</g>
<g>
</g>
<g>
</g>
<g>
</g>
<g>
</g>
<g>
</g>
<g>
</g>
<g>
</g>
<g>
</g>
<g>
</g>
<g>
</g>
<g>
</g>
</svg>
