<?xml version="1.0" encoding="iso-8859-1"?>
<!-- Generator: Adobe Illustrator 19.0.0, SVG Export Plug-In . SVG Version: 6.00 Build 0)  -->
<svg version="1.1" id="Layer_1" xmlns="http://www.w3.org/2000/svg" xmlns:xlink="http://www.w3.org/1999/xlink" x="0px" y="0px"
	 viewBox="0 0 512 512" style="enable-background:new 0 0 512 512;" xml:space="preserve">
<path style="fill:#314E55;" d="M443.077,0H108.308c-5.438,0-9.846,4.409-9.846,9.846v29.538H68.923
	c-5.438,0-9.846,4.409-9.846,9.846v452.923c0,5.438,4.409,9.846,9.846,9.846h334.769c5.438,0,9.846-4.409,9.846-9.846v-29.538
	h29.538c5.438,0,9.846-4.409,9.846-9.846V9.846C452.923,4.409,448.514,0,443.077,0z"/>
<g>
	<path style="fill:#E9E7D1;" d="M393.846,492.308H78.769V59.077h226.462v78.769c0,5.438,4.409,9.846,9.846,9.846h78.769V492.308z"/>
	<polygon style="fill:#E9E7D1;" points="324.923,73 379.923,128 324.923,128 	"/>
</g>
<path style="fill:#5ECB66;" d="M433.231,452.923h-19.692V137.846c0-0.215-0.109-0.407-0.123-0.62
	c-0.055-0.87-0.223-1.706-0.504-2.531c-0.108-0.317-0.19-0.624-0.33-0.928c-0.479-1.046-1.083-2.039-1.927-2.883l-88.615-88.615
	c-0.846-0.846-1.84-1.45-2.886-1.929c-0.302-0.139-0.607-0.221-0.922-0.328c-0.828-0.283-1.668-0.45-2.54-0.505
	c-0.21-0.014-0.401-0.122-0.613-0.122H118.154V19.692h315.077V452.923z"/>
<g>
</g>
<g>
</g>
<g>
</g>
<g>
</g>
<g>
</g>
<g>
</g>
<g>
</g>
<g>
</g>
<g>
</g>
<g>
</g>
<g>
</g>
<g>
</g>
<g>
</g>
<g>
</g>
<g>
</g>
</svg>
