<?xml version="1.0" encoding="iso-8859-1"?>
<!-- Generator: Adobe Illustrator 19.0.0, SVG Export Plug-In . SVG Version: 6.00 Build 0)  -->
<svg version="1.1" id="Layer_1" xmlns="http://www.w3.org/2000/svg" xmlns:xlink="http://www.w3.org/1999/xlink" x="0px" y="0px"
	 viewBox="0 0 512 512" style="enable-background:new 0 0 512 512;" xml:space="preserve">
<path style="fill:#314E55;" d="M511.87,234.022c-0.06-0.975-0.249-1.913-0.572-2.836c-0.119-0.34-0.205-0.676-0.355-0.999
	c-0.51-1.094-1.154-2.128-2.034-3.016c-0.016-0.017-0.025-0.038-0.041-0.055L448,166.25v-59.583c0-0.227-0.117-0.43-0.131-0.656
	c-0.059-0.95-0.242-1.866-0.551-2.767c-0.115-0.337-0.204-0.665-0.352-0.99c-0.519-1.134-1.175-2.212-2.091-3.129l-96-96
	c-0.911-0.909-1.981-1.561-3.108-2.078c-0.345-0.159-0.693-0.253-1.053-0.375c-0.871-0.293-1.754-0.469-2.672-0.531
	C341.799,0.125,341.579,0,341.333,0H74.667C68.771,0,64,4.776,64,10.667V166.25L3.132,227.117c-0.016,0.017-0.025,0.038-0.041,0.055
	c-0.879,0.888-1.523,1.922-2.033,3.016c-0.151,0.323-0.237,0.659-0.355,0.997c-0.322,0.922-0.512,1.861-0.572,2.836
	C0.116,234.246,0,234.438,0,234.667v202.667C0,443.224,4.771,448,10.667,448H64v53.333C64,507.224,68.771,512,74.667,512h362.667
	c5.896,0,10.667-4.776,10.667-10.667V448h53.333c5.896,0,10.667-4.776,10.667-10.667V234.667
	C512,234.438,511.884,234.247,511.87,234.022z"/>
<polygon style="fill:#EAEAEA;" points="475.583,224 448,224 448,196.417 "/>
<polygon style="fill:#D8D8D8;" points="411.583,96 352,96 352,36.417 "/>
<g>
	<path style="fill:#EAEAEA;" d="M85.333,21.333h245.333v85.333c0,5.891,4.771,10.667,10.667,10.667h85.333v53.333V224H85.333
		v-53.333V21.333z"/>
	<polygon style="fill:#EAEAEA;" points="64,196.417 64,224 36.417,224 	"/>
	<rect x="85.333" y="448" style="fill:#EAEAEA;" width="341.333" height="42.667"/>
</g>
<polygon style="fill:#E9E7D1;" points="490.667,426.667 21.333,426.667 21.333,245.333 74.667,245.333 437.333,245.333 
	490.667,245.333 "/>
<g>
	<polygon style="fill:#314E55;" points="335.333,348.033 369.243,348.033 369.243,330.262 335.333,330.262 335.333,296.171 
		371.963,296.171 371.963,276.949 314.48,276.949 314.48,405.333 373.776,405.333 373.776,385.931 335.333,385.931 	"/>
	<polygon style="fill:#314E55;" points="297.435,276.949 275.131,276.949 256.272,321.195 237.232,276.949 214.565,276.949 
		243.579,337.697 211.482,405.333 234.149,405.333 255.728,356.191 277.126,405.333 300.518,405.333 268.24,337.697 	"/>
	<polygon style="fill:#314E55;" points="165.424,348.033 199.333,348.033 199.333,330.262 165.424,330.262 165.424,296.171 
		202.053,296.171 202.053,276.949 144.571,276.949 144.571,405.333 203.867,405.333 203.867,385.931 165.424,385.931 	"/>
</g>
<g>
</g>
<g>
</g>
<g>
</g>
<g>
</g>
<g>
</g>
<g>
</g>
<g>
</g>
<g>
</g>
<g>
</g>
<g>
</g>
<g>
</g>
<g>
</g>
<g>
</g>
<g>
</g>
<g>
</g>
</svg>
