<?xml version="1.0" encoding="iso-8859-1"?>
<!-- Generator: Adobe Illustrator 19.0.0, SVG Export Plug-In . SVG Version: 6.00 Build 0)  -->
<svg version="1.1" id="Layer_1" xmlns="http://www.w3.org/2000/svg" xmlns:xlink="http://www.w3.org/1999/xlink" x="0px" y="0px"
	 viewBox="0 0 512 512" style="enable-background:new 0 0 512 512;" xml:space="preserve">
<path style="fill:#314E55;" d="M441.547,97.33L346.934,2.825C345.123,1.014,342.66,0,340.104,0H77.283c-5.34,0-9.66,4.325-9.66,9.66
	V502.34c0,5.335,4.321,9.66,9.66,9.66h357.434c5.34,0,9.66-4.325,9.66-9.66V104.165C444.377,101.599,443.358,99.142,441.547,97.33z"
	/>
<g>
	<polygon style="fill:#E9E7D1;" points="411.396,96.604 347.774,96.604 347.774,32.981 	"/>
	<path style="fill:#E9E7D1;" d="M86.943,492.679V19.321h241.509v86.943c0,5.335,4.321,9.66,9.66,9.66h86.943v376.755H86.943z"/>
</g>
<path style="fill:#314E55;" d="M376.755,164.226H135.245c-5.34,0-9.66,4.325-9.66,9.66v270.491c0,5.335,4.321,9.66,9.66,9.66
	h241.509c5.34,0,9.66-4.325,9.66-9.66V173.887C386.415,168.552,382.094,164.226,376.755,164.226z"/>
<rect x="144.906" y="183.547" style="fill:#EAEAEA;" width="222.189" height="251.17"/>
<path style="fill:#314E55;" d="M206.576,330.024l-8.358,48.736c-0.623,3.623,0.868,7.288,3.84,9.448
	c2.991,2.16,6.934,2.448,10.17,0.736L256,365.934l43.774,23.009c1.406,0.74,2.953,1.109,4.491,1.109c2,0,4-0.623,5.679-1.844
	c2.972-2.16,4.462-5.825,3.84-9.448l-8.358-48.736l35.415-34.514c2.632-2.571,3.576-6.406,2.443-9.906
	c-1.142-3.495-4.16-6.047-7.802-6.576l-48.934-7.113l-21.887-44.34c-3.245-6.594-14.075-6.594-17.321,0l-21.887,44.34l-48.934,7.113
	c-3.641,0.528-6.66,3.08-7.802,6.576c-1.132,3.5-0.189,7.335,2.443,9.906L206.576,330.024z"/>
<path style="fill:#E4AD40;" d="M233.255,290.307c3.151-0.458,5.868-2.434,7.274-5.288L256,253.675l15.472,31.344
	c1.406,2.854,4.123,4.83,7.274,5.288l34.594,5.028l-25.038,24.396c-2.274,2.222-3.311,5.42-2.773,8.552l5.906,34.448l-30.943-16.264
	c-1.406-0.741-2.944-1.109-4.491-1.109c-1.547,0-3.085,0.368-4.491,1.109l-30.943,16.264l5.906-34.448
	c0.538-3.132-0.5-6.33-2.773-8.552l-25.038-24.396L233.255,290.307z"/>
<g>
</g>
<g>
</g>
<g>
</g>
<g>
</g>
<g>
</g>
<g>
</g>
<g>
</g>
<g>
</g>
<g>
</g>
<g>
</g>
<g>
</g>
<g>
</g>
<g>
</g>
<g>
</g>
<g>
</g>
</svg>
