<?xml version="1.0" encoding="iso-8859-1"?>
<!-- Generator: Adobe Illustrator 19.0.0, SVG Export Plug-In . SVG Version: 6.00 Build 0)  -->
<svg version="1.1" id="Layer_1" xmlns="http://www.w3.org/2000/svg" xmlns:xlink="http://www.w3.org/1999/xlink" x="0px" y="0px"
	 viewBox="0 0 512 512" style="enable-background:new 0 0 512 512;" xml:space="preserve">
<path style="fill:#314E55;" d="M441.543,97.321l-94.613-94.5C345.118,1.019,342.665,0,340.104,0H77.283
	c-5.335,0-9.66,4.321-9.66,9.66V502.34c0,5.34,4.325,9.66,9.66,9.66h357.434c5.335,0,9.66-4.321,9.66-9.66V104.16
	C444.377,101.594,443.358,99.142,441.543,97.321z"/>
<g>
	<polygon style="fill:#E4AD40;" points="411.396,96.604 347.774,96.604 347.774,32.981 	"/>
	<path style="fill:#E4AD40;" d="M86.943,492.679V19.321h241.509v86.943c0,5.34,4.325,9.66,9.66,9.66h86.943v376.755H86.943z"/>
</g>
<g>
	<path style="fill:#314E55;" d="M317.344,270.684c-0.838-1.288-1.514-3.059-2.029-5.314c-0.515-2.254-0.773-5.12-0.773-8.597V225.86
		c0-8.887-1.642-15.972-4.927-21.253c-3.284-5.281-8.791-7.922-16.519-7.922h-11.399v15.263h6.182c3.736,0,6.248,1.449,7.535,4.347
		c1.288,2.898,1.932,6.601,1.932,11.109v32.459c0,3.864,0.386,7.18,1.159,9.95c0.773,2.77,1.739,5.024,2.898,6.762
		c1.159,1.739,2.447,3.059,3.864,3.961c1.417,0.902,2.769,1.481,4.057,1.739v0.387c-1.288,0.258-2.64,0.837-4.057,1.739
		c-1.417,0.902-2.705,2.222-3.864,3.961c-1.159,1.739-2.125,3.993-2.898,6.762s-1.159,6.086-1.159,9.95v32.459
		c0,4.508-0.644,8.211-1.932,11.11c-1.288,2.898-3.799,4.347-7.535,4.347h-6.182v15.264h11.399c7.728,0,13.235-2.64,16.519-7.922
		c3.285-5.281,4.927-12.365,4.927-21.253v-30.913c0-3.478,0.258-6.344,0.773-8.598c0.515-2.254,1.191-4.025,2.029-5.313
		c0.837-1.288,1.9-2.19,3.187-2.705c1.288-0.515,2.705-0.773,4.251-0.773v-16.616c-1.545,0-2.963-0.258-4.251-0.773
		C319.244,272.874,318.181,271.972,317.344,270.684z"/>
	<path style="fill:#314E55;" d="M198.714,204.607c-3.284,5.281-4.927,12.366-4.927,21.253v30.913c0,3.478-0.258,6.344-0.772,8.597
		c-0.515,2.254-1.224,4.026-2.126,5.314c-0.902,1.288-1.964,2.19-3.188,2.705c-1.223,0.515-2.608,0.773-4.154,0.773v16.616
		c1.546,0,2.93,0.258,4.154,0.773c1.224,0.515,2.287,1.417,3.188,2.705c0.902,1.288,1.61,3.059,2.126,5.313
		c0.515,2.254,0.772,5.12,0.772,8.598v30.913c0,8.888,1.643,15.972,4.927,21.253c3.285,5.281,8.791,7.922,16.519,7.922h11.206
		V352.99h-6.183c-3.606,0-6.054-1.449-7.341-4.347c-1.288-2.899-1.932-6.601-1.932-11.11v-32.459c0-3.864-0.387-7.181-1.159-9.95
		c-0.773-2.769-1.771-5.023-2.995-6.762c-1.224-1.739-2.544-3.059-3.961-3.961c-1.417-0.902-2.769-1.481-4.057-1.739v-0.387
		c1.288-0.258,2.64-0.837,4.057-1.739c1.417-0.901,2.737-2.222,3.961-3.961c1.224-1.739,2.222-3.993,2.995-6.762
		c0.772-2.769,1.159-6.086,1.159-9.95v-32.459c0-4.508,0.644-8.211,1.932-11.109c1.288-2.898,3.735-4.347,7.341-4.347h6.183v-15.264
		h-11.206C207.505,196.685,201.999,199.325,198.714,204.607z"/>
</g>
<g>
</g>
<g>
</g>
<g>
</g>
<g>
</g>
<g>
</g>
<g>
</g>
<g>
</g>
<g>
</g>
<g>
</g>
<g>
</g>
<g>
</g>
<g>
</g>
<g>
</g>
<g>
</g>
<g>
</g>
</svg>
