<?xml version="1.0" encoding="iso-8859-1"?>
<!-- Generator: Adobe Illustrator 19.0.0, SVG Export Plug-In . SVG Version: 6.00 Build 0)  -->
<svg version="1.1" id="Layer_1" xmlns="http://www.w3.org/2000/svg" xmlns:xlink="http://www.w3.org/1999/xlink" x="0px" y="0px"
	 viewBox="0 0 512 512" style="enable-background:new 0 0 512 512;" xml:space="preserve">
<path style="fill:#314E55;" d="M441.543,97.321l-94.613-94.5C345.118,1.019,342.665,0,340.104,0H77.283
	c-5.335,0-9.66,4.321-9.66,9.66V502.34c0,5.34,4.325,9.66,9.66,9.66h357.434c5.335,0,9.66-4.321,9.66-9.66V104.16
	C444.377,101.594,443.358,99.142,441.543,97.321z"/>
<g>
	<polygon style="fill:#EAEAEA;" points="411.396,96.604 347.774,96.604 347.774,32.981 	"/>
	<path style="fill:#EAEAEA;" d="M86.943,492.679V19.321h241.509v86.943c0,5.34,4.325,9.66,9.66,9.66h86.943v376.755H86.943z"/>
</g>
<path style="fill:#314E55;" d="M376.755,164.226H135.245c-5.335,0-9.66,4.321-9.66,9.66v270.491c0,5.34,4.325,9.66,9.66,9.66
	h241.509c5.335,0,9.66-4.321,9.66-9.66V173.887C386.415,168.547,382.09,164.226,376.755,164.226z"/>
<rect x="144.906" y="183.547" style="fill:#F28544;" width="222.189" height="251.17"/>
<path style="fill:#314E55;" d="M193.208,396.075h125.585c5.335,0,9.66-4.321,9.66-9.66v-86.943c0-5.34-4.325-9.66-9.66-9.66h-0.245
	c-2.482-32.367-29.555-57.962-62.548-57.962s-60.065,25.595-62.548,57.962h-0.245c-5.335,0-9.66,4.321-9.66,9.66v86.943
	C183.547,391.755,187.873,396.075,193.208,396.075z"/>
<rect x="202.868" y="309.132" style="fill:#D8D8D8;" width="106.264" height="67.623"/>
<path style="fill:#F28544;" d="M256,251.17c22.318,0,40.545,16.965,42.984,38.642h-85.967
	C215.455,268.135,233.682,251.17,256,251.17z"/>
<g>
</g>
<g>
</g>
<g>
</g>
<g>
</g>
<g>
</g>
<g>
</g>
<g>
</g>
<g>
</g>
<g>
</g>
<g>
</g>
<g>
</g>
<g>
</g>
<g>
</g>
<g>
</g>
<g>
</g>
</svg>
