<?xml version="1.0" encoding="iso-8859-1"?>
<!-- Generator: Adobe Illustrator 19.0.0, SVG Export Plug-In . SVG Version: 6.00 Build 0)  -->
<svg version="1.1" id="Layer_1" xmlns="http://www.w3.org/2000/svg" xmlns:xlink="http://www.w3.org/1999/xlink" x="0px" y="0px"
	 viewBox="0 0 512 512" style="enable-background:new 0 0 512 512;" xml:space="preserve">
<path style="fill:#314E55;" d="M441.543,97.321l-94.613-94.5C345.118,1.019,342.665,0,340.104,0H77.283
	c-5.335,0-9.66,4.321-9.66,9.66V502.34c0,5.34,4.325,9.66,9.66,9.66h357.434c5.335,0,9.66-4.321,9.66-9.66V104.16
	C444.377,101.594,443.358,99.142,441.543,97.321z"/>
<g>
	<polygon style="fill:#EAEAEA;" points="411.396,96.604 347.774,96.604 347.774,32.981 	"/>
	<path style="fill:#EAEAEA;" d="M86.943,492.679V19.321h241.509v86.943c0,5.34,4.325,9.66,9.66,9.66h86.943v376.755H86.943z"/>
</g>
<path style="fill:#314E55;" d="M376.755,164.226H135.245c-5.335,0-9.66,4.321-9.66,9.66v270.491c0,5.34,4.325,9.66,9.66,9.66
	h241.509c5.335,0,9.66-4.321,9.66-9.66V173.887C386.415,168.547,382.09,164.226,376.755,164.226z"/>
<rect x="144.906" y="183.547" style="fill:#D8D8D8;" width="222.189" height="251.17"/>
<path style="fill:#314E55;" d="M171.519,398.66c0.778,0,1.566-0.094,2.344-0.292l54.646-13.66c0.289-0.072,0.537-0.226,0.814-0.322
	c0.286-0.1,0.555-0.202,0.832-0.33c1.039-0.475,2.004-1.07,2.804-1.863c0.01-0.01,0.025-0.013,0.035-0.023L335.51,279.661
	c15.042-15.047,15.019-39.538-0.047-54.594c-7.283-7.292-16.976-11.311-27.283-11.33c-0.024,0-0.047,0-0.071,0
	c-10.302,0-19.976,4-27.245,11.274L178.349,327.529c-0.012,0.012-0.016,0.029-0.028,0.041c-0.78,0.788-1.369,1.736-1.842,2.755
	c-0.123,0.263-0.217,0.522-0.315,0.796c-0.11,0.305-0.277,0.58-0.357,0.898l-13.66,54.642c-0.821,3.293,0.142,6.774,2.542,9.17
	C166.524,397.66,168.991,398.66,171.519,398.66z"/>
<g>
	<polygon style="fill:#5ECB66;" points="190.415,353.255 198.842,361.679 207.268,370.104 184.797,375.726 	"/>
	<path style="fill:#5ECB66;" d="M294.524,238.67c3.632-3.641,8.693-5.292,13.623-5.613c5.156,0.009,10.009,2.019,13.656,5.67
		c7.533,7.528,7.552,19.764,0.047,27.274l-95.684,95.679l-13.663-13.66l-13.662-13.661L294.524,238.67z"/>
</g>
<g>
</g>
<g>
</g>
<g>
</g>
<g>
</g>
<g>
</g>
<g>
</g>
<g>
</g>
<g>
</g>
<g>
</g>
<g>
</g>
<g>
</g>
<g>
</g>
<g>
</g>
<g>
</g>
<g>
</g>
</svg>
