<?xml version="1.0" encoding="iso-8859-1"?>
<!-- Generator: Adobe Illustrator 19.0.0, SVG Export Plug-In . SVG Version: 6.00 Build 0)  -->
<svg version="1.1" id="Layer_1" xmlns="http://www.w3.org/2000/svg" xmlns:xlink="http://www.w3.org/1999/xlink" x="0px" y="0px"
	 viewBox="0 0 512 512" style="enable-background:new 0 0 512 512;" xml:space="preserve">
<path style="fill:#314E55;" d="M441.543,97.321l-94.613-94.5C345.118,1.019,342.665,0,340.104,0H77.283
	c-5.335,0-9.66,4.321-9.66,9.66V502.34c0,5.34,4.325,9.66,9.66,9.66h357.434c5.335,0,9.66-4.321,9.66-9.66V104.16
	C444.377,101.594,443.358,99.142,441.543,97.321z"/>
<g>
	<polygon style="fill:#73C9C9;" points="411.396,96.604 347.774,96.604 347.774,32.981 	"/>
	<path style="fill:#73C9C9;" d="M86.943,492.679V19.321h241.509v86.943c0,5.34,4.325,9.66,9.66,9.66h86.943v376.755H86.943z"/>
</g>
<path style="fill:#314E55;" d="M256,154.566c-61.259,0-111.094,49.84-111.094,111.094c0,32.774,13.967,63.047,38.585,84.179
	l-13.689,32.859c-1.571,3.774-0.604,8.123,2.415,10.868c1.821,1.651,4.151,2.509,6.5,2.509c1.552,0,3.113-0.377,4.547-1.132
	l42.113-22.462c9.92,2.84,20.198,4.274,30.623,4.274c61.259,0,111.094-49.84,111.094-111.094S317.259,154.566,256,154.566z"/>
<path style="fill:#D8D8D8;" d="M256,357.434c-9.788,0-19.415-1.528-28.618-4.547c-2.505-0.821-5.231-0.576-7.557,0.651
	l-21.788,11.623l6.075-14.585c1.703-4.085,0.415-8.792-3.118-11.443c-23.368-17.528-36.769-44.302-36.769-73.472
	c0-50.604,41.17-91.774,91.774-91.774s91.774,41.17,91.774,91.774S306.604,357.434,256,357.434z"/>
<g>
	<path style="fill:#314E55;" d="M212.528,241.509c-10.656,0-19.321,8.67-19.321,19.321c0,10.651,8.665,19.321,19.321,19.321
		s19.321-8.67,19.321-19.321C231.849,250.179,223.184,241.509,212.528,241.509z"/>
	<path style="fill:#314E55;" d="M260.83,241.509c-10.656,0-19.321,8.67-19.321,19.321c0,10.651,8.665,19.321,19.321,19.321
		c10.656,0,19.321-8.67,19.321-19.321C280.151,250.179,271.486,241.509,260.83,241.509z"/>
	<path style="fill:#314E55;" d="M289.811,260.83c0,10.651,8.665,19.321,19.321,19.321s19.321-8.67,19.321-19.321
		c0-10.651-8.665-19.321-19.321-19.321S289.811,250.179,289.811,260.83z"/>
</g>
<g>
</g>
<g>
</g>
<g>
</g>
<g>
</g>
<g>
</g>
<g>
</g>
<g>
</g>
<g>
</g>
<g>
</g>
<g>
</g>
<g>
</g>
<g>
</g>
<g>
</g>
<g>
</g>
<g>
</g>
</svg>
