<?xml version="1.0" encoding="iso-8859-1"?>
<!-- Generator: Adobe Illustrator 19.0.0, SVG Export Plug-In . SVG Version: 6.00 Build 0)  -->
<svg version="1.1" id="Layer_1" xmlns="http://www.w3.org/2000/svg" xmlns:xlink="http://www.w3.org/1999/xlink" x="0px" y="0px"
	 viewBox="0 0 512 512" style="enable-background:new 0 0 512 512;" xml:space="preserve">
<path style="fill:#314E55;" d="M441.547,97.321l-94.613-94.5C345.123,1.019,342.66,0,340.104,0H77.283c-5.34,0-9.66,4.321-9.66,9.66
	V502.34c0,5.34,4.321,9.66,9.66,9.66h357.434c5.34,0,9.66-4.321,9.66-9.66V104.16C444.377,101.594,443.358,99.142,441.547,97.321z"
	/>
<g>
	<polygon style="fill:#5ECB66;" points="411.396,96.604 347.774,96.604 347.774,32.981 	"/>
	<path style="fill:#5ECB66;" d="M86.943,492.679V19.321h241.509v86.943c0,5.34,4.321,9.66,9.66,9.66h86.943v376.755H86.943z"/>
</g>
<path style="fill:#314E55;" d="M391.245,376.755h-53.132v-57.962c0-5.34-4.321-9.66-9.66-9.66c-5.34,0-9.66,4.321-9.66,9.66v57.962
	H260.83c-5.34,0-9.66,4.321-9.66,9.66s4.321,9.66,9.66,9.66h57.962v57.962c0,5.34,4.321,9.66,9.66,9.66c5.34,0,9.66-4.321,9.66-9.66
	v-57.962h53.132c5.34,0,9.66-4.321,9.66-9.66S396.585,376.755,391.245,376.755z"/>
<g>
</g>
<g>
</g>
<g>
</g>
<g>
</g>
<g>
</g>
<g>
</g>
<g>
</g>
<g>
</g>
<g>
</g>
<g>
</g>
<g>
</g>
<g>
</g>
<g>
</g>
<g>
</g>
<g>
</g>
</svg>
