<?xml version="1.0" encoding="iso-8859-1"?>
<!-- Generator: Adobe Illustrator 19.0.0, SVG Export Plug-In . SVG Version: 6.00 Build 0)  -->
<svg version="1.1" id="Layer_1" xmlns="http://www.w3.org/2000/svg" xmlns:xlink="http://www.w3.org/1999/xlink" x="0px" y="0px"
	 viewBox="0 0 512 512" style="enable-background:new 0 0 512 512;" xml:space="preserve">
<path style="fill:#314E55;" d="M441.543,97.321l-94.613-94.5C345.118,1.019,342.665,0,340.104,0H77.283
	c-5.335,0-9.66,4.321-9.66,9.66V502.34c0,5.34,4.325,9.66,9.66,9.66h357.434c5.335,0,9.66-4.321,9.66-9.66V104.16
	C444.377,101.594,443.358,99.142,441.543,97.321z"/>
<g>
	<polygon style="fill:#EAEAEA;" points="411.396,96.604 347.774,96.604 347.774,32.981 	"/>
	<path style="fill:#EAEAEA;" d="M86.943,492.679V19.321h241.509v86.943c0,5.34,4.325,9.66,9.66,9.66h86.943v376.755H86.943z"/>
</g>
<path style="fill:#314E55;" d="M376.755,164.226H135.245c-5.335,0-9.66,4.321-9.66,9.66v270.491c0,5.34,4.325,9.66,9.66,9.66
	h241.509c5.335,0,9.66-4.321,9.66-9.66V173.887C386.415,168.547,382.09,164.226,376.755,164.226z"/>
<rect x="144.906" y="183.547" style="fill:#E4AD40;" width="222.189" height="251.17"/>
<path style="fill:#314E55;" d="M255.491,400.481c0.302,0,0.585,0,0.868,0c26.929,0,55.674-19.689,73.344-50.292
	c11.288-19.557,16.651-41.104,15.109-60.698c-1.651-20.925-10.892-37.255-26.019-45.991c-18.057-10.434-41.137-8.094-62.792,6.047
	c-21.67-14.142-44.741-16.481-62.792-6.047c-15.127,8.736-24.368,25.066-26.019,45.991c-1.543,19.594,3.821,41.142,15.109,60.698
	C199.967,380.793,228.712,400.481,255.491,400.481z"/>
<path style="fill:#E65F58;" d="M202.868,260.236c12.547-7.254,30.656-3.859,47.274,8.811c3.462,2.642,8.255,2.642,11.717,0
	c16.613-12.67,34.726-16.075,47.274-8.811c9.453,5.453,15.283,16.387,16.415,30.774c1.241,15.736-3.226,33.321-12.58,49.519
	c-14.057,24.349-36.769,40.632-56.755,40.632c-0.094,0-0.193,0-0.288,0c-19.792,0.151-42.769-16.179-56.891-40.632
	c-9.354-16.198-13.825-33.783-12.585-49.519C187.585,276.623,193.415,265.689,202.868,260.236z"/>
<g>
</g>
<g>
</g>
<g>
</g>
<g>
</g>
<g>
</g>
<g>
</g>
<g>
</g>
<g>
</g>
<g>
</g>
<g>
</g>
<g>
</g>
<g>
</g>
<g>
</g>
<g>
</g>
<g>
</g>
</svg>
