<?xml version="1.0" encoding="iso-8859-1"?>
<!-- Generator: Adobe Illustrator 19.0.0, SVG Export Plug-In . SVG Version: 6.00 Build 0)  -->
<svg version="1.1" id="Layer_1" xmlns="http://www.w3.org/2000/svg" xmlns:xlink="http://www.w3.org/1999/xlink" x="0px" y="0px"
	 viewBox="0 0 512 512" style="enable-background:new 0 0 512 512;" xml:space="preserve">
<path style="fill:#314E55;" d="M441.543,97.321l-94.613-94.5C345.118,1.019,342.665,0,340.104,0H77.283
	c-5.335,0-9.66,4.321-9.66,9.66V502.34c0,5.34,4.325,9.66,9.66,9.66h357.434c5.335,0,9.66-4.321,9.66-9.66V104.16
	C444.377,101.594,443.358,99.142,441.543,97.321z"/>
<g>
	<polygon style="fill:#5ECB66;" points="411.396,96.604 347.774,96.604 347.774,32.981 	"/>
	<path style="fill:#5ECB66;" d="M86.943,492.679V19.321h241.509v86.943c0,5.34,4.325,9.66,9.66,9.66h86.943v376.755H86.943z"/>
</g>
<g>
	<polygon style="fill:#314E55;" points="269.717,250.397 335.022,279.571 269.717,308.746 269.717,329.998 367.48,286.527 
		367.48,272.616 269.717,229.144 	"/>
	<polygon style="fill:#314E55;" points="141.042,286.527 238.805,329.998 238.805,308.746 173.501,279.571 238.805,250.397 
		238.805,229.144 141.042,272.616 	"/>
</g>
<g>
</g>
<g>
</g>
<g>
</g>
<g>
</g>
<g>
</g>
<g>
</g>
<g>
</g>
<g>
</g>
<g>
</g>
<g>
</g>
<g>
</g>
<g>
</g>
<g>
</g>
<g>
</g>
<g>
</g>
</svg>
