<?xml version="1.0" encoding="iso-8859-1"?>
<!-- Generator: Adobe Illustrator 19.0.0, SVG Export Plug-In . SVG Version: 6.00 Build 0)  -->
<svg version="1.1" id="Layer_1" xmlns="http://www.w3.org/2000/svg" xmlns:xlink="http://www.w3.org/1999/xlink" x="0px" y="0px"
	 viewBox="0 0 512 512" style="enable-background:new 0 0 512 512;" xml:space="preserve">
<path style="fill:#314E55;" d="M511.867,234.008c-0.061-0.969-0.25-1.901-0.57-2.818c-0.119-0.341-0.205-0.677-0.357-1.003
	c-0.514-1.104-1.162-2.151-2.053-3.046c-0.006-0.006-0.01-0.014-0.01-0.014L448,166.25v-59.583c0-0.232-0.118-0.44-0.133-0.672
	c-0.06-0.941-0.242-1.846-0.546-2.741c-0.117-0.342-0.206-0.676-0.357-1.005c-0.519-1.133-1.173-2.21-2.088-3.124l-96-96
	c-0.919-0.919-1.998-1.575-3.135-2.095c-0.318-0.146-0.639-0.233-0.97-0.345c-0.912-0.315-1.839-0.5-2.802-0.559
	C341.75,0.112,341.553,0,341.333,0H74.667C68.776,0,64,4.776,64,10.667V166.25L3.128,227.122c0,0-0.009,0.013-0.016,0.019
	c-0.891,0.894-1.539,1.941-2.053,3.046c-0.152,0.326-0.238,0.661-0.357,1.003c-0.32,0.917-0.509,1.849-0.57,2.818
	C0.118,234.238,0,234.432,0,234.667v202.667C0,443.224,4.776,448,10.667,448H64v53.333C64,507.224,68.776,512,74.667,512h362.667
	c5.891,0,10.667-4.776,10.667-10.667V448h53.333c5.891,0,10.667-4.776,10.667-10.667V234.667
	C512,234.432,511.882,234.238,511.867,234.008z"/>
<polygon style="fill:#EAEAEA;" points="475.583,224 448,224 448,196.417 "/>
<polygon style="fill:#D8D8D8;" points="411.583,96 352,96 352,36.417 "/>
<g>
	<path style="fill:#EAEAEA;" d="M85.333,21.333h245.333v85.333c0,5.891,4.776,10.667,10.667,10.667h85.333v53.333V224H85.333
		v-53.333V21.333z"/>
	<polygon style="fill:#EAEAEA;" points="64,196.417 64,224 36.417,224 	"/>
	<rect x="85.333" y="448" style="fill:#EAEAEA;" width="341.333" height="42.667"/>
</g>
<polygon style="fill:#DBCF56;" points="490.667,426.667 21.333,426.667 21.333,245.333 74.667,245.333 437.333,245.333 
	490.667,245.333 "/>
<g>
	<path style="fill:#314E55;" d="M290.363,338.239v-0.543c5.923-1.569,10.518-5.078,13.781-10.518
		c3.264-5.44,4.897-11.786,4.897-19.04c0-5.322-0.907-10.059-2.72-14.239c-1.814-4.171-4.292-7.701-7.435-10.603
		c-3.143-2.901-6.77-5.109-10.88-6.624c-4.109-1.504-8.522-2.262-13.237-2.262c-3.506,0-7.011,0.481-10.518,1.452
		c-3.506,0.97-6.829,2.474-9.973,4.533c-3.143,2.059-5.984,4.715-8.523,7.979c-2.538,3.263-4.533,7.135-5.984,11.606l18.859,5.258
		c1.33-3.509,3.203-6.41,5.621-8.703c2.419-2.294,5.379-3.445,8.885-3.445c2.659,0,4.957,0.543,6.891,1.631
		c1.934,1.089,3.506,2.475,4.715,4.171c1.208,1.697,2.085,3.595,2.63,5.707c0.544,2.122,0.816,4.202,0.816,6.261
		c0,6.165-1.602,10.966-4.805,14.411c-3.203,3.456-7.525,5.173-12.966,5.173h-5.984v16.865h5.44c6.165,0,11.182,1.749,15.05,5.258
		c3.869,3.509,5.803,8.705,5.803,15.595c0,2.539-0.333,5.046-0.997,7.519c-0.664,2.486-1.723,4.715-3.173,6.71
		c-1.45,2.005-3.264,3.606-5.44,4.811c-2.176,1.205-4.775,1.813-7.797,1.813c-4.715,0-8.553-1.418-11.515-4.267
		c-2.962-2.837-5.107-6.548-6.438-11.146l-19.221,5.077c2.419,9.674,6.952,16.949,13.6,21.845c6.649,4.907,14.809,7.35,24.48,7.35
		c5.561,0,10.669-0.939,15.323-2.817c4.654-1.867,8.613-4.522,11.878-7.979c3.264-3.445,5.802-7.552,7.616-12.331
		c1.813-4.767,2.72-9.994,2.72-15.68c0-7.616-1.934-14.229-5.803-19.861C302.089,343.585,296.891,339.936,290.363,338.239z"/>
	<path style="fill:#314E55;" d="M174.491,273.685c-8.221,0-15.624,1.717-22.214,5.163c-6.589,3.456-12.21,8.224-16.864,14.326
		c-4.654,6.112-8.251,13.27-10.789,21.494c-2.539,8.224-3.808,17.109-3.808,26.656c0,9.792,1.178,18.794,3.536,27.018
		c2.357,8.224,5.833,15.318,10.426,21.302c4.594,5.994,10.215,10.645,16.864,13.962c6.649,3.328,14.326,4.992,23.029,4.992
		c8.705,0,16.381-1.387,23.029-4.171c6.649-2.784,12.693-7.008,18.133-12.694l-7.072-10.517c-4.11,4.469-8.976,8.064-14.598,10.784
		c-5.621,2.73-11.696,4.086-18.224,4.086c-6.649,0-12.542-1.355-17.68-4.086c-5.139-2.72-9.49-6.517-13.056-11.425
		c-3.566-4.896-6.286-10.687-8.16-17.407c-1.874-6.71-2.811-14.048-2.811-22.026c0-7.499,0.936-14.593,2.811-21.313
		c1.874-6.71,4.563-12.598,8.069-17.674c3.506-5.078,7.737-9.099,12.693-12.064c4.957-2.956,10.518-4.438,16.683-4.438
		c5.923,0,11.213,1.087,15.867,3.264c4.654,2.176,8.613,5.29,11.878,9.333c3.264,4.052,5.742,8.949,7.434,14.687
		c1.693,5.749,2.539,12.181,2.539,19.318c0,8.949-1.299,16.138-3.899,21.578c-2.599,5.44-5.773,8.16-9.519,8.16
		c-2.056,0-3.445-0.725-4.171-2.176c-0.726-1.45-1.089-3.264-1.089-5.44c0-1.697,0.182-4.234,0.544-7.616s0.907-7.008,1.632-10.88
		l5.258-27.382h-13.056l-1.45,7.254h-0.544c-0.483-3.147-1.843-5.888-4.08-8.257c-2.236-2.357-5.349-3.531-9.339-3.531
		c-4.231,0-7.978,1.27-11.243,3.809c-3.264,2.539-5.984,5.835-8.159,9.878c-2.177,4.053-3.838,8.65-4.987,13.781
		c-1.149,5.141-1.723,10.314-1.723,15.509c0,3.99,0.424,7.766,1.27,11.328c0.846,3.573,2.085,6.687,3.717,9.344
		c1.631,2.656,3.656,4.779,6.074,6.346c2.419,1.569,5.198,2.358,8.342,2.358c2.296,0,4.322-0.394,6.074-1.185
		c1.753-0.779,3.325-1.781,4.715-2.986c1.39-1.206,2.568-2.539,3.536-3.99c0.967-1.451,1.753-2.901,2.357-4.352h0.363
		c0.121,4.234,1.36,7.37,3.717,9.428c2.357,2.058,5.47,3.083,9.339,3.083c4.352,0,8.281-1.12,11.787-3.361
		c3.506-2.229,6.498-5.344,8.976-9.333c2.478-3.99,4.382-8.703,5.711-14.143s1.995-11.307,1.995-17.59
		c0-18.613-4.382-32.97-13.146-43.072C202.446,278.73,190.206,273.685,174.491,273.685z"/>
</g>
<path style="fill:#DBCF56;" d="M182.016,341.685c-0.544,3.382-1.33,6.56-2.357,9.516c-1.027,2.965-2.357,5.504-3.99,7.616
	c-1.631,2.122-3.536,3.178-5.711,3.178c-3.264,0-5.592-1.387-6.982-4.171c-1.389-2.784-2.085-6.283-2.085-10.517
	c0-3.382,0.302-6.827,0.907-10.337c0.605-3.509,1.481-6.645,2.63-9.428c1.149-2.784,2.568-5.046,4.261-6.806
	c1.693-1.749,3.627-2.624,5.803-2.624c3.264,0,5.47,1.45,6.618,4.351c1.149,2.902,1.723,6.348,1.723,10.336
	C182.832,335.339,182.56,338.303,182.016,341.685z"/>
<polygon style="fill:#314E55;" points="394.448,312.853 372.326,312.853 359.632,342.954 346.758,312.853 324.454,312.853 
	346.214,356.918 322.277,405.333 344.763,405.333 359.45,371.606 373.776,405.333 396.443,405.333 372.87,356.918 "/>
<g>
</g>
<g>
</g>
<g>
</g>
<g>
</g>
<g>
</g>
<g>
</g>
<g>
</g>
<g>
</g>
<g>
</g>
<g>
</g>
<g>
</g>
<g>
</g>
<g>
</g>
<g>
</g>
<g>
</g>
</svg>
