<?xml version="1.0" encoding="iso-8859-1"?>
<!-- Generator: Adobe Illustrator 19.0.0, SVG Export Plug-In . SVG Version: 6.00 Build 0)  -->
<svg version="1.1" id="Layer_1" xmlns="http://www.w3.org/2000/svg" xmlns:xlink="http://www.w3.org/1999/xlink" x="0px" y="0px"
	 viewBox="0 0 512 512" style="enable-background:new 0 0 512 512;" xml:space="preserve">
<path style="fill:#314E55;" d="M441.547,97.321l-94.613-94.5C345.123,1.019,342.66,0,340.104,0H77.283c-5.34,0-9.66,4.321-9.66,9.66
	V502.34c0,5.34,4.321,9.66,9.66,9.66h357.434c5.34,0,9.66-4.321,9.66-9.66V104.16C444.377,101.594,443.358,99.142,441.547,97.321z"
	/>
<g>
	<polygon style="fill:#DBCF56;" points="411.396,96.604 347.774,96.604 347.774,32.981 	"/>
	<path style="fill:#DBCF56;" d="M86.943,492.679V19.321h241.509v86.943c0,5.34,4.321,9.66,9.66,9.66h86.943v376.755H86.943z"/>
</g>
<path style="fill:#314E55;" d="M309.132,222.189v-0.009c0-26.632-21.67-48.292-48.302-48.292s-48.302,21.66-48.302,48.292v0.009
	h-28.981h-38.642v19.321h28.981v193.208c0,5.34,4.321,9.66,9.66,9.66h154.566c5.34,0,9.66-4.321,9.66-9.66V241.509h28.981v-19.321
	h-38.642H309.132z M231.849,222.179c0-15.972,13-28.972,28.981-28.972s28.981,13,28.981,28.972v0.009h-57.962V222.179z"/>
<path style="fill:#D8D8D8;" d="M328.453,425.057H193.208V241.509h19.321v144.906c0,5.34,4.321,9.66,9.66,9.66
	c5.34,0,9.66-4.321,9.66-9.66V241.509h57.962v144.906c0,5.34,4.321,9.66,9.66,9.66c5.34,0,9.66-4.321,9.66-9.66V241.509h19.321
	V425.057z"/>
<g>
</g>
<g>
</g>
<g>
</g>
<g>
</g>
<g>
</g>
<g>
</g>
<g>
</g>
<g>
</g>
<g>
</g>
<g>
</g>
<g>
</g>
<g>
</g>
<g>
</g>
<g>
</g>
<g>
</g>
</svg>
