<?xml version="1.0" encoding="iso-8859-1"?>
<!-- Generator: Adobe Illustrator 19.0.0, SVG Export Plug-In . SVG Version: 6.00 Build 0)  -->
<svg version="1.1" id="Layer_1" xmlns="http://www.w3.org/2000/svg" xmlns:xlink="http://www.w3.org/1999/xlink" x="0px" y="0px"
	 viewBox="0 0 512 512" style="enable-background:new 0 0 512 512;" xml:space="preserve">
<path style="fill:#314E55;" d="M441.547,97.321l-94.613-94.5C345.123,1.019,342.66,0,340.104,0H77.283c-5.34,0-9.66,4.321-9.66,9.66
	V502.34c0,5.34,4.321,9.66,9.66,9.66h357.434c5.34,0,9.66-4.321,9.66-9.66V104.16C444.377,101.594,443.358,99.142,441.547,97.321z"
	/>
<g>
	<polygon style="fill:#EAEAEA;" points="411.396,96.604 347.774,96.604 347.774,32.981 	"/>
	<path style="fill:#EAEAEA;" d="M86.943,492.679V19.321h241.509v86.943c0,5.34,4.321,9.66,9.66,9.66h86.943v376.755H86.943z"/>
</g>
<path style="fill:#314E55;" d="M241.509,212.528H115.925v19.321h115.925v183.547c0,3.679,2.094,7.038,5.396,8.67
	c3.302,1.613,7.245,1.226,10.151-1.01l56.906-43.773l56.906,43.774c1.717,1.321,3.792,2,5.887,2c1.453,0,2.915-0.33,4.264-0.991
	c3.302-1.632,5.396-4.991,5.396-8.67V231.849h9.66v-19.321h-19.321H241.509z"/>
<path style="fill:#E4AD40;" d="M357.434,395.774l-47.245-36.34c-1.736-1.33-3.811-2-5.887-2c-2.076,0-4.151,0.67-5.887,2
	l-47.245,36.34V231.849h106.264V395.774z"/>
<g>
</g>
<g>
</g>
<g>
</g>
<g>
</g>
<g>
</g>
<g>
</g>
<g>
</g>
<g>
</g>
<g>
</g>
<g>
</g>
<g>
</g>
<g>
</g>
<g>
</g>
<g>
</g>
<g>
</g>
</svg>
