<?xml version="1.0" encoding="iso-8859-1"?>
<!-- Generator: Adobe Illustrator 19.0.0, SVG Export Plug-In . SVG Version: 6.00 Build 0)  -->
<svg version="1.1" id="Layer_1" xmlns="http://www.w3.org/2000/svg" xmlns:xlink="http://www.w3.org/1999/xlink" x="0px" y="0px"
	 viewBox="0 0 512 512" style="enable-background:new 0 0 512 512;" xml:space="preserve">
<path style="fill:#314E55;" d="M441.547,97.321l-94.613-94.5C345.123,1.019,342.66,0,340.104,0H77.283c-5.34,0-9.66,4.321-9.66,9.66
	V502.34c0,5.34,4.321,9.66,9.66,9.66h357.434c5.34,0,9.66-4.321,9.66-9.66V104.16C444.377,101.594,443.358,99.142,441.547,97.321z"
	/>
<g>
	<polygon style="fill:#E65F58;" points="411.396,96.604 347.774,96.604 347.774,32.981 	"/>
	<path style="fill:#E65F58;" d="M86.943,492.679V19.321h241.509v86.943c0,5.34,4.321,9.66,9.66,9.66h86.943v376.755H86.943z"/>
</g>
<path style="fill:#314E55;" d="M369.444,331.774l-43.403,43.403l-39.984-39.988c-3.774-3.774-9.887-3.774-13.66,0
	c-3.773,3.774-3.774,9.887,0,13.66l39.984,39.988l-38.569,38.569c-3.774,3.774-3.774,9.887,0,13.66
	c1.887,1.887,4.359,2.83,6.83,2.83c2.472,0,4.943-0.943,6.83-2.83l38.568-38.568l38.564,38.568c1.887,1.887,4.359,2.83,6.83,2.83
	c2.472,0,4.943-0.943,6.83-2.83c3.774-3.774,3.774-9.887,0-13.66L339.7,388.838l43.404-43.404c3.774-3.774,3.774-9.887,0-13.66
	C379.33,328,373.217,328,369.444,331.774z"/>
<g>
</g>
<g>
</g>
<g>
</g>
<g>
</g>
<g>
</g>
<g>
</g>
<g>
</g>
<g>
</g>
<g>
</g>
<g>
</g>
<g>
</g>
<g>
</g>
<g>
</g>
<g>
</g>
<g>
</g>
</svg>
