<?xml version="1.0" encoding="iso-8859-1"?>
<!-- Generator: Adobe Illustrator 19.0.0, SVG Export Plug-In . SVG Version: 6.00 Build 0)  -->
<svg version="1.1" id="Layer_1" xmlns="http://www.w3.org/2000/svg" xmlns:xlink="http://www.w3.org/1999/xlink" x="0px" y="0px"
	 viewBox="0 0 512 512" style="enable-background:new 0 0 512 512;" xml:space="preserve">
<path style="fill:#314E55;" d="M193.212,231.849V52.283c0-2.594-1.047-5.085-2.896-6.896L146.844,2.764
	C145.033,0.991,142.609,0,140.08,0H19.326c-5.34,0-9.66,4.321-9.66,9.66v222.189c0,5.34,4.321,9.66,9.66,9.66h164.226
	C188.892,241.509,193.212,237.189,193.212,231.849z"/>
<polygon style="fill:#EA86A5;" points="173.892,222.189 28.986,222.189 28.986,19.321 136.137,19.321 173.892,56.34 "/>
<path style="fill:#314E55;" d="M233.788,273.255c-1.811-1.773-4.236-2.764-6.764-2.764H106.269c-5.34,0-9.66,4.321-9.66,9.66V502.34
	c0,5.34,4.321,9.66,9.66,9.66h164.226c5.34,0,9.66-4.321,9.66-9.66V322.774c0-2.594-1.047-5.085-2.896-6.896L233.788,273.255z"/>
<polygon style="fill:#D1A342;" points="260.835,492.679 115.929,492.679 115.929,289.811 223.08,289.811 260.835,326.83 "/>
<path style="fill:#314E55;" d="M241.514,241.509h164.226c5.34,0,9.66-4.321,9.66-9.66V52.283c0-2.594-1.047-5.085-2.896-6.896
	L369.033,2.764C367.222,0.991,364.797,0,362.269,0H241.514c-5.34,0-9.66,4.321-9.66,9.66v222.189
	C231.854,237.189,236.175,241.509,241.514,241.509z"/>
<polygon style="fill:#D1A342;" points="251.175,19.321 358.326,19.321 396.08,56.34 396.08,222.189 251.175,222.189 "/>
<path style="fill:#314E55;" d="M499.439,315.877l-43.472-42.623c-1.811-1.774-4.236-2.764-6.764-2.764H328.448
	c-5.34,0-9.66,4.321-9.66,9.66V502.34c0,5.34,4.321,9.66,9.66,9.66h164.226c5.34,0,9.66-4.321,9.66-9.66V322.774
	C502.335,320.179,501.288,317.689,499.439,315.877z"/>
<polygon style="fill:#EA86A5;" points="483.014,492.679 338.109,492.679 338.109,289.811 445.26,289.811 483.014,326.83 "/>
<g>
</g>
<g>
</g>
<g>
</g>
<g>
</g>
<g>
</g>
<g>
</g>
<g>
</g>
<g>
</g>
<g>
</g>
<g>
</g>
<g>
</g>
<g>
</g>
<g>
</g>
<g>
</g>
<g>
</g>
</svg>
