<?xml version="1.0" encoding="iso-8859-1"?>
<!-- Generator: Adobe Illustrator 19.0.0, SVG Export Plug-In . SVG Version: 6.00 Build 0)  -->
<svg version="1.1" id="Layer_1" xmlns="http://www.w3.org/2000/svg" xmlns:xlink="http://www.w3.org/1999/xlink" x="0px" y="0px"
	 viewBox="0 0 512 512" style="enable-background:new 0 0 512 512;" xml:space="preserve">
<path style="fill:#314E55;" d="M511.867,234.008c-0.061-0.969-0.25-1.901-0.57-2.818c-0.119-0.341-0.205-0.677-0.357-1.003
	c-0.514-1.104-1.162-2.151-2.053-3.046c-0.006-0.006-0.01-0.014-0.01-0.014L448,166.25v-59.583c0-0.232-0.118-0.44-0.133-0.672
	c-0.06-0.941-0.242-1.846-0.546-2.741c-0.117-0.342-0.206-0.676-0.357-1.005c-0.519-1.133-1.173-2.21-2.088-3.124l-96-96
	c-0.919-0.919-1.998-1.575-3.135-2.095c-0.318-0.146-0.639-0.233-0.97-0.345c-0.912-0.315-1.839-0.5-2.802-0.559
	C341.75,0.112,341.553,0,341.333,0H74.667C68.776,0,64,4.776,64,10.667V166.25L3.128,227.122c0,0-0.009,0.013-0.016,0.019
	c-0.891,0.894-1.539,1.941-2.053,3.046c-0.152,0.326-0.238,0.661-0.357,1.003c-0.32,0.917-0.509,1.849-0.57,2.818
	C0.118,234.238,0,234.432,0,234.667v202.667C0,443.224,4.776,448,10.667,448H64v53.333C64,507.224,68.776,512,74.667,512h362.667
	c5.891,0,10.667-4.776,10.667-10.667V448h53.333c5.891,0,10.667-4.776,10.667-10.667V234.667
	C512,234.432,511.882,234.238,511.867,234.008z"/>
<polygon style="fill:#EAEAEA;" points="475.583,224 448,224 448,196.417 "/>
<polygon style="fill:#D8D8D8;" points="411.583,96 352,96 352,36.417 "/>
<g>
	<path style="fill:#EAEAEA;" d="M85.333,21.333h245.333v85.333c0,5.891,4.776,10.667,10.667,10.667h85.333v53.333V224H85.333
		v-53.333V21.333z"/>
	<polygon style="fill:#EAEAEA;" points="64,196.417 64,224 36.417,224 	"/>
	<rect x="85.333" y="448" style="fill:#EAEAEA;" width="341.333" height="42.667"/>
</g>
<polygon style="fill:#73C9C9;" points="490.667,426.667 21.333,426.667 21.333,245.333 74.667,245.333 437.333,245.333 
	490.667,245.333 "/>
<g>
	<path style="fill:#314E55;" d="M301.152,284.746c-2.962-3.263-6.589-5.802-10.88-7.616c-4.291-1.813-9.218-2.72-14.779-2.72
		c-10.034,0-18.376,2.966-25.024,8.885c-6.649,5.921-10.76,14.753-12.331,26.475l20.491,1.995c0.846-5.921,2.659-10.453,5.44-13.6
		c2.781-3.147,6.286-4.715,10.517-4.715c4.715,0,8.221,1.75,10.518,5.259c2.296,3.509,3.445,7.797,3.445,12.875
		c0,4.351-1.088,8.736-3.264,13.141c-2.176,4.417-5.077,9.046-8.704,13.878l-37.173,46.965v19.766h69.27v-19.04h-44.245
		l26.475-33.909c2.538-3.382,4.986-6.677,7.344-9.888c2.357-3.201,4.443-6.463,6.256-9.792c1.814-3.318,3.234-6.763,4.262-10.336
		c1.027-3.564,1.541-7.404,1.541-11.51c0-5.194-0.786-10.037-2.357-14.506C306.381,291.883,304.114,288.01,301.152,284.746z"/>
	<polygon style="fill:#314E55;" points="394.448,312.853 372.326,312.853 359.632,342.954 346.757,312.853 324.453,312.853 
		346.214,356.918 322.277,405.333 344.763,405.333 359.45,371.606 373.776,405.333 396.443,405.333 372.869,356.918 	"/>
	<path style="fill:#314E55;" d="M174.491,273.685c-8.221,0-15.624,1.717-22.214,5.163c-6.589,3.456-12.21,8.224-16.864,14.326
		c-4.654,6.112-8.251,13.27-10.789,21.494c-2.539,8.224-3.808,17.109-3.808,26.656c0,9.792,1.178,18.794,3.536,27.018
		c2.357,8.224,5.833,15.318,10.426,21.302c4.594,5.994,10.215,10.645,16.864,13.962c6.649,3.328,14.326,4.992,23.029,4.992
		c8.705,0,16.381-1.387,23.029-4.171c6.649-2.784,12.693-7.008,18.133-12.694l-7.072-10.517c-4.11,4.469-8.977,8.064-14.598,10.784
		c-5.621,2.73-11.696,4.086-18.224,4.086c-6.649,0-12.542-1.355-17.68-4.086c-5.139-2.72-9.49-6.517-13.056-11.425
		c-3.566-4.896-6.286-10.687-8.16-17.407c-1.874-6.71-2.811-14.048-2.811-22.026c0-7.499,0.936-14.593,2.811-21.313
		c1.874-6.71,4.563-12.598,8.069-17.674c3.506-5.078,7.737-9.099,12.693-12.064c4.957-2.956,10.518-4.438,16.683-4.438
		c5.923,0,11.213,1.087,15.867,3.264c4.654,2.176,8.613,5.29,11.878,9.333c3.264,4.052,5.742,8.949,7.434,14.687
		c1.693,5.749,2.539,12.181,2.539,19.318c0,8.949-1.299,16.138-3.899,21.578c-2.6,5.44-5.773,8.16-9.519,8.16
		c-2.056,0-3.445-0.725-4.171-2.176c-0.725-1.45-1.088-3.264-1.088-5.44c0-1.697,0.182-4.234,0.544-7.616s0.906-7.008,1.632-10.88
		l5.258-27.382h-13.056l-1.45,7.254h-0.544c-0.483-3.147-1.843-5.888-4.08-8.257c-2.237-2.357-5.349-3.531-9.339-3.531
		c-4.232,0-7.978,1.27-11.243,3.809c-3.264,2.539-5.984,5.835-8.16,9.878c-2.176,4.053-3.837,8.65-4.986,13.781
		c-1.149,5.141-1.723,10.314-1.723,15.509c0,3.99,0.423,7.766,1.27,11.328c0.846,3.573,2.085,6.687,3.717,9.344
		c1.632,2.656,3.657,4.779,6.075,6.346c2.418,1.569,5.198,2.358,8.341,2.358c2.297,0,4.322-0.394,6.075-1.185
		c1.753-0.779,3.325-1.781,4.715-2.986c1.39-1.206,2.568-2.539,3.536-3.99c0.967-1.451,1.753-2.901,2.357-4.352h0.363
		c0.121,4.234,1.36,7.37,3.717,9.428c2.357,2.058,5.47,3.083,9.339,3.083c4.352,0,8.281-1.12,11.786-3.361
		c3.506-2.229,6.499-5.344,8.977-9.333s4.382-8.703,5.711-14.143c1.33-5.44,1.995-11.307,1.995-17.59
		c0-18.613-4.382-32.97-13.146-43.072C202.446,278.73,190.206,273.685,174.491,273.685z"/>
</g>
<path style="fill:#73C9C9;" d="M182.016,341.685c-0.544,3.382-1.33,6.56-2.357,9.516c-1.027,2.965-2.357,5.504-3.99,7.616
	c-1.632,2.122-3.536,3.178-5.711,3.178c-3.264,0-5.592-1.387-6.982-4.171c-1.39-2.784-2.085-6.283-2.085-10.517
	c0-3.382,0.302-6.827,0.907-10.337c0.605-3.509,1.481-6.645,2.629-9.428c1.149-2.784,2.569-5.046,4.262-6.806
	c1.693-1.749,3.626-2.624,5.803-2.624c3.264,0,5.47,1.45,6.618,4.351c1.149,2.902,1.723,6.348,1.723,10.336
	C182.832,335.339,182.56,338.303,182.016,341.685z"/>
<g>
</g>
<g>
</g>
<g>
</g>
<g>
</g>
<g>
</g>
<g>
</g>
<g>
</g>
<g>
</g>
<g>
</g>
<g>
</g>
<g>
</g>
<g>
</g>
<g>
</g>
<g>
</g>
<g>
</g>
</svg>
