<?xml version="1.0" encoding="iso-8859-1"?>
<!-- Generator: Adobe Illustrator 19.0.0, SVG Export Plug-In . SVG Version: 6.00 Build 0)  -->
<svg version="1.1" id="Layer_1" xmlns="http://www.w3.org/2000/svg" xmlns:xlink="http://www.w3.org/1999/xlink" x="0px" y="0px"
	 viewBox="0 0 512 512" style="enable-background:new 0 0 512 512;" xml:space="preserve">
<path style="fill:#314E55;" d="M441.547,97.33L346.934,2.825C345.123,1.014,342.66,0,340.104,0H77.283c-5.34,0-9.66,4.325-9.66,9.66
	V502.34c0,5.335,4.321,9.66,9.66,9.66h357.434c5.34,0,9.66-4.325,9.66-9.66V104.165C444.377,101.599,443.358,99.142,441.547,97.33z"
	/>
<g>
	<polygon style="fill:#E9E7D1;" points="411.396,96.604 347.774,96.604 347.774,32.981 	"/>
	<path style="fill:#E9E7D1;" d="M86.943,492.679V19.321h241.509v86.943c0,5.335,4.321,9.66,9.66,9.66h86.943v376.755H86.943z"/>
</g>
<path style="fill:#314E55;" d="M376.755,164.226H135.245c-5.34,0-9.66,4.325-9.66,9.66v270.491c0,5.335,4.321,9.66,9.66,9.66
	h241.509c5.34,0,9.66-4.325,9.66-9.66V173.887C386.415,168.552,382.094,164.226,376.755,164.226z"/>
<rect x="144.906" y="183.547" style="fill:#E65F58;" width="222.189" height="251.17"/>
<path style="fill:#314E55;" d="M256,396.075c45.274,0,82.113-36.835,82.113-82.113s-36.84-82.113-82.113-82.113
	s-82.113,36.835-82.113,82.113S210.726,396.075,256,396.075z"/>
<g>
	<path style="fill:#E65F58;" d="M318.792,313.962c0,34.623-28.17,62.792-62.792,62.792c-12.762,0-24.633-3.85-34.554-10.417
		l83.402-91.742C313.552,285.375,318.792,299.062,318.792,313.962z"/>
	<path style="fill:#E65F58;" d="M256,251.17c12.762,0,24.633,3.85,34.554,10.417l-83.402,91.742
		c-8.704-10.78-13.945-24.466-13.945-39.367C193.208,279.34,221.377,251.17,256,251.17z"/>
</g>
<g>
</g>
<g>
</g>
<g>
</g>
<g>
</g>
<g>
</g>
<g>
</g>
<g>
</g>
<g>
</g>
<g>
</g>
<g>
</g>
<g>
</g>
<g>
</g>
<g>
</g>
<g>
</g>
<g>
</g>
</svg>
