<?xml version="1.0" encoding="iso-8859-1"?>
<!-- Generator: Adobe Illustrator 19.0.0, SVG Export Plug-In . SVG Version: 6.00 Build 0)  -->
<svg version="1.1" id="Layer_1" xmlns="http://www.w3.org/2000/svg" xmlns:xlink="http://www.w3.org/1999/xlink" x="0px" y="0px"
	 viewBox="0 0 512 512" style="enable-background:new 0 0 512 512;" xml:space="preserve">
<path style="fill:#314E55;" d="M441.547,97.321l-94.613-94.5C345.123,1.019,342.66,0,340.104,0H77.283c-5.34,0-9.66,4.321-9.66,9.66
	V502.34c0,5.34,4.321,9.66,9.66,9.66h357.434c5.34,0,9.66-4.321,9.66-9.66V104.16C444.377,101.594,443.358,99.142,441.547,97.321z"
	/>
<g>
	<polygon style="fill:#73C9C9;" points="411.396,96.604 347.774,96.604 347.774,32.981 	"/>
	<path style="fill:#73C9C9;" d="M86.943,492.679V19.321h241.509v86.943c0,5.34,4.321,9.66,9.66,9.66h86.943v376.755H86.943z"/>
</g>
<path style="fill:#314E55;" d="M386.849,334.849c-4.472-2.934-10.453-1.642-13.358,2.83l-66.161,101.67l-45.283-36.321
	c-4.16-3.33-10.255-2.66-13.585,1.491c-3.34,4.17-2.67,10.245,1.491,13.585l53.613,42.991c1.726,1.387,3.868,2.123,6.047,2.123
	c0.509,0,1.019-0.038,1.528-0.122c2.698-0.434,5.085-1.981,6.566-4.274l71.972-110.613
	C392.594,343.736,391.321,337.755,386.849,334.849z"/>
<g>
</g>
<g>
</g>
<g>
</g>
<g>
</g>
<g>
</g>
<g>
</g>
<g>
</g>
<g>
</g>
<g>
</g>
<g>
</g>
<g>
</g>
<g>
</g>
<g>
</g>
<g>
</g>
<g>
</g>
</svg>
