<?xml version="1.0" encoding="iso-8859-1"?>
<!-- Generator: Adobe Illustrator 19.0.0, SVG Export Plug-In . SVG Version: 6.00 Build 0)  -->
<svg version="1.1" id="Layer_1" xmlns="http://www.w3.org/2000/svg" xmlns:xlink="http://www.w3.org/1999/xlink" x="0px" y="0px"
	 viewBox="0 0 512 512" style="enable-background:new 0 0 512 512;" xml:space="preserve">
<path style="fill:#314E55;" d="M511.87,234.022c-0.06-0.975-0.249-1.913-0.572-2.836c-0.119-0.34-0.205-0.676-0.355-0.999
	c-0.51-1.094-1.154-2.128-2.034-3.016c-0.016-0.017-0.025-0.038-0.041-0.055L448,166.25v-59.583c0-0.227-0.117-0.43-0.131-0.656
	c-0.059-0.95-0.242-1.866-0.551-2.767c-0.115-0.337-0.204-0.665-0.352-0.99c-0.519-1.134-1.175-2.212-2.091-3.129l-96-96
	c-0.914-0.914-1.988-1.568-3.119-2.086c-0.332-0.152-0.668-0.242-1.014-0.361c-0.888-0.302-1.789-0.482-2.725-0.543
	C341.781,0.12,341.57,0,341.333,0H74.667C68.771,0,64,4.776,64,10.667V166.25L3.132,227.117c-0.016,0.017-0.025,0.038-0.041,0.055
	c-0.879,0.888-1.523,1.922-2.033,3.016c-0.151,0.323-0.237,0.659-0.355,0.997c-0.322,0.922-0.512,1.861-0.572,2.836
	C0.116,234.246,0,234.438,0,234.667v202.667C0,443.224,4.771,448,10.667,448H64v53.333C64,507.224,68.771,512,74.667,512h362.667
	c5.896,0,10.667-4.776,10.667-10.667V448h53.333c5.896,0,10.667-4.776,10.667-10.667V234.667
	C512,234.438,511.884,234.247,511.87,234.022z"/>
<polygon style="fill:#EAEAEA;" points="475.583,224 448,224 448,196.417 "/>
<polygon style="fill:#D8D8D8;" points="411.583,96 352,96 352,36.417 "/>
<g>
	<path style="fill:#EAEAEA;" d="M85.333,21.333h245.333v85.333c0,5.891,4.771,10.667,10.667,10.667h85.333v53.333V224H85.333
		v-53.333V21.333z"/>
	<polygon style="fill:#EAEAEA;" points="64,196.417 64,224 36.417,224 	"/>
	<rect x="85.333" y="448" style="fill:#EAEAEA;" width="341.333" height="42.667"/>
</g>
<polygon style="fill:#E4AD40;" points="490.667,426.667 21.333,426.667 21.333,245.333 74.667,245.333 437.333,245.333 
	490.667,245.333 "/>
<g>
	<polygon style="fill:#314E55;" points="137.221,405.333 159.163,405.333 159.163,350.208 191.984,350.208 191.984,331.531 
		158.981,331.531 158.981,296.534 194.704,296.534 194.704,276.949 137.221,276.949 	"/>
	<polygon style="fill:#314E55;" points="234.779,276.949 212.837,276.949 212.837,405.333 270.139,405.333 270.139,385.206 
		234.779,385.206 	"/>
	<polygon style="fill:#314E55;" points="303.504,276.949 271.589,405.333 293.35,405.333 299.878,378.133 333.606,378.133 
		339.952,405.333 362.618,405.333 331.248,276.949 	"/>
</g>
<polygon style="fill:#E4AD40;" points="302.598,361.089 316.56,297.44 317.285,297.44 330.885,361.089 "/>
<g>
</g>
<g>
</g>
<g>
</g>
<g>
</g>
<g>
</g>
<g>
</g>
<g>
</g>
<g>
</g>
<g>
</g>
<g>
</g>
<g>
</g>
<g>
</g>
<g>
</g>
<g>
</g>
<g>
</g>
</svg>
