<?xml version="1.0" encoding="iso-8859-1"?>
<!-- Generator: Adobe Illustrator 19.0.0, SVG Export Plug-In . SVG Version: 6.00 Build 0)  -->
<svg version="1.1" id="Layer_1" xmlns="http://www.w3.org/2000/svg" xmlns:xlink="http://www.w3.org/1999/xlink" x="0px" y="0px"
	 viewBox="0 0 512 512" style="enable-background:new 0 0 512 512;" xml:space="preserve">
<path style="fill:#314E55;" d="M511.87,234.022c-0.06-0.975-0.249-1.913-0.572-2.836c-0.119-0.34-0.205-0.676-0.355-0.999
	c-0.51-1.094-1.154-2.128-2.034-3.016c-0.016-0.017-0.025-0.038-0.041-0.055L448,166.25v-59.583c0-0.227-0.117-0.43-0.131-0.656
	c-0.059-0.95-0.242-1.866-0.551-2.767c-0.115-0.337-0.204-0.665-0.352-0.99c-0.519-1.134-1.175-2.212-2.091-3.129l-96-96
	c-0.912-0.91-1.982-1.562-3.11-2.079c-0.341-0.158-0.689-0.251-1.045-0.371c-0.874-0.295-1.758-0.471-2.679-0.534
	C341.798,0.124,341.579,0,341.333,0H74.667C68.771,0,64,4.776,64,10.667V166.25L3.132,227.117c-0.016,0.017-0.025,0.038-0.041,0.055
	c-0.879,0.888-1.523,1.922-2.033,3.016c-0.151,0.323-0.237,0.659-0.355,0.997c-0.322,0.922-0.512,1.861-0.572,2.836
	C0.116,234.246,0,234.438,0,234.667v202.667C0,443.224,4.771,448,10.667,448H64v53.333C64,507.224,68.771,512,74.667,512h362.667
	c5.896,0,10.667-4.776,10.667-10.667V448h53.333c5.896,0,10.667-4.776,10.667-10.667V234.667
	C512,234.438,511.884,234.247,511.87,234.022z"/>
<polygon style="fill:#EAEAEA;" points="475.583,224 448,224 448,196.417 "/>
<polygon style="fill:#D8D8D8;" points="411.583,96 352,96 352,36.417 "/>
<g>
	<path style="fill:#EAEAEA;" d="M85.333,21.333h245.333v85.333c0,5.891,4.771,10.667,10.667,10.667h85.333v53.333V224H85.333
		v-53.333V21.333z"/>
	<polygon style="fill:#EAEAEA;" points="64,196.417 64,224 36.417,224 	"/>
	<rect x="85.333" y="448" style="fill:#EAEAEA;" width="341.333" height="42.667"/>
</g>
<polygon style="fill:#5ECB66;" points="490.667,426.667 21.333,426.667 21.333,245.333 74.667,245.333 437.333,245.333 
	490.667,245.333 "/>
<polygon style="fill:#314E55;" points="271.504,276.949 239.589,405.333 261.35,405.333 267.878,378.133 301.606,378.133 
	307.952,405.333 330.618,405.333 299.248,276.949 "/>
<polygon style="fill:#5ECB66;" points="270.598,361.089 284.56,297.44 285.285,297.44 298.885,361.089 "/>
<g>
	<polygon style="fill:#314E55;" points="105.221,405.333 127.163,405.333 127.163,350.208 159.984,350.208 159.984,331.531 
		126.981,331.531 126.981,296.534 162.704,296.534 162.704,276.949 105.221,276.949 	"/>
	<polygon style="fill:#314E55;" points="202.779,276.949 180.837,276.949 180.837,405.333 238.139,405.333 238.139,385.206 
		202.779,385.206 	"/>
	<path style="fill:#314E55;" d="M366.341,307.776c2.177-4.234,4.897-7.585,8.16-10.069c3.264-2.475,7.072-3.712,11.424-3.712
		c7.858,0,14.265,3.562,19.221,10.698l12.512-15.232c-3.506-5.077-8.04-8.97-13.6-11.701c-5.561-2.72-12.029-4.075-19.402-4.075
		c-7.133,0-13.63,1.664-19.494,4.982c-5.863,3.328-10.85,7.979-14.96,13.962c-4.109,5.995-7.283,13.12-9.519,21.397
		c-2.237,8.289-3.355,17.323-3.355,27.116c0,9.792,1.118,18.794,3.355,27.018c2.236,8.224,5.379,15.318,9.429,21.301
		c4.05,5.995,9.006,10.677,14.869,14.059c5.864,3.382,12.421,5.078,19.675,5.078c7.978,0,14.597-1.568,19.855-4.715
		c5.259-3.147,9.581-7.254,12.966-12.331l-12.512-14.687c-2.055,3.146-4.624,5.802-7.707,7.978
		c-3.083,2.176-6.739,3.264-10.971,3.264c-4.472,0-8.371-1.237-11.696-3.723c-3.325-2.475-6.074-5.824-8.251-10.059
		c-2.176-4.234-3.808-9.216-4.896-14.966c-1.088-5.738-1.632-11.807-1.632-18.217c0-6.529,0.544-12.661,1.632-18.411
		C362.533,316.992,364.165,312.01,366.341,307.776z"/>
</g>
<g>
</g>
<g>
</g>
<g>
</g>
<g>
</g>
<g>
</g>
<g>
</g>
<g>
</g>
<g>
</g>
<g>
</g>
<g>
</g>
<g>
</g>
<g>
</g>
<g>
</g>
<g>
</g>
<g>
</g>
</svg>
