<?xml version="1.0" encoding="iso-8859-1"?>
<!-- Generator: Adobe Illustrator 19.0.0, SVG Export Plug-In . SVG Version: 6.00 Build 0)  -->
<svg version="1.1" id="Layer_1" xmlns="http://www.w3.org/2000/svg" xmlns:xlink="http://www.w3.org/1999/xlink" x="0px" y="0px"
	 viewBox="0 0 512 512" style="enable-background:new 0 0 512 512;" xml:space="preserve">
<path style="fill:#314E55;" d="M502.519,99.556h-279.37l-35.111-52.667c-1.759-2.639-4.722-4.222-7.889-4.222H9.481
	C4.241,42.667,0,46.907,0,52.148v56.889v37.926v274.991c0,26.13,21.241,47.38,47.352,47.38h417.296
	c26.111,0,47.352-21.25,47.352-47.38V146.963v-37.926C512,103.796,507.759,99.556,502.519,99.556z"/>
<polygon style="fill:#EAEAEA;" points="493.037,137.481 18.963,137.481 18.963,118.519 218.074,118.519 493.037,118.519 "/>
<polygon style="fill:#E65F58;" points="18.963,61.63 175.074,61.63 200.361,99.556 18.963,99.556 "/>
<path style="fill:#E9E7D1;" d="M493.037,421.954c0,15.667-12.731,28.417-28.389,28.417H47.352c-15.657,0-28.389-12.75-28.389-28.417
	V156.444h474.074V421.954z"/>
<path style="fill:#314E55;" d="M256,421.926c62.741,0,113.778-51.037,113.778-113.778S318.741,194.37,256,194.37
	s-113.778,51.037-113.778,113.778S193.259,421.926,256,421.926z"/>
<path style="fill:#E65F58;" d="M256,213.333c52.278,0,94.815,42.537,94.815,94.815S308.278,402.963,256,402.963
	s-94.815-42.537-94.815-94.815S203.722,213.333,256,213.333z"/>
<rect x="189.63" y="298.667" style="fill:#314E55;" width="132.741" height="18.963"/>
<g>
</g>
<g>
</g>
<g>
</g>
<g>
</g>
<g>
</g>
<g>
</g>
<g>
</g>
<g>
</g>
<g>
</g>
<g>
</g>
<g>
</g>
<g>
</g>
<g>
</g>
<g>
</g>
<g>
</g>
</svg>
