<?xml version="1.0" encoding="iso-8859-1"?>
<!-- Generator: Adobe Illustrator 19.0.0, SVG Export Plug-In . SVG Version: 6.00 Build 0)  -->
<svg version="1.1" id="Layer_1" xmlns="http://www.w3.org/2000/svg" xmlns:xlink="http://www.w3.org/1999/xlink" x="0px" y="0px"
	 viewBox="0 0 512 512" style="enable-background:new 0 0 512 512;" xml:space="preserve">
<path style="fill:#314E55;" d="M502.519,99.556h-279.37l-35.111-52.667c-1.759-2.639-4.722-4.222-7.889-4.222H9.481
	C4.241,42.667,0,46.907,0,52.148v56.889v37.926v274.991c0,26.13,21.241,47.38,47.352,47.38h417.296
	c26.111,0,47.352-21.25,47.352-47.38V146.963v-37.926C512,103.796,507.759,99.556,502.519,99.556z"/>
<polygon style="fill:#E65F58;" points="493.037,137.481 18.963,137.481 18.963,118.519 218.074,118.519 493.037,118.519 "/>
<polygon style="fill:#D8D8D8;" points="18.963,61.63 175.074,61.63 200.361,99.556 18.963,99.556 "/>
<path style="fill:#E9E7D1;" d="M493.037,421.954c0,15.667-12.731,28.417-28.389,28.417H47.352c-15.657,0-28.389-12.75-28.389-28.417
	V156.444h474.074V421.954z"/>
<path style="fill:#314E55;" d="M142.222,421.926h246.519c5.241,0,9.481-4.241,9.481-9.481V241.778c0-5.241-4.241-9.481-9.481-9.481
	H265.481v-28.444c0-5.241-4.241-9.481-9.481-9.481h-66.37c-5.241,0-9.481,4.241-9.481,9.481v28.444h-37.926
	c-5.241,0-9.481,4.241-9.481,9.481v170.667C132.741,417.685,136.982,421.926,142.222,421.926z"/>
<g>
	<rect x="199.111" y="213.333" style="fill:#E4AD40;" width="47.407" height="18.963"/>
	<polygon style="fill:#E4AD40;" points="151.704,251.259 189.63,251.259 256,251.259 379.259,251.259 379.259,402.963 
		151.704,402.963 	"/>
</g>
<path style="fill:#314E55;" d="M265.481,270.222c-31.37,0-56.889,25.518-56.889,56.889S234.111,384,265.481,384
	s56.889-25.518,56.889-56.889S296.852,270.222,265.481,270.222z"/>
<path style="fill:#E4AD40;" d="M265.481,365.037c-20.917,0-37.926-17.009-37.926-37.926s17.009-37.926,37.926-37.926
	s37.926,17.009,37.926,37.926S286.398,365.037,265.481,365.037z"/>
<path style="fill:#314E55;" d="M265.481,298.667c-15.685,0-28.444,12.759-28.444,28.444s12.759,28.444,28.444,28.444
	c15.685,0,28.444-12.759,28.444-28.444S281.167,298.667,265.481,298.667z"/>
<circle style="fill:#E4AD40;" cx="265.481" cy="327.111" r="9.481"/>
<g>
</g>
<g>
</g>
<g>
</g>
<g>
</g>
<g>
</g>
<g>
</g>
<g>
</g>
<g>
</g>
<g>
</g>
<g>
</g>
<g>
</g>
<g>
</g>
<g>
</g>
<g>
</g>
<g>
</g>
</svg>
