<?xml version="1.0" encoding="iso-8859-1"?>
<!-- Generator: Adobe Illustrator 19.0.0, SVG Export Plug-In . SVG Version: 6.00 Build 0)  -->
<svg version="1.1" id="Layer_1" xmlns="http://www.w3.org/2000/svg" xmlns:xlink="http://www.w3.org/1999/xlink" x="0px" y="0px"
	 viewBox="0 0 512 512" style="enable-background:new 0 0 512 512;" xml:space="preserve">
<path style="fill:#314E55;" d="M502.519,99.556h-279.37l-35.111-52.667c-1.759-2.639-4.718-4.222-7.889-4.222H9.481
	C4.245,42.667,0,46.907,0,52.148v56.889v37.926v274.991c0,26.13,21.241,47.38,47.352,47.38h417.296
	c26.111,0,47.352-21.25,47.352-47.38V146.963v-37.926C512,103.796,507.755,99.556,502.519,99.556z"/>
<polygon style="fill:#E9E7D1;" points="493.037,137.481 18.963,137.481 18.963,118.519 218.074,118.519 493.037,118.519 "/>
<polygon style="fill:#5ECB66;" points="18.963,61.63 175.074,61.63 200.357,99.556 18.963,99.556 "/>
<path style="fill:#E4AD40;" d="M493.037,421.954c0,15.667-12.736,28.417-28.389,28.417H47.352c-15.653,0-28.389-12.75-28.389-28.417
	V156.444h474.074V421.954z"/>
<path style="fill:#314E55;" d="M151.704,346.074c10.652,0,20.257-4.446,27.153-11.541l96.444,46.126
	c-0.1,1.119-0.338,2.197-0.338,3.341c0,20.917,17.014,37.926,37.926,37.926s37.926-17.009,37.926-37.926
	c0-13.976-7.681-26.071-18.96-32.649l8.554-72.706c16.789-3.901,29.369-18.904,29.369-36.867c0-20.917-17.014-37.926-37.926-37.926
	c-20.281,0-36.755,16.037-37.74,36.081l-113.69,43.727c-6.962-8.152-17.183-13.438-28.719-13.438
	c-20.912,0-37.926,17.009-37.926,37.926C113.778,329.065,130.792,346.074,151.704,346.074z M298.102,258.72
	c4.704,9.327,13.082,16.376,23.282,19.33l-8.009,68.073c-0.166-0.002-0.319-0.049-0.486-0.049c-12.992,0-24.463,6.577-31.301,16.565
	l-93.409-44.674c0.851-3.151,1.451-6.4,1.451-9.817c0-2.541-0.271-5.017-0.75-7.419L298.102,258.72z"/>
<g>
	<path style="fill:#5ECB66;" d="M312.889,402.963c-10.458,0-18.963-8.509-18.963-18.963c0-10.454,8.505-18.963,18.963-18.963
		c10.458,0,18.963,8.509,18.963,18.963C331.852,394.454,323.347,402.963,312.889,402.963z"/>
	<path style="fill:#5ECB66;" d="M331.852,222.815c10.458,0,18.963,8.509,18.963,18.963s-8.505,18.963-18.963,18.963
		c-10.458,0-18.963-8.509-18.963-18.963S321.394,222.815,331.852,222.815z"/>
	<path style="fill:#5ECB66;" d="M151.704,289.185c10.458,0,18.963,8.509,18.963,18.963c0,2.487-0.511,4.851-1.386,7.03
		c-0.987,0.836-1.834,1.859-2.429,3.099c-0.258,0.539-0.27,1.109-0.42,1.666c-3.478,4.333-8.752,7.167-14.729,7.167
		c-10.458,0-18.963-8.509-18.963-18.963C132.741,297.694,141.245,289.185,151.704,289.185z"/>
</g>
<g>
</g>
<g>
</g>
<g>
</g>
<g>
</g>
<g>
</g>
<g>
</g>
<g>
</g>
<g>
</g>
<g>
</g>
<g>
</g>
<g>
</g>
<g>
</g>
<g>
</g>
<g>
</g>
<g>
</g>
</svg>
