<?xml version="1.0" encoding="iso-8859-1"?>
<!-- Generator: Adobe Illustrator 19.0.0, SVG Export Plug-In . SVG Version: 6.00 Build 0)  -->
<svg version="1.1" id="Layer_1" xmlns="http://www.w3.org/2000/svg" xmlns:xlink="http://www.w3.org/1999/xlink" x="0px" y="0px"
	 viewBox="0 0 512 512" style="enable-background:new 0 0 512 512;" xml:space="preserve">
<path style="fill:#314E55;" d="M502.519,99.556h-279.37l-35.111-52.667c-1.759-2.639-4.722-4.222-7.889-4.222H9.481
	C4.241,42.667,0,46.907,0,52.148v56.889v37.926v274.991c0,26.13,21.241,47.38,47.352,47.38h417.296
	c26.111,0,47.352-21.25,47.352-47.38V146.963v-37.926C512,103.796,507.759,99.556,502.519,99.556z"/>
<polygon style="fill:#E9E7D1;" points="493.037,137.481 18.963,137.481 18.963,118.519 218.074,118.519 493.037,118.519 "/>
<polygon style="fill:#D8D8D8;" points="18.963,61.63 175.074,61.63 200.361,99.556 18.963,99.556 "/>
<path style="fill:#5ECB66;" d="M493.037,421.954c0,15.667-12.731,28.417-28.389,28.417H47.352c-15.657,0-28.389-12.75-28.389-28.417
	V156.444h474.074V421.954z"/>
<path style="fill:#314E55;" d="M75.62,330.444c4.472,2.741,10.305,1.352,13.046-3.102l31.639-51.407l48.398,48.398
	c2.204,2.194,5.343,3.204,8.38,2.63c3.056-0.546,5.648-2.565,6.944-5.38l39.963-87.204l32.194,160.963
	c0.824,4.111,4.25,7.195,8.426,7.583c0.296,0.028,0.583,0.037,0.87,0.037c3.852,0,7.352-2.333,8.805-5.963l39.065-97.657
	l9.833,22.139c1.269,2.852,3.861,4.898,6.935,5.472c3.065,0.537,6.222-0.407,8.435-2.62l57.676-57.676l26.981,46.268
	c2.648,4.518,8.463,6.037,12.972,3.417c4.518-2.639,6.046-8.444,3.417-12.972l-33.185-56.889c-1.481-2.537-4.065-4.25-6.981-4.63
	c-2.815-0.315-5.833,0.63-7.917,2.704l-56.611,56.611l-13.352-30.056c-1.546-3.482-5.278-5.417-8.843-5.63
	c-3.815,0.074-7.213,2.417-8.63,5.963l-35.556,88.898l-31.676-158.352c-0.805-4.028-4.111-7.083-8.194-7.556
	c-4.176-0.5-8.018,1.732-9.722,5.463l-46.463,101.389l-47.25-47.25c-2.046-2.046-5.009-3.056-7.806-2.713
	c-2.889,0.343-5.454,1.972-6.972,4.444l-37.926,61.63C69.778,321.861,71.167,327.704,75.62,330.444z"/>
<g>
</g>
<g>
</g>
<g>
</g>
<g>
</g>
<g>
</g>
<g>
</g>
<g>
</g>
<g>
</g>
<g>
</g>
<g>
</g>
<g>
</g>
<g>
</g>
<g>
</g>
<g>
</g>
<g>
</g>
</svg>
