<?xml version="1.0" encoding="iso-8859-1"?>
<!-- Generator: Adobe Illustrator 19.0.0, SVG Export Plug-In . SVG Version: 6.00 Build 0)  -->
<svg version="1.1" id="Layer_1" xmlns="http://www.w3.org/2000/svg" xmlns:xlink="http://www.w3.org/1999/xlink" x="0px" y="0px"
	 viewBox="0 0 512 512" style="enable-background:new 0 0 512 512;" xml:space="preserve">
<path style="fill:#314E55;" d="M502.519,99.556h-279.37l-35.111-52.667c-1.759-2.639-4.722-4.222-7.889-4.222H9.481
	C4.241,42.667,0,46.907,0,52.148v56.889v37.926v274.991c0,26.13,21.241,47.38,47.352,47.38h417.296
	c26.111,0,47.352-21.25,47.352-47.38V146.963v-37.926C512,103.796,507.759,99.556,502.519,99.556z"/>
<polygon style="fill:#F28544;" points="493.037,137.481 18.963,137.481 18.963,118.519 218.074,118.519 493.037,118.519 "/>
<g>
	<polygon style="fill:#D8D8D8;" points="18.963,61.63 175.074,61.63 200.361,99.556 18.963,99.556 	"/>
	<path style="fill:#D8D8D8;" d="M493.037,421.954c0,15.667-12.731,28.417-28.389,28.417H47.352
		c-15.657,0-28.389-12.75-28.389-28.417V156.444h474.074V421.954z"/>
</g>
<path style="fill:#314E55;" d="M189.583,431.407h132.833c15.657,0,28.398-12.731,28.398-28.389V231.954
	c0-2.463-0.954-4.824-2.676-6.592l-36.407-37.583c-1.778-1.852-4.241-2.889-6.806-2.889H189.62
	c-15.676,0-28.435,12.778-28.435,28.491v189.537C161.185,418.63,173.926,431.407,189.583,431.407z"/>
<path style="fill:#EAEAEA;" d="M180.148,213.38c0-5.343,4.157-9.528,9.472-9.528h111.287l30.944,31.945v167.222
	c0,5.194-4.232,9.426-9.435,9.426H189.583c-5.204,0-9.435-4.278-9.435-9.528V213.38z"/>
<g>
</g>
<g>
</g>
<g>
</g>
<g>
</g>
<g>
</g>
<g>
</g>
<g>
</g>
<g>
</g>
<g>
</g>
<g>
</g>
<g>
</g>
<g>
</g>
<g>
</g>
<g>
</g>
<g>
</g>
</svg>
