<?xml version="1.0" encoding="iso-8859-1"?>
<!-- Generator: Adobe Illustrator 19.0.0, SVG Export Plug-In . SVG Version: 6.00 Build 0)  -->
<svg version="1.1" id="Layer_1" xmlns="http://www.w3.org/2000/svg" xmlns:xlink="http://www.w3.org/1999/xlink" x="0px" y="0px"
	 viewBox="0 0 512 512" style="enable-background:new 0 0 512 512;" xml:space="preserve">
<path style="fill:#314E55;" d="M502.519,99.556h-279.37l-35.111-52.667c-1.759-2.639-4.718-4.222-7.889-4.222H9.481
	C4.245,42.667,0,46.907,0,52.148v56.889v37.926v274.991c0,26.13,21.241,47.38,47.352,47.38h417.296
	c26.111,0,47.352-21.25,47.352-47.38V146.963v-37.926C512,103.796,507.755,99.556,502.519,99.556z"/>
<polygon style="fill:#EAEAEA;" points="493.037,137.481 18.963,137.481 18.963,118.519 218.074,118.519 493.037,118.519 "/>
<polygon style="fill:#D8D8D8;" points="18.963,61.63 175.074,61.63 200.357,99.556 18.963,99.556 "/>
<path style="fill:#DBCF56;" d="M493.037,421.954c0,15.667-12.736,28.417-28.389,28.417H47.352c-15.653,0-28.389-12.75-28.389-28.417
	V156.444h474.074V421.954z"/>
<path style="fill:#314E55;" d="M291.963,355.083c-3.704,3.704-3.704,9.704,0,13.407c1.852,1.852,4.278,2.778,6.704,2.778
	c2.426,0,4.852-0.926,6.704-2.778l53.634-53.639c3.704-3.704,3.704-9.704,0-13.407l-53.634-53.639
	c-3.704-3.704-9.704-3.704-13.407,0c-3.703,3.704-3.704,9.704,0,13.407l37.45,37.454h-177.71v18.963h177.71L291.963,355.083z"/>
<g>
</g>
<g>
</g>
<g>
</g>
<g>
</g>
<g>
</g>
<g>
</g>
<g>
</g>
<g>
</g>
<g>
</g>
<g>
</g>
<g>
</g>
<g>
</g>
<g>
</g>
<g>
</g>
<g>
</g>
</svg>
