<?xml version="1.0" encoding="iso-8859-1"?>
<!-- Generator: Adobe Illustrator 19.0.0, SVG Export Plug-In . SVG Version: 6.00 Build 0)  -->
<svg version="1.1" id="Layer_1" xmlns="http://www.w3.org/2000/svg" xmlns:xlink="http://www.w3.org/1999/xlink" x="0px" y="0px"
	 viewBox="0 0 512 512" style="enable-background:new 0 0 512 512;" xml:space="preserve">
<g>
	<path style="fill:#314E55;" d="M9.481,398.907c-5.236,0-9.481,4.241-9.481,9.482v9.481c0,5.241,4.245,9.481,9.481,9.481
		s9.481-4.241,9.481-9.481v-9.481C18.963,403.148,14.718,398.907,9.481,398.907z"/>
	<path style="fill:#314E55;" d="M154.431,450.37h-9.481c-5.236,0-9.481,4.241-9.481,9.482c0,5.241,4.245,9.481,9.481,9.481h9.481
		c5.236,0,9.481-4.241,9.481-9.481C163.912,454.611,159.667,450.37,154.431,450.37z"/>
	<path style="fill:#314E55;" d="M211.319,450.37h-9.481c-5.236,0-9.481,4.241-9.481,9.482c0,5.241,4.245,9.481,9.481,9.481h9.481
		c5.236,0,9.481-4.241,9.481-9.481C220.801,454.611,216.556,450.37,211.319,450.37z"/>
	<path style="fill:#314E55;" d="M42.356,449.935c-2.343-0.417-4.607-1.13-6.731-2.102c-4.759-2.204-10.389-0.111-12.579,4.648
		c-2.185,4.759-0.102,10.389,4.653,12.574c3.588,1.657,7.398,2.843,11.324,3.546c0.565,0.102,1.125,0.148,1.676,0.148
		c4.509,0,8.505-3.222,9.324-7.815C50.944,455.778,47.514,450.852,42.356,449.935z"/>
	<path style="fill:#314E55;" d="M268.208,450.37h-9.481c-5.236,0-9.481,4.241-9.481,9.482c0,5.241,4.245,9.481,9.481,9.481h9.481
		c5.236,0,9.482-4.241,9.482-9.481C277.69,454.611,273.444,450.37,268.208,450.37z"/>
	<path style="fill:#314E55;" d="M97.542,450.37H88.06c-5.236,0-9.481,4.241-9.481,9.482c0,5.241,4.245,9.481,9.481,9.481h9.481
		c5.236,0,9.481-4.241,9.481-9.481C107.023,454.611,102.778,450.37,97.542,450.37z"/>
	<path style="fill:#314E55;" d="M9.481,342.019C4.245,342.019,0,346.259,0,351.5v9.482c0,5.241,4.245,9.481,9.481,9.481
		s9.481-4.241,9.481-9.481V351.5C18.963,346.259,14.718,342.019,9.481,342.019z"/>
	<path style="fill:#314E55;" d="M9.481,285.13c-5.236,0-9.481,4.241-9.481,9.481v9.481c0,5.241,4.245,9.481,9.481,9.481
		s9.481-4.241,9.481-9.481v-9.481C18.963,289.37,14.718,285.13,9.481,285.13z"/>
	<path style="fill:#314E55;" d="M9.481,171.352c-5.236,0-9.481,4.241-9.481,9.481v9.481c0,5.241,4.245,9.481,9.481,9.481
		s9.481-4.241,9.481-9.481v-9.481C18.963,175.593,14.718,171.352,9.481,171.352z"/>
	<path style="fill:#314E55;" d="M9.481,228.241c-5.236,0-9.481,4.241-9.481,9.481v9.481c0,5.241,4.245,9.481,9.481,9.481
		s9.481-4.241,9.481-9.481v-9.481C18.963,232.481,14.718,228.241,9.481,228.241z"/>
	<path style="fill:#314E55;" d="M381.986,450.37h-9.481c-5.236,0-9.481,4.241-9.481,9.482c0,5.241,4.245,9.481,9.481,9.481h9.481
		c5.236,0,9.481-4.241,9.481-9.481C391.468,454.611,387.222,450.37,381.986,450.37z"/>
	<path style="fill:#314E55;" d="M502.519,327.111c-5.236,0-9.481,4.241-9.481,9.481v9.481c0,5.241,4.245,9.482,9.481,9.482
		s9.481-4.241,9.481-9.482v-9.481C512,331.352,507.755,327.111,502.519,327.111z"/>
	<path style="fill:#314E55;" d="M325.097,450.37h-9.481c-5.236,0-9.481,4.241-9.481,9.482c0,5.241,4.245,9.481,9.481,9.481h9.481
		c5.236,0,9.481-4.241,9.481-9.481C334.579,454.611,330.333,450.37,325.097,450.37z"/>
	<path style="fill:#314E55;" d="M502.519,270.222c-5.236,0-9.481,4.241-9.481,9.481v9.481c0,5.241,4.245,9.481,9.481,9.481
		s9.481-4.241,9.481-9.481v-9.481C512,274.463,507.755,270.222,502.519,270.222z"/>
	<path style="fill:#314E55;" d="M493.037,165.926v9.481c0,5.241,4.245,9.481,9.481,9.481s9.481-4.241,9.481-9.481v-9.481
		c0-5.241-4.245-9.481-9.481-9.481S493.037,160.685,493.037,165.926z"/>
	<path style="fill:#314E55;" d="M502.519,213.333c-5.236,0-9.481,4.241-9.481,9.481v9.481c0,5.241,4.245,9.481,9.481,9.481
		s9.481-4.241,9.481-9.481v-9.481C512,217.574,507.755,213.333,502.519,213.333z"/>
	<path style="fill:#314E55;" d="M438.875,450.37h-9.481c-5.236,0-9.481,4.241-9.481,9.482c0,5.241,4.245,9.481,9.481,9.481h9.481
		c5.236,0,9.481-4.241,9.481-9.481C448.357,454.611,444.111,450.37,438.875,450.37z"/>
	<path style="fill:#314E55;" d="M502.519,384c-5.236,0-9.481,4.241-9.481,9.481v9.481c0,5.241,4.245,9.482,9.481,9.482
		s9.481-4.241,9.481-9.482v-9.481C512,388.241,507.755,384,502.519,384z"/>
	<path style="fill:#314E55;" d="M485.421,441.324c-1.611,1.732-3.444,3.269-5.454,4.565c-4.398,2.843-5.662,8.704-2.82,13.111
		c1.81,2.806,4.861,4.333,7.972,4.333c1.764,0,3.546-0.491,5.134-1.518c3.329-2.148,6.375-4.695,9.056-7.583
		c3.565-3.833,3.347-9.833-0.486-13.398C494.991,437.278,488.995,437.481,485.421,441.324z"/>
	<path style="fill:#314E55;" d="M512,146.963v-37.926c0-5.241-4.245-9.481-9.481-9.481h-279.37l-35.111-52.667
		c-1.759-2.639-4.718-4.222-7.889-4.222H9.481C4.245,42.667,0,46.907,0,52.148v56.889v37.926c0,5.241,4.245,9.481,9.481,9.481h9.481
		H66.37h9.481h47.407h9.481h47.407h9.481h47.407h9.481h47.407h9.481h47.407h9.481h47.407h9.481h47.407h9.481h28.444
		C507.755,156.444,512,152.204,512,146.963z"/>
</g>
<polygon style="fill:#D8D8D8;" points="18.963,61.63 175.074,61.63 200.357,99.556 18.963,99.556 "/>
<polygon style="fill:#E4AD40;" points="493.037,137.481 474.074,137.481 464.593,137.481 417.185,137.481 407.704,137.481 
	360.296,137.481 350.815,137.481 303.407,137.481 293.926,137.481 246.519,137.481 237.037,137.481 189.63,137.481 180.148,137.481 
	132.741,137.481 123.259,137.481 75.852,137.481 66.37,137.481 18.963,137.481 18.963,118.519 218.074,118.519 493.037,118.519 "/>
<g>
</g>
<g>
</g>
<g>
</g>
<g>
</g>
<g>
</g>
<g>
</g>
<g>
</g>
<g>
</g>
<g>
</g>
<g>
</g>
<g>
</g>
<g>
</g>
<g>
</g>
<g>
</g>
<g>
</g>
</svg>
