<?xml version="1.0" encoding="iso-8859-1"?>
<!-- Generator: Adobe Illustrator 19.0.0, SVG Export Plug-In . SVG Version: 6.00 Build 0)  -->
<svg version="1.1" id="Layer_1" xmlns="http://www.w3.org/2000/svg" xmlns:xlink="http://www.w3.org/1999/xlink" x="0px" y="0px"
	 viewBox="0 0 512 512" style="enable-background:new 0 0 512 512;" xml:space="preserve">
<path style="fill:#314E55;" d="M502.519,99.556h-279.37l-35.111-52.667c-1.759-2.639-4.718-4.222-7.889-4.222H9.481
	C4.245,42.667,0,46.907,0,52.148v56.889v37.926v274.991c0,26.13,21.241,47.38,47.352,47.38h417.296
	c26.111,0,47.352-21.25,47.352-47.38V146.963v-37.926C512,103.796,507.755,99.556,502.519,99.556z"/>
<polygon style="fill:#F28544;" points="493.037,137.481 18.963,137.481 18.963,118.519 218.074,118.519 493.037,118.519 "/>
<polygon style="fill:#D8D8D8;" points="18.963,61.63 175.074,61.63 200.357,99.556 18.963,99.556 "/>
<path style="fill:#FFFFFF;" d="M493.037,421.954c0,15.667-12.736,28.417-28.389,28.417H47.352c-15.653,0-28.389-12.75-28.389-28.417
	V156.444h474.074V421.954z"/>
<path style="fill:#314E55;" d="M247.87,388.88c1.713,2.852,4.801,4.602,8.13,4.602s6.417-1.75,8.13-4.602l56.889-94.815
	c1.759-2.926,1.806-6.574,0.12-9.555c-1.681-2.972-4.833-4.806-8.25-4.806h-28.444V194.37c0-5.241-4.245-9.481-9.482-9.481h-37.926
	c-5.236,0-9.481,4.241-9.481,9.481v85.333h-28.444c-3.417,0-6.569,1.833-8.25,4.805c-1.685,2.981-1.639,6.63,0.12,9.555
	L247.87,388.88z"/>
<path style="fill:#F28544;" d="M237.037,298.667c5.236,0,9.481-4.241,9.481-9.481v-85.333h18.963v85.333
	c0,5.241,4.245,9.481,9.481,9.481h21.18L256,365.574l-40.143-66.908H237.037z"/>
<rect x="151.704" y="402.963" style="fill:#314E55;" width="208.593" height="18.963"/>
<g>
</g>
<g>
</g>
<g>
</g>
<g>
</g>
<g>
</g>
<g>
</g>
<g>
</g>
<g>
</g>
<g>
</g>
<g>
</g>
<g>
</g>
<g>
</g>
<g>
</g>
<g>
</g>
<g>
</g>
</svg>
