<?xml version="1.0" encoding="iso-8859-1"?>
<!-- Generator: Adobe Illustrator 19.0.0, SVG Export Plug-In . SVG Version: 6.00 Build 0)  -->
<svg version="1.1" id="Layer_1" xmlns="http://www.w3.org/2000/svg" xmlns:xlink="http://www.w3.org/1999/xlink" x="0px" y="0px"
	 viewBox="0 0 512 512" style="enable-background:new 0 0 512 512;" xml:space="preserve">
<path style="fill:#314E55;" d="M502.519,99.556h-279.37l-35.111-52.667c-1.759-2.639-4.718-4.222-7.889-4.222H9.481
	C4.245,42.667,0,46.907,0,52.148v56.889v37.926v274.991c0,26.13,21.241,47.38,47.352,47.38h417.296
	c26.111,0,47.352-21.25,47.352-47.38V146.963v-37.926C512,103.796,507.755,99.556,502.519,99.556z"/>
<polygon style="fill:#E9E7D1;" points="493.037,137.481 18.963,137.481 18.963,118.519 218.074,118.519 493.037,118.519 "/>
<polygon style="fill:#E4AD40;" points="18.963,61.63 175.074,61.63 200.357,99.556 18.963,99.556 "/>
<path style="fill:#5ECB66;" d="M493.037,421.954c0,15.667-12.736,28.417-28.389,28.417H47.352c-15.653,0-28.389-12.75-28.389-28.417
	V156.444h474.074V421.954z"/>
<g>
	<path style="fill:#314E55;" d="M188.954,241.102c36.972-36.963,97.12-36.963,134.093,0c36.968,36.972,36.968,97.12,0,134.093
		c-36.972,36.963-97.12,36.963-134.093,0c-3.704-3.704-9.704-3.704-13.407,0c-3.703,3.704-3.704,9.704,0,13.407
		c22.181,22.185,51.319,33.269,80.454,33.269s58.273-11.083,80.454-33.269c44.366-44.361,44.366-116.546,0-160.907
		c-44.361-44.37-116.546-44.37-160.907,0c-3.704,3.704-3.704,9.704,0,13.407C179.25,244.805,185.25,244.805,188.954,241.102z"/>
	<path style="fill:#314E55;" d="M151.704,279.704h66.37c5.236,0,9.481-4.241,9.481-9.481c0-5.241-4.245-9.481-9.481-9.481h-56.889
		v-56.889c0-5.241-4.245-9.481-9.481-9.481s-9.481,4.241-9.481,9.481v66.37C142.222,275.463,146.468,279.704,151.704,279.704z"/>
</g>
<g>
</g>
<g>
</g>
<g>
</g>
<g>
</g>
<g>
</g>
<g>
</g>
<g>
</g>
<g>
</g>
<g>
</g>
<g>
</g>
<g>
</g>
<g>
</g>
<g>
</g>
<g>
</g>
<g>
</g>
</svg>
