<?xml version="1.0" encoding="iso-8859-1"?>
<!-- Generator: Adobe Illustrator 19.0.0, SVG Export Plug-In . SVG Version: 6.00 Build 0)  -->
<svg version="1.1" id="Layer_1" xmlns="http://www.w3.org/2000/svg" xmlns:xlink="http://www.w3.org/1999/xlink" x="0px" y="0px"
	 viewBox="0 0 512 512" style="enable-background:new 0 0 512 512;" xml:space="preserve">
<path style="fill:#314E55;" d="M502.519,99.556h-279.37l-35.111-52.667c-1.759-2.639-4.718-4.222-7.889-4.222H9.481
	C4.245,42.667,0,46.907,0,52.148v56.889v37.926v274.991c0,26.13,21.241,47.38,47.352,47.38h417.296
	c26.111,0,47.352-21.25,47.352-47.38V146.963v-37.926C512,103.796,507.755,99.556,502.519,99.556z"/>
<polygon style="fill:#E4AD40;" points="493.037,137.481 18.963,137.481 18.963,118.519 218.074,118.519 493.037,118.519 "/>
<polygon style="fill:#5ECB66;" points="18.963,61.63 175.074,61.63 200.357,99.556 18.963,99.556 "/>
<path style="fill:#E9E7D1;" d="M493.037,421.954c0,15.667-12.736,28.417-28.389,28.417H47.352c-15.653,0-28.389-12.75-28.389-28.417
	V156.444h474.074V421.954z"/>
<path style="fill:#314E55;" d="M113.778,412.444h284.444c5.236,0,9.481-4.241,9.481-9.482c0-30.874-52.164-49.536-112.823-55.095
	c22.646-21.113,36.972-57.54,36.972-85.117c0-42.935-34.028-77.861-75.852-77.861s-75.852,34.926-75.852,77.861
	c0,27.577,14.326,64.004,36.972,85.117c-60.66,5.559-112.824,24.222-112.824,55.095
	C104.296,408.204,108.542,412.444,113.778,412.444z"/>
<g>
	<path style="fill:#5ECB66;" d="M199.111,262.75c0-32.472,25.518-58.898,56.889-58.898s56.889,26.426,56.889,58.898
		c0,35.611-28.125,83.324-56.889,83.324S199.111,298.361,199.111,262.75z"/>
	<path style="fill:#5ECB66;" d="M256,365.037c65.458,0,111.782,14.657,127.171,28.444H128.829
		C144.218,379.694,190.542,365.037,256,365.037z"/>
</g>
<g>
</g>
<g>
</g>
<g>
</g>
<g>
</g>
<g>
</g>
<g>
</g>
<g>
</g>
<g>
</g>
<g>
</g>
<g>
</g>
<g>
</g>
<g>
</g>
<g>
</g>
<g>
</g>
<g>
</g>
</svg>
