<?xml version="1.0" encoding="iso-8859-1"?>
<!-- Generator: Adobe Illustrator 19.0.0, SVG Export Plug-In . SVG Version: 6.00 Build 0)  -->
<svg version="1.1" id="Layer_1" xmlns="http://www.w3.org/2000/svg" xmlns:xlink="http://www.w3.org/1999/xlink" x="0px" y="0px"
	 viewBox="0 0 512 512" style="enable-background:new 0 0 512 512;" xml:space="preserve">
<path style="fill:#314E55;" d="M502.519,99.556h-279.37l-35.111-52.667c-1.759-2.639-4.722-4.222-7.889-4.222H9.481
	C4.241,42.667,0,46.907,0,52.148v56.889v37.926v274.991c0,26.13,21.241,47.38,47.352,47.38h417.296
	c26.111,0,47.352-21.25,47.352-47.38V146.963v-37.926C512,103.796,507.759,99.556,502.519,99.556z"/>
<polygon style="fill:#EAEAEA;" points="493.037,137.481 18.963,137.481 18.963,118.519 218.074,118.519 493.037,118.519 "/>
<polygon style="fill:#D8D8D8;" points="18.963,61.63 175.074,61.63 200.361,99.556 18.963,99.556 "/>
<path style="fill:#5ECB66;" d="M493.037,421.954c0,15.667-12.731,28.417-28.389,28.417H47.352c-15.657,0-28.389-12.75-28.389-28.417
	V156.444h474.074V421.954z"/>
<g>
	<rect x="360.296" y="213.333" style="fill:#314E55;" width="18.963" height="47.407"/>
	<rect x="360.296" y="279.704" style="fill:#314E55;" width="18.963" height="47.407"/>
	<rect x="360.296" y="346.074" style="fill:#314E55;" width="18.963" height="47.407"/>
	<path style="fill:#314E55;" d="M113.778,421.926h56.889h170.667h56.889c5.241,0,9.481-4.241,9.481-9.481V194.37
		c0-5.241-4.241-9.481-9.481-9.481h-56.889H170.667h-56.889c-5.241,0-9.481,4.241-9.481,9.481v218.074
		C104.296,417.685,108.537,421.926,113.778,421.926z"/>
</g>
<rect x="350.815" y="203.852" style="fill:#D8D8D8;" width="37.926" height="199.111"/>
<rect x="180.148" y="203.852" style="fill:#EAEAEA;" width="151.704" height="199.111"/>
<rect x="123.259" y="203.852" style="fill:#D8D8D8;" width="37.926" height="199.111"/>
<g>
	<rect x="132.741" y="213.333" style="fill:#314E55;" width="18.963" height="47.407"/>
	<rect x="132.741" y="279.704" style="fill:#314E55;" width="18.963" height="47.407"/>
	<rect x="132.741" y="346.074" style="fill:#314E55;" width="18.963" height="47.407"/>
</g>
<g>
</g>
<g>
</g>
<g>
</g>
<g>
</g>
<g>
</g>
<g>
</g>
<g>
</g>
<g>
</g>
<g>
</g>
<g>
</g>
<g>
</g>
<g>
</g>
<g>
</g>
<g>
</g>
<g>
</g>
</svg>
