<?xml version="1.0" encoding="iso-8859-1"?>
<!-- Generator: Adobe Illustrator 19.0.0, SVG Export Plug-In . SVG Version: 6.00 Build 0)  -->
<svg version="1.1" id="Layer_1" xmlns="http://www.w3.org/2000/svg" xmlns:xlink="http://www.w3.org/1999/xlink" x="0px" y="0px"
	 viewBox="0 0 512 512" style="enable-background:new 0 0 512 512;" xml:space="preserve">
<path style="fill:#314E55;" d="M502.519,99.556h-279.37l-35.111-52.667c-1.759-2.639-4.722-4.222-7.889-4.222H9.481
	C4.241,42.667,0,46.907,0,52.148v56.889v37.926v274.991c0,26.13,21.241,47.38,47.352,47.38h417.296
	c26.111,0,47.352-21.25,47.352-47.38V146.963v-37.926C512,103.796,507.759,99.556,502.519,99.556z"/>
<polygon style="fill:#DBCF56;" points="493.037,137.481 18.963,137.481 18.963,118.519 218.074,118.519 493.037,118.519 "/>
<g>
	<polygon style="fill:#EA86A5;" points="18.963,61.63 175.074,61.63 200.361,99.556 18.963,99.556 	"/>
	<path style="fill:#EA86A5;" d="M493.037,421.954c0,15.667-12.731,28.417-28.389,28.417H47.352
		c-15.657,0-28.389-12.75-28.389-28.417V156.444h474.074V421.954z"/>
</g>
<g>
	<path style="fill:#314E55;" d="M89.167,340.278c2.426,0,4.852-0.926,6.704-2.778l35.889-35.889l34.5,34.5
		c1.852,1.852,4.278,2.778,6.704,2.778c2.426,0,4.852-0.926,6.704-2.778c3.704-3.704,3.704-9.704,0-13.407l-34.5-34.5l31.148-31.148
		c3.704-3.704,3.704-9.704,0-13.407c-3.704-3.703-9.704-3.704-13.407,0l-31.148,31.148l-32.537-32.537
		c-3.704-3.704-9.704-3.704-13.407,0s-3.704,9.704,0,13.407l32.537,32.537l-35.889,35.889c-3.704,3.704-3.704,9.704,0,13.407
		C84.315,339.352,86.741,340.278,89.167,340.278z"/>
	<path style="fill:#314E55;" d="M212.426,340.278c2.426,0,4.852-0.926,6.704-2.778l35.889-35.889l34.5,34.5
		c1.852,1.852,4.278,2.778,6.704,2.778s4.852-0.926,6.704-2.778c3.704-3.704,3.704-9.704,0-13.407l-34.5-34.5l31.148-31.148
		c3.704-3.704,3.704-9.704,0-13.407c-3.704-3.703-9.704-3.704-13.407,0l-31.148,31.148l-32.537-32.537
		c-3.704-3.704-9.704-3.704-13.407,0c-3.703,3.704-3.704,9.704,0,13.407l32.537,32.537l-35.889,35.889
		c-3.704,3.704-3.704,9.704,0,13.407C207.574,339.352,210,340.278,212.426,340.278z"/>
	<path style="fill:#314E55;" d="M335.685,340.278c2.426,0,4.852-0.926,6.704-2.778l35.889-35.889l34.5,34.5
		c1.852,1.852,4.278,2.778,6.704,2.778c2.426,0,4.852-0.926,6.704-2.778c3.704-3.704,3.704-9.704,0-13.407l-34.5-34.5l31.148-31.148
		c3.704-3.704,3.704-9.704,0-13.407c-3.704-3.703-9.704-3.704-13.407,0l-31.148,31.148l-32.537-32.537
		c-3.704-3.704-9.704-3.704-13.407,0s-3.704,9.704,0,13.407l32.537,32.537l-35.889,35.889c-3.704,3.704-3.704,9.704,0,13.407
		C330.833,339.352,333.259,340.278,335.685,340.278z"/>
</g>
<g>
</g>
<g>
</g>
<g>
</g>
<g>
</g>
<g>
</g>
<g>
</g>
<g>
</g>
<g>
</g>
<g>
</g>
<g>
</g>
<g>
</g>
<g>
</g>
<g>
</g>
<g>
</g>
<g>
</g>
</svg>
