<?xml version="1.0" encoding="iso-8859-1"?>
<!-- Generator: Adobe Illustrator 19.0.0, SVG Export Plug-In . SVG Version: 6.00 Build 0)  -->
<svg version="1.1" id="Layer_1" xmlns="http://www.w3.org/2000/svg" xmlns:xlink="http://www.w3.org/1999/xlink" x="0px" y="0px"
	 viewBox="0 0 512 512" style="enable-background:new 0 0 512 512;" xml:space="preserve">
<path style="fill:#314E55;" d="M502.519,99.556h-279.37l-35.111-52.667c-1.759-2.639-4.718-4.222-7.889-4.222H9.481
	C4.245,42.667,0,46.907,0,52.148v56.889v37.926v274.991c0,26.13,21.241,47.38,47.352,47.38h417.296
	c26.111,0,47.352-21.25,47.352-47.38V146.963v-37.926C512,103.796,507.755,99.556,502.519,99.556z"/>
<polygon style="fill:#E9E7D1;" points="493.037,137.481 18.963,137.481 18.963,118.519 218.074,118.519 493.037,118.519 "/>
<polygon style="fill:#E4AD40;" points="18.963,61.63 175.074,61.63 200.357,99.556 18.963,99.556 "/>
<path style="fill:#C59981;" d="M493.037,421.954c0,15.667-12.736,28.417-28.389,28.417H47.352c-15.653,0-28.389-12.75-28.389-28.417
	V156.444h474.074V421.954z"/>
<g>
	<path style="fill:#314E55;" d="M170.667,402.963h94.815c5.236,0,9.481-4.241,9.481-9.481v-189.63c0-5.241-4.245-9.481-9.481-9.481
		h-94.815c-5.236,0-9.481,4.241-9.481,9.481v189.63C161.185,398.722,165.431,402.963,170.667,402.963z M180.148,213.333H256V384
		h-75.852V213.333z"/>
	<polygon style="fill:#314E55;" points="322.37,393.741 341.333,393.741 341.333,222.815 341.333,203.852 322.37,203.852 
		293.926,203.852 293.926,222.815 322.37,222.815 	"/>
</g>
<g>
</g>
<g>
</g>
<g>
</g>
<g>
</g>
<g>
</g>
<g>
</g>
<g>
</g>
<g>
</g>
<g>
</g>
<g>
</g>
<g>
</g>
<g>
</g>
<g>
</g>
<g>
</g>
<g>
</g>
</svg>
