<?xml version="1.0" encoding="iso-8859-1"?>
<!-- Generator: Adobe Illustrator 19.0.0, SVG Export Plug-In . SVG Version: 6.00 Build 0)  -->
<svg version="1.1" id="Layer_1" xmlns="http://www.w3.org/2000/svg" xmlns:xlink="http://www.w3.org/1999/xlink" x="0px" y="0px"
	 viewBox="0 0 512 512" style="enable-background:new 0 0 512 512;" xml:space="preserve">
<path style="fill:#314E55;" d="M502.519,99.556h-279.37l-35.111-52.667c-1.759-2.639-4.722-4.222-7.889-4.222H9.481
	C4.241,42.667,0,46.907,0,52.148v56.889v37.926v274.991c0,26.13,21.241,47.38,47.352,47.38h417.296
	c26.111,0,47.352-21.25,47.352-47.38V146.963v-37.926C512,103.796,507.759,99.556,502.519,99.556z"/>
<polygon style="fill:#E9E7D1;" points="493.037,137.481 18.963,137.481 18.963,118.519 218.074,118.519 493.037,118.519 "/>
<polygon style="fill:#E4AD40;" points="18.963,61.63 175.074,61.63 200.361,99.556 18.963,99.556 "/>
<path style="fill:#C59981;" d="M493.037,421.954c0,15.667-12.731,28.417-28.389,28.417H47.352c-15.657,0-28.389-12.75-28.389-28.417
	V156.444h474.074V421.954z"/>
<g>
	<path style="fill:#314E55;" d="M132.741,402.963h94.815c5.241,0,9.481-4.241,9.481-9.481v-189.63c0-5.241-4.241-9.481-9.481-9.481
		h-94.815c-5.241,0-9.481,4.241-9.481,9.481v189.63C123.259,398.722,127.5,402.963,132.741,402.963z M142.222,213.333h75.852V384
		h-75.852V213.333z M256,402.963h94.815c5.241,0,9.481-4.241,9.481-9.481v-189.63c0-5.241-4.241-9.481-9.481-9.481H256
		c-5.241,0-9.481,4.241-9.481,9.481v189.63C246.519,398.722,250.759,402.963,256,402.963z M265.481,213.333h75.852V384h-75.852
		V213.333z"/>
	<polygon style="fill:#314E55;" points="75.852,393.741 94.815,393.741 94.815,222.815 94.815,203.852 75.852,203.852 
		47.407,203.852 47.407,222.815 75.852,222.815 	"/>
	<polygon style="fill:#314E55;" points="407.704,346.074 426.667,346.074 426.667,308.148 464.593,308.148 464.593,289.185 
		426.667,289.185 426.667,251.259 407.704,251.259 407.704,289.185 369.778,289.185 369.778,308.148 407.704,308.148 	"/>
</g>
<g>
</g>
<g>
</g>
<g>
</g>
<g>
</g>
<g>
</g>
<g>
</g>
<g>
</g>
<g>
</g>
<g>
</g>
<g>
</g>
<g>
</g>
<g>
</g>
<g>
</g>
<g>
</g>
<g>
</g>
</svg>
