<?xml version="1.0" encoding="iso-8859-1"?>
<!-- Generator: Adobe Illustrator 19.0.0, SVG Export Plug-In . SVG Version: 6.00 Build 0)  -->
<svg version="1.1" id="Layer_1" xmlns="http://www.w3.org/2000/svg" xmlns:xlink="http://www.w3.org/1999/xlink" x="0px" y="0px"
	 viewBox="0 0 512 512" style="enable-background:new 0 0 512 512;" xml:space="preserve">
<path style="fill:#314E55;" d="M502.519,99.556h-279.37l-35.111-52.667c-1.759-2.639-4.722-4.222-7.889-4.222H9.481
	C4.241,42.667,0,46.907,0,52.148v56.889v37.926v274.991c0,26.13,21.241,47.38,47.352,47.38h417.296
	c26.111,0,47.352-21.25,47.352-47.38V146.963v-37.926C512,103.796,507.759,99.556,502.519,99.556z"/>
<polygon style="fill:#EAEAEA;" points="493.037,137.481 18.963,137.481 18.963,118.519 218.074,118.519 493.037,118.519 "/>
<polygon style="fill:#E4AD40;" points="18.963,61.63 175.074,61.63 200.361,99.556 18.963,99.556 "/>
<path style="fill:#E9E7D1;" d="M493.037,421.954c0,15.667-12.731,28.417-28.389,28.417H47.352c-15.657,0-28.389-12.75-28.389-28.417
	V156.444h474.074V421.954z"/>
<path style="fill:#314E55;" d="M256,421.926c62.741,0,113.778-51.037,113.778-113.778S318.741,194.37,256,194.37
	s-113.778,51.037-113.778,113.778S193.259,421.926,256,421.926z"/>
<path style="fill:#E4AD40;" d="M256,213.333c52.278,0,94.815,42.537,94.815,94.815S308.278,402.963,256,402.963
	s-94.815-42.537-94.815-94.815S203.722,213.333,256,213.333z"/>
<path style="fill:#314E55;" d="M242.592,312.892l-32.128,32.136c-3.704,3.704-3.704,9.704,0,13.407
	c1.852,1.852,4.278,2.778,6.704,2.778c2.426,0,4.852-0.926,6.704-2.778l32.128-32.135l30.446,30.45
	c1.852,1.852,4.278,2.778,6.704,2.778s4.852-0.926,6.704-2.778c3.704-3.704,3.704-9.704,0-13.407l-30.448-30.451l35.189-35.197
	c3.704-3.704,3.704-9.704,0-13.407c-3.704-3.703-9.704-3.704-13.407,0l-35.188,35.196l-36.868-36.872
	c-3.704-3.704-9.704-3.704-13.407,0c-3.703,3.704-3.704,9.704,0,13.407L242.592,312.892z"/>
<g>
</g>
<g>
</g>
<g>
</g>
<g>
</g>
<g>
</g>
<g>
</g>
<g>
</g>
<g>
</g>
<g>
</g>
<g>
</g>
<g>
</g>
<g>
</g>
<g>
</g>
<g>
</g>
<g>
</g>
</svg>
