<?xml version="1.0" encoding="iso-8859-1"?>
<!-- Generator: Adobe Illustrator 19.0.0, SVG Export Plug-In . SVG Version: 6.00 Build 0)  -->
<svg version="1.1" id="Layer_1" xmlns="http://www.w3.org/2000/svg" xmlns:xlink="http://www.w3.org/1999/xlink" x="0px" y="0px"
	 viewBox="0 0 512 512" style="enable-background:new 0 0 512 512;" xml:space="preserve">
<path style="fill:#314E55;" d="M502.519,99.556h-279.37l-35.111-52.667c-1.759-2.639-4.722-4.222-7.889-4.222H9.481
	C4.241,42.667,0,46.907,0,52.148v56.889v37.926v274.991c0,26.13,21.241,47.38,47.352,47.38h417.296
	c26.111,0,47.352-21.25,47.352-47.38V146.963v-37.926C512,103.796,507.759,99.556,502.519,99.556z"/>
<polygon style="fill:#D8D8D8;" points="493.037,137.481 436.148,137.481 293.926,137.481 18.963,137.481 18.963,118.519 
	218.074,118.519 493.037,118.519 "/>
<g>
	<path style="fill:#EA86A5;" d="M303.407,156.444h123.259v208.593l-54.046-72.055c-1.787-2.389-4.602-3.796-7.583-3.796
		s-5.796,1.408-7.583,3.796l-54.046,72.055V156.444z"/>
	<polygon style="fill:#EA86A5;" points="18.963,61.63 175.074,61.63 200.361,99.556 18.963,99.556 	"/>
</g>
<path style="fill:#E9E7D1;" d="M493.037,421.954c0,15.667-12.731,28.417-28.389,28.417H47.352c-15.657,0-28.389-12.75-28.389-28.417
	V156.444h265.482v237.037c0,4.083,2.611,7.704,6.482,8.991c3.898,1.324,8.148-0.037,10.583-3.305l63.528-84.695l63.528,84.695
	c1.824,2.435,4.657,3.796,7.583,3.796c1,0,2.009-0.157,3-0.491c3.87-1.287,6.482-4.907,6.482-8.991V156.444h47.407V421.954z"/>
<g>
</g>
<g>
</g>
<g>
</g>
<g>
</g>
<g>
</g>
<g>
</g>
<g>
</g>
<g>
</g>
<g>
</g>
<g>
</g>
<g>
</g>
<g>
</g>
<g>
</g>
<g>
</g>
<g>
</g>
</svg>
