<?xml version="1.0" encoding="iso-8859-1"?>
<!-- Generator: Adobe Illustrator 19.0.0, SVG Export Plug-In . SVG Version: 6.00 Build 0)  -->
<svg version="1.1" id="Layer_1" xmlns="http://www.w3.org/2000/svg" xmlns:xlink="http://www.w3.org/1999/xlink" x="0px" y="0px"
	 viewBox="0 0 512 512" style="enable-background:new 0 0 512 512;" xml:space="preserve">
<path style="fill:#314E55;" d="M511.867,234.008c-0.061-0.969-0.25-1.901-0.57-2.818c-0.119-0.341-0.205-0.677-0.357-1.003
	c-0.514-1.104-1.162-2.151-2.053-3.046c-0.006-0.006-0.01-0.014-0.01-0.014L448,166.25v-59.583c0-0.232-0.118-0.44-0.133-0.672
	c-0.06-0.941-0.242-1.846-0.546-2.741c-0.117-0.342-0.206-0.676-0.357-1.005c-0.519-1.133-1.173-2.21-2.088-3.124l-96-96
	c-0.919-0.919-1.998-1.575-3.135-2.095c-0.318-0.146-0.639-0.233-0.97-0.345c-0.912-0.315-1.839-0.5-2.802-0.559
	C341.75,0.112,341.553,0,341.333,0H74.667C68.776,0,64,4.776,64,10.667V166.25L3.128,227.122c0,0-0.009,0.013-0.016,0.019
	c-0.891,0.894-1.539,1.941-2.053,3.046c-0.152,0.326-0.238,0.661-0.357,1.003c-0.32,0.917-0.509,1.849-0.57,2.818
	C0.118,234.238,0,234.432,0,234.667v202.667C0,443.224,4.776,448,10.667,448H64v53.333C64,507.224,68.776,512,74.667,512h362.667
	c5.891,0,10.667-4.776,10.667-10.667V448h53.333c5.891,0,10.667-4.776,10.667-10.667V234.667
	C512,234.432,511.882,234.238,511.867,234.008z"/>
<polygon style="fill:#EAEAEA;" points="475.583,224 448,224 448,196.417 "/>
<polygon style="fill:#D8D8D8;" points="411.583,96 352,96 352,36.417 "/>
<g>
	<path style="fill:#EAEAEA;" d="M85.333,21.333h245.333v85.333c0,5.891,4.776,10.667,10.667,10.667h85.333v53.333V224H85.333
		v-53.333V21.333z"/>
	<polygon style="fill:#EAEAEA;" points="64,196.417 64,224 36.417,224 	"/>
	<rect x="85.333" y="448" style="fill:#EAEAEA;" width="341.333" height="42.667"/>
</g>
<polygon style="fill:#E65F58;" points="490.667,426.667 21.333,426.667 21.333,245.333 74.667,245.333 437.333,245.333 
	490.667,245.333 "/>
<g>
	<path style="fill:#314E55;" d="M198.518,351.295h15.594v33.185c-1.45,1.087-3.355,1.962-5.712,2.624
		c-2.357,0.672-4.986,1.003-7.888,1.003c-4.594,0-8.553-1.206-11.877-3.626c-3.324-2.422-6.075-5.771-8.251-10.07
		c-2.176-4.288-3.808-9.301-4.896-15.051c-1.089-5.738-1.632-11.871-1.632-18.4c0-6.283,0.544-12.267,1.632-17.952
		c1.088-5.685,2.72-10.667,4.896-14.965c2.176-4.288,4.926-7.702,8.251-10.241c3.324-2.538,7.223-3.807,11.696-3.807
		c8.221,0,14.748,3.509,19.584,10.517l12.512-15.232c-3.506-4.96-8.039-8.789-13.6-11.519c-5.561-2.72-12.15-4.075-19.766-4.075
		c-7.253,0-13.781,1.664-19.584,4.982c-5.803,3.328-10.759,7.979-14.869,13.962c-4.11,5.995-7.253,13.089-9.43,21.313
		c-2.176,8.224-3.264,17.227-3.264,27.018c0,10.038,1.118,19.158,3.355,27.382s5.44,15.295,9.611,21.216
		c4.171,5.921,9.278,10.486,15.322,13.685c6.045,3.211,12.875,4.811,20.491,4.811c7.495,0,13.932-0.971,19.312-2.901
		c5.379-1.931,10.004-4.47,13.872-7.616v-65.099h-35.36L198.518,351.295L198.518,351.295z"/>
	<rect x="257.093" y="276.96" style="fill:#314E55;" width="21.76" height="128.373"/>
	<polygon style="fill:#314E55;" points="304.96,405.333 326.902,405.333 326.902,350.208 359.723,350.208 359.723,331.531 
		326.72,331.531 326.72,296.534 362.443,296.534 362.443,276.949 304.96,276.949 	"/>
</g>
<g>
</g>
<g>
</g>
<g>
</g>
<g>
</g>
<g>
</g>
<g>
</g>
<g>
</g>
<g>
</g>
<g>
</g>
<g>
</g>
<g>
</g>
<g>
</g>
<g>
</g>
<g>
</g>
<g>
</g>
</svg>
