<?xml version="1.0" encoding="iso-8859-1"?>
<!-- Generator: Adobe Illustrator 16.0.0, SVG Export Plug-In . SVG Version: 6.00 Build 0)  -->
<!DOCTYPE svg PUBLIC "-//W3C//DTD SVG 1.1//EN" "http://www.w3.org/Graphics/SVG/1.1/DTD/svg11.dtd">
<svg version="1.1" id="Capa_1" xmlns="http://www.w3.org/2000/svg" xmlns:xlink="http://www.w3.org/1999/xlink" x="0px" y="0px"
	 width="588.601px" height="588.6px" viewBox="0 0 588.601 588.6" style="enable-background:new 0 0 588.601 588.6;"
	 xml:space="preserve">
<g>
	<path d="M253.977,261.067c-20.896,0.664-32.782,20.25-32.782,45.91c0,25.851,12.285,44.455,32.993,45.099
		c21.526,0.675,34.146-19.032,34.146-45.932C288.339,281.317,275.93,260.36,253.977,261.067z"/>
	<path d="M577.373,87.004c0-20.838-16.959-37.8-37.8-37.8h-178.2c-0.791,0-1.561,0.077-2.342,0.124V0L11.228,46.417v494.564
		L359.031,588.6v-50.814c0.781,0.053,1.551,0.115,2.342,0.115h178.2c20.841,0,37.8-16.964,37.8-37.8V87.004z M75.447,365.797
		l-23.693-1.097V248.619l23.693-1.128V365.797z M155.574,347.878c8.261,0.253,17.55-1.36,23.069-3.48l4.266,22.781
		c-5.189,2.446-16.725,4.735-31.435,4.028c-40.126-1.93-59.859-28.661-59.859-62.796c0-40.89,27.119-64.971,62.527-66.714
		c14.223-0.696,25.244,1.798,30.262,4.239l-5.756,23.24c-5.708-2.294-13.54-4.313-23.259-4.005
		c-21.265,0.667-37.32,14.407-37.32,41.646C118.064,331.309,131.712,347.151,155.574,347.878z M252.548,376.26
		c-39.954-1.931-62.301-31.926-62.301-68.703c0-38.699,24.683-68.829,64.563-70.78c43.967-2.154,69.122,29.183,69.122,68.292
		C323.932,351.511,294.192,378.264,252.548,376.26z M555.773,500.101c0,8.934-7.268,16.2-16.2,16.2h-178.2
		c-0.802,0-1.571-0.11-2.342-0.232V71.046c0.771-0.113,1.54-0.242,2.342-0.242h178.2c8.933,0,16.2,7.269,16.2,16.2V500.101z"/>
	<path d="M499.342,181.427h-98.55c-5.964,0-10.8,4.833-10.8,10.8v19.895c0,5.961,4.836,10.8,10.8,10.8h26.868v133.483h-26.868
		c-5.964,0-10.8,4.831-10.8,10.801v19.892c0,5.964,4.836,10.8,10.8,10.8h98.55c5.965,0,10.8-4.836,10.8-10.8v-19.892
		c0-5.97-4.835-10.801-10.8-10.801h-24.168V222.921h24.168c5.965,0,10.8-4.838,10.8-10.8v-19.895
		C510.142,186.255,505.307,181.427,499.342,181.427z"/>
</g>
<g>
</g>
<g>
</g>
<g>
</g>
<g>
</g>
<g>
</g>
<g>
</g>
<g>
</g>
<g>
</g>
<g>
</g>
<g>
</g>
<g>
</g>
<g>
</g>
<g>
</g>
<g>
</g>
<g>
</g>
</svg>
