<?xml version="1.0" encoding="iso-8859-1"?>
<!-- Generator: Adobe Illustrator 19.0.0, SVG Export Plug-In . SVG Version: 6.00 Build 0)  -->
<svg version="1.1" id="Layer_1" xmlns="http://www.w3.org/2000/svg" xmlns:xlink="http://www.w3.org/1999/xlink" x="0px" y="0px"
	 viewBox="0 0 512 512" style="enable-background:new 0 0 512 512;" xml:space="preserve">
<path style="fill:#314E55;" d="M441.543,97.33L346.929,2.825C345.118,1.014,342.665,0,340.104,0H77.283
	c-5.335,0-9.66,4.325-9.66,9.66v289.811v19.321v38.642V502.34c0,5.335,4.325,9.66,9.66,9.66h357.434c5.335,0,9.66-4.325,9.66-9.66
	V357.434V104.165C444.377,101.599,443.358,99.142,441.543,97.33z"/>
<g>
	<polygon style="fill:#E4AD40;" points="411.396,96.604 347.774,96.604 347.774,32.981 	"/>
	<path style="fill:#E4AD40;" d="M86.943,299.472V19.321h241.509v86.943c0,5.335,4.325,9.66,9.66,9.66h86.943v183.547h-48.302v19.321
		h48.302v28.981H86.943v-28.981h38.642v-19.321H86.943z"/>
</g>
<rect x="86.943" y="367.094" style="fill:#D26CBA;" width="338.113" height="125.585"/>
<g>
	<rect x="299.472" y="299.472" style="fill:#314E55;" width="57.962" height="19.321"/>
	<rect x="144.906" y="299.472" style="fill:#314E55;" width="57.962" height="19.321"/>
	<rect x="222.189" y="299.472" style="fill:#314E55;" width="57.962" height="19.321"/>
</g>
<g>
</g>
<g>
</g>
<g>
</g>
<g>
</g>
<g>
</g>
<g>
</g>
<g>
</g>
<g>
</g>
<g>
</g>
<g>
</g>
<g>
</g>
<g>
</g>
<g>
</g>
<g>
</g>
<g>
</g>
</svg>
