<?xml version="1.0" encoding="iso-8859-1"?>
<!-- Generator: Adobe Illustrator 19.0.0, SVG Export Plug-In . SVG Version: 6.00 Build 0)  -->
<svg version="1.1" id="Layer_1" xmlns="http://www.w3.org/2000/svg" xmlns:xlink="http://www.w3.org/1999/xlink" x="0px" y="0px"
	 viewBox="0 0 512 512" style="enable-background:new 0 0 512 512;" xml:space="preserve">
<path style="fill:#314E55;" d="M511.867,234.008c-0.061-0.969-0.25-1.901-0.57-2.818c-0.119-0.341-0.205-0.677-0.357-1.003
	c-0.514-1.104-1.162-2.151-2.053-3.046c-0.006-0.006-0.01-0.014-0.01-0.014L448,166.25v-59.583c0-0.232-0.118-0.44-0.133-0.672
	c-0.06-0.941-0.242-1.846-0.546-2.741c-0.117-0.342-0.206-0.676-0.357-1.005c-0.519-1.133-1.173-2.21-2.088-3.124l-96-96
	c-0.919-0.919-2-1.575-3.137-2.096c-0.314-0.145-0.632-0.23-0.959-0.344c-0.919-0.318-1.853-0.503-2.823-0.561
	C341.742,0.111,341.549,0,341.333,0H74.667C68.776,0,64,4.776,64,10.667V166.25L3.128,227.122c0,0-0.009,0.013-0.016,0.019
	c-0.891,0.894-1.539,1.941-2.053,3.046c-0.152,0.326-0.238,0.661-0.357,1.003c-0.32,0.917-0.509,1.849-0.57,2.818
	C0.118,234.238,0,234.432,0,234.667v202.667C0,443.224,4.776,448,10.667,448H64v53.333C64,507.224,68.776,512,74.667,512h362.667
	c5.891,0,10.667-4.776,10.667-10.667V448h53.333c5.891,0,10.667-4.776,10.667-10.667V234.667
	C512,234.432,511.882,234.238,511.867,234.008z"/>
<polygon style="fill:#EAEAEA;" points="475.583,224 448,224 448,196.417 "/>
<polygon style="fill:#D8D8D8;" points="411.583,96 352,96 352,36.417 "/>
<g>
	<path style="fill:#EAEAEA;" d="M85.333,21.333h245.333v85.333c0,5.891,4.776,10.667,10.667,10.667h85.333v53.333V224H85.333
		v-53.333V21.333z"/>
	<polygon style="fill:#EAEAEA;" points="64,196.417 64,224 36.417,224 	"/>
	<rect x="85.333" y="448" style="fill:#EAEAEA;" width="341.333" height="42.667"/>
</g>
<polygon style="fill:#5ECB66;" points="490.667,426.667 21.333,426.667 21.333,245.333 74.667,245.333 437.333,245.333 
	490.667,245.333 "/>
<g>
	<polygon style="fill:#314E55;" points="283.2,348.033 317.109,348.033 317.109,330.262 283.2,330.262 283.2,296.171 
		319.829,296.171 319.829,276.949 262.347,276.949 262.347,405.333 321.643,405.333 321.643,385.931 283.2,385.931 	"/>
	<path style="fill:#314E55;" d="M232.518,285.013c-3.445-2.954-7.345-5.046-11.696-6.25c-4.352-1.206-8.584-1.814-12.693-1.814
		h-35.542v128.384h21.398v-51.499h15.232c4.473,0,8.824-0.789,13.056-2.357c4.231-1.569,7.978-3.99,11.243-7.254
		c3.264-3.264,5.893-7.339,7.888-12.245c1.994-4.897,2.991-10.603,2.991-17.131c0-7.253-1.118-13.301-3.354-18.133
		C238.803,291.883,235.963,287.979,232.518,285.013z"/>
</g>
<path style="fill:#5ECB66;" d="M218.827,330.71c-3.264,3.573-7.435,5.354-12.512,5.354h-12.33v-40.799h12.33
	c5.078,0,9.248,1.568,12.512,4.715c3.264,3.146,4.896,8.159,4.896,15.051C223.723,321.921,222.09,327.147,218.827,330.71z"/>
<g>
	<path style="fill:#314E55;" d="M125.803,365.984c0,6.891-0.846,12.331-2.538,16.319c-1.693,3.99-5.017,5.984-9.973,5.984
		c-3.506,0-6.317-1.301-8.432-3.904c-2.115-2.593-3.536-5.461-4.261-8.608l-18.133,7.797c1.813,7.616,5.44,13.686,10.88,18.219
		c5.439,4.544,12.33,6.806,20.672,6.806c11.484,0,19.917-3.562,25.295-10.699c5.379-7.135,8.07-17.109,8.07-29.919v-91.029h-21.579
		L125.803,365.984L125.803,365.984z"/>
	<path style="fill:#314E55;" d="M382.389,351.295h15.595v33.185c-1.451,1.087-3.355,1.962-5.712,2.624
		c-2.357,0.672-4.987,1.003-7.888,1.003c-4.594,0-8.553-1.206-11.878-3.626c-3.325-2.422-6.074-5.771-8.251-10.07
		c-2.176-4.288-3.808-9.301-4.896-15.051c-1.088-5.738-1.632-11.871-1.632-18.4c0-6.283,0.544-12.267,1.632-17.952
		s2.72-10.667,4.896-14.965c2.177-4.288,4.926-7.702,8.251-10.241c3.325-2.538,7.224-3.807,11.696-3.807
		c8.221,0,14.749,3.509,19.584,10.517l12.512-15.232c-3.506-4.96-8.04-8.789-13.6-11.519c-5.561-2.72-12.149-4.075-19.765-4.075
		c-7.253,0-13.781,1.664-19.584,4.982c-5.803,3.328-10.76,7.979-14.87,13.962c-4.109,5.995-7.253,13.089-9.429,21.313
		s-3.264,17.227-3.264,27.018c0,10.038,1.118,19.158,3.355,27.382c2.237,8.224,5.44,15.295,9.611,21.216
		c4.171,5.921,9.278,10.486,15.323,13.685c6.045,3.211,12.874,4.811,20.49,4.811c7.496,0,13.933-0.971,19.313-2.901
		c5.379-1.931,10.003-4.47,13.872-7.616v-65.099h-35.36L382.389,351.295L382.389,351.295z"/>
</g>
<g>
</g>
<g>
</g>
<g>
</g>
<g>
</g>
<g>
</g>
<g>
</g>
<g>
</g>
<g>
</g>
<g>
</g>
<g>
</g>
<g>
</g>
<g>
</g>
<g>
</g>
<g>
</g>
<g>
</g>
</svg>
