<?xml version="1.0" encoding="iso-8859-1"?>
<!-- Generator: Adobe Illustrator 19.0.0, SVG Export Plug-In . SVG Version: 6.00 Build 0)  -->
<svg version="1.1" id="Layer_1" xmlns="http://www.w3.org/2000/svg" xmlns:xlink="http://www.w3.org/1999/xlink" x="0px" y="0px"
	 viewBox="0 0 512 512" style="enable-background:new 0 0 512 512;" xml:space="preserve">
<path style="fill:#314E55;" d="M511.87,234.022c-0.06-0.975-0.249-1.913-0.572-2.836c-0.119-0.34-0.205-0.676-0.355-0.999
	c-0.51-1.094-1.154-2.128-2.034-3.016c-0.016-0.017-0.025-0.038-0.041-0.055L448,166.25v-59.583c0-0.227-0.117-0.43-0.131-0.656
	c-0.059-0.95-0.242-1.866-0.551-2.767c-0.115-0.337-0.204-0.665-0.352-0.99c-0.519-1.134-1.175-2.212-2.091-3.129l-96-96
	c-0.914-0.917-1.989-1.569-3.12-2.086c-0.333-0.154-0.671-0.243-1.019-0.362c-0.88-0.298-1.772-0.477-2.701-0.537
	C341.794,0.124,341.577,0,341.333,0H74.667C68.771,0,64,4.776,64,10.667V166.25L3.132,227.117c-0.016,0.017-0.025,0.038-0.041,0.055
	c-0.879,0.888-1.523,1.922-2.033,3.016c-0.151,0.323-0.237,0.659-0.355,0.997c-0.322,0.922-0.512,1.861-0.572,2.836
	C0.116,234.246,0,234.438,0,234.667v202.667C0,443.224,4.771,448,10.667,448H64v53.333C64,507.224,68.771,512,74.667,512h362.667
	c5.896,0,10.667-4.776,10.667-10.667V448h53.333c5.896,0,10.667-4.776,10.667-10.667V234.667
	C512,234.438,511.884,234.247,511.87,234.022z"/>
<polygon style="fill:#EAEAEA;" points="475.583,224 448,224 448,196.417 "/>
<polygon style="fill:#D8D8D8;" points="411.583,96 352,96 352,36.417 "/>
<g>
	<path style="fill:#EAEAEA;" d="M85.333,21.333h245.333v85.333c0,5.891,4.771,10.667,10.667,10.667h85.333v53.333V224H85.333
		v-53.333V21.333z"/>
	<polygon style="fill:#EAEAEA;" points="64,196.417 64,224 36.417,224 	"/>
	<rect x="85.333" y="448" style="fill:#EAEAEA;" width="341.333" height="42.667"/>
</g>
<polygon style="fill:#D26CBA;" points="490.667,426.667 21.333,426.667 21.333,245.333 74.667,245.333 437.333,245.333 
	490.667,245.333 "/>
<g>
	<rect x="413.387" y="276.96" style="fill:#314E55;" width="21.76" height="128.373"/>
	<polygon style="fill:#314E55;" points="131.424,370.88 130.699,370.88 106.037,276.949 76.842,276.949 76.842,405.333 
		96.608,405.333 96.245,306.687 96.789,306.687 121.995,405.333 139.04,405.333 164.789,306.687 165.333,306.687 164.971,405.333 
		186.187,405.333 186.187,276.949 155.541,276.949 	"/>
	<path style="fill:#314E55;" d="M386.379,347.211c-2.056-2.593-4.322-4.618-6.8-6.069c-2.478-1.452-4.926-2.475-7.345-3.083v-0.362
		c4.473-1.814,8.402-5.014,11.787-9.611c3.384-4.598,5.078-10.88,5.078-18.859c0-6.646-1.149-12.053-3.445-16.234
		c-2.297-4.171-5.198-7.425-8.705-9.792c-3.506-2.358-7.374-3.979-11.606-4.897c-4.231-0.906-8.221-1.354-11.967-1.354h-34.091
		v128.384h38.08c4.11,0,8.312-0.608,12.603-1.814c4.291-1.205,8.16-3.232,11.606-6.079c3.445-2.837,6.286-6.517,8.522-11.061
		c2.237-4.534,3.355-10.176,3.355-16.949c0-4.832-0.664-9.099-1.995-12.789C390.126,352.96,388.434,349.814,386.379,347.211z"/>
</g>
<g>
	<path style="fill:#D26CBA;" d="M339.594,295.082h11.968c2.297,0,4.533,0.299,6.71,0.907c2.176,0.608,4.08,1.6,5.711,2.987
		c1.632,1.397,2.962,3.21,3.99,5.439c1.027,2.241,1.542,4.992,1.542,8.257c0,3.264-0.514,6.048-1.542,8.341
		c-1.027,2.294-2.357,4.171-3.99,5.621c-1.631,1.452-3.506,2.508-5.621,3.168c-2.115,0.673-4.261,1.003-6.438,1.003h-12.331
		L339.594,295.082L339.594,295.082z"/>
	<path style="fill:#D26CBA;" d="M371.056,376.32c-1.027,2.421-2.418,4.438-4.171,6.069c-1.753,1.643-3.778,2.848-6.075,3.626
		c-2.296,0.789-4.775,1.185-7.434,1.185h-13.782v-40.075h13.238c2.296,0,4.594,0.363,6.891,1.089s4.413,1.898,6.346,3.53
		c1.934,1.643,3.506,3.755,4.715,6.348c1.209,2.602,1.814,5.781,1.814,9.525C372.598,370.997,372.083,373.898,371.056,376.32z"/>
</g>
<path style="fill:#314E55;" d="M286.645,292.181c-3.989-5.919-8.855-10.484-14.597-13.695c-5.742-3.201-12.18-4.801-19.313-4.801
	c-7.253,0-13.751,1.6-19.493,4.801c-5.742,3.211-10.608,7.776-14.598,13.695c-3.989,5.921-7.011,12.992-9.066,21.216
	s-3.083,17.407-3.083,27.562s1.058,19.371,3.173,27.649c2.115,8.288,5.168,15.392,9.158,21.313
	c3.989,5.919,8.824,10.517,14.506,13.781c5.682,3.263,12.149,4.896,19.402,4.896c7.133,0,13.57-1.633,19.313-4.896
	c5.742-3.264,10.608-7.862,14.597-13.781c3.99-5.921,7.042-13.025,9.158-21.313c2.115-8.277,3.173-17.494,3.173-27.649
	s-1.058-19.339-3.173-27.562C293.687,305.174,290.635,298.102,286.645,292.181z"/>
<path style="fill:#D26CBA;" d="M275.04,359.359c-0.967,5.75-2.448,10.732-4.442,14.966c-1.995,4.234-4.473,7.552-7.435,9.973
	c-2.962,2.422-6.438,3.628-10.427,3.628c-3.989,0-7.464-1.206-10.426-3.628c-2.962-2.421-5.44-5.738-7.435-9.973
	c-1.994-4.234-3.475-9.216-4.442-14.966c-0.967-5.738-1.451-11.871-1.451-18.4c0-6.527,0.484-12.661,1.451-18.41
	c0.967-5.738,2.448-10.687,4.442-14.87c1.995-4.171,4.473-7.456,7.435-9.878c2.962-2.421,6.438-3.626,10.426-3.626
	c3.869,0,7.283,1.206,10.245,3.626c2.962,2.422,5.44,5.707,7.435,9.878c1.995,4.182,3.506,9.131,4.533,14.87
	c1.027,5.749,1.542,11.883,1.542,18.41C276.491,347.488,276.007,353.621,275.04,359.359z"/>
<g>
</g>
<g>
</g>
<g>
</g>
<g>
</g>
<g>
</g>
<g>
</g>
<g>
</g>
<g>
</g>
<g>
</g>
<g>
</g>
<g>
</g>
<g>
</g>
<g>
</g>
<g>
</g>
<g>
</g>
</svg>
