<?xml version="1.0" encoding="iso-8859-1"?>
<!-- Generator: Adobe Illustrator 19.0.0, SVG Export Plug-In . SVG Version: 6.00 Build 0)  -->
<svg version="1.1" id="Layer_1" xmlns="http://www.w3.org/2000/svg" xmlns:xlink="http://www.w3.org/1999/xlink" x="0px" y="0px"
	 viewBox="0 0 512 512" style="enable-background:new 0 0 512 512;" xml:space="preserve">
<path style="fill:#314E55;" d="M511.87,234.022c-0.06-0.975-0.249-1.913-0.572-2.836c-0.119-0.34-0.205-0.676-0.355-0.999
	c-0.51-1.094-1.154-2.128-2.034-3.016c-0.016-0.017-0.025-0.038-0.041-0.055L448,166.25v-59.583c0-0.227-0.117-0.43-0.131-0.656
	c-0.059-0.95-0.242-1.866-0.551-2.767c-0.115-0.337-0.204-0.665-0.352-0.99c-0.519-1.134-1.175-2.212-2.091-3.129l-96-96
	c-0.914-0.914-1.988-1.568-3.119-2.086c-0.332-0.152-0.668-0.242-1.014-0.361c-0.888-0.302-1.789-0.482-2.725-0.543
	C341.781,0.12,341.57,0,341.333,0H74.667C68.771,0,64,4.776,64,10.667V166.25L3.132,227.117c-0.016,0.017-0.025,0.038-0.041,0.055
	c-0.879,0.888-1.523,1.922-2.033,3.016c-0.151,0.323-0.237,0.659-0.355,0.997c-0.322,0.922-0.512,1.861-0.572,2.836
	C0.116,234.246,0,234.438,0,234.667v202.667C0,443.224,4.771,448,10.667,448H64v53.333C64,507.224,68.771,512,74.667,512h362.667
	c5.896,0,10.667-4.776,10.667-10.667V448h53.333c5.896,0,10.667-4.776,10.667-10.667V234.667
	C512,234.438,511.884,234.247,511.87,234.022z"/>
<polygon style="fill:#EAEAEA;" points="475.583,224 448,224 448,196.417 "/>
<polygon style="fill:#D8D8D8;" points="411.583,96 352,96 352,36.417 "/>
<g>
	<path style="fill:#EAEAEA;" d="M85.333,21.333h245.333v85.333c0,5.891,4.771,10.667,10.667,10.667h85.333v53.333V224H85.333
		v-53.333V21.333z"/>
	<polygon style="fill:#EAEAEA;" points="64,196.417 64,224 36.417,224 	"/>
	<rect x="85.333" y="448" style="fill:#EAEAEA;" width="341.333" height="42.667"/>
</g>
<polygon style="fill:#EA86A5;" points="490.667,426.667 21.333,426.667 21.333,245.333 74.667,245.333 437.333,245.333 
	490.667,245.333 "/>
<path style="fill:#314E55;" d="M306.411,285.023c-3.445-2.965-7.345-5.056-11.696-6.261c-4.352-1.206-8.583-1.814-12.693-1.814
	H246.48v128.384h21.398v-51.499h15.232c4.473,0,8.824-0.789,13.056-2.357c4.231-1.569,7.978-3.99,11.243-7.254
	c3.264-3.264,5.893-7.339,7.888-12.234c1.994-4.907,2.991-10.613,2.991-17.142c0-7.253-1.118-13.301-3.354-18.133
	C312.697,291.883,309.856,287.979,306.411,285.023z"/>
<path style="fill:#EA86A5;" d="M292.72,330.72c-3.264,3.562-7.435,5.344-12.512,5.344h-12.33v-40.799h12.33
	c5.078,0,9.248,1.568,12.512,4.715c3.264,3.146,4.896,8.159,4.896,15.051C297.616,321.921,295.984,327.147,292.72,330.72z"/>
<g>
	<path style="fill:#314E55;" d="M383.024,338.239v-0.543c5.923-1.569,10.517-5.078,13.781-10.518
		c3.264-5.44,4.896-11.786,4.896-19.04c0-5.322-0.906-10.059-2.72-14.229c-1.813-4.181-4.291-7.711-7.434-10.613
		c-3.144-2.901-6.77-5.109-10.88-6.613c-4.11-1.514-8.523-2.272-13.238-2.272c-3.506,0-7.011,0.481-10.517,1.452
		c-3.506,0.97-6.83,2.474-9.973,4.533c-3.144,2.059-5.984,4.715-8.523,7.979c-2.538,3.263-4.533,7.135-5.984,11.606l18.858,5.258
		c1.331-3.509,3.204-6.41,5.622-8.703c2.418-2.294,5.379-3.445,8.885-3.445c2.659,0,4.956,0.543,6.891,1.631
		c1.934,1.089,3.506,2.475,4.714,4.171c1.209,1.697,2.086,3.595,2.63,5.717c0.544,2.112,0.817,4.191,0.817,6.25
		c0,6.165-1.602,10.966-4.805,14.422c-3.204,3.445-7.525,5.163-12.966,5.163h-5.984v16.865h5.44c6.165,0,11.182,1.749,15.051,5.258
		c3.869,3.509,5.803,8.705,5.803,15.595c0,2.539-0.333,5.046-0.997,7.53c-0.665,2.475-1.723,4.705-3.173,6.71
		c-1.45,1.995-3.264,3.595-5.44,4.801c-2.176,1.205-4.775,1.813-7.798,1.813c-4.714,0-8.552-1.418-11.514-4.255
		c-2.962-2.849-5.107-6.56-6.438-11.158l-19.221,5.077c2.418,9.674,6.951,16.949,13.6,21.857c6.648,4.896,14.808,7.339,24.48,7.339
		c5.561,0,10.669-0.939,15.322-2.806c4.654-1.878,8.614-4.533,11.878-7.978c3.264-3.457,5.803-7.564,7.616-12.331
		c1.814-4.779,2.72-10.005,2.72-15.691c0-7.616-1.934-14.229-5.803-19.85C394.75,343.585,389.552,339.936,383.024,338.239z"/>
	<polygon style="fill:#314E55;" points="165.786,370.88 165.061,370.88 140.4,276.949 111.205,276.949 111.205,405.333 
		130.971,405.333 130.608,306.687 131.152,306.687 156.357,405.333 173.402,405.333 199.152,306.687 199.696,306.687 
		199.333,405.333 220.55,405.333 220.55,276.949 189.904,276.949 	"/>
</g>
<g>
</g>
<g>
</g>
<g>
</g>
<g>
</g>
<g>
</g>
<g>
</g>
<g>
</g>
<g>
</g>
<g>
</g>
<g>
</g>
<g>
</g>
<g>
</g>
<g>
</g>
<g>
</g>
<g>
</g>
</svg>
