<?xml version="1.0" encoding="iso-8859-1"?>
<!-- Generator: Adobe Illustrator 19.0.0, SVG Export Plug-In . SVG Version: 6.00 Build 0)  -->
<svg version="1.1" id="Layer_1" xmlns="http://www.w3.org/2000/svg" xmlns:xlink="http://www.w3.org/1999/xlink" x="0px" y="0px"
	 viewBox="0 0 512 512" style="enable-background:new 0 0 512 512;" xml:space="preserve">
<path style="fill:#314E55;" d="M441.543,97.33L346.929,2.825C345.118,1.014,342.665,0,340.104,0H77.283
	c-5.335,0-9.66,4.325-9.66,9.66V502.34c0,5.335,4.325,9.66,9.66,9.66h357.434c5.335,0,9.66-4.325,9.66-9.66V104.165
	C444.377,101.599,443.358,99.142,441.543,97.33z"/>
<g>
	<polygon style="fill:#E9E7D1;" points="411.396,96.604 347.774,96.604 347.774,32.981 	"/>
	<path style="fill:#E9E7D1;" d="M86.943,492.679V19.321h241.509v86.943c0,5.335,4.325,9.66,9.66,9.66h86.943v376.755H86.943z"/>
</g>
<g>
</g>
<g>
</g>
<g>
</g>
<g>
</g>
<g>
</g>
<g>
</g>
<g>
</g>
<g>
</g>
<g>
</g>
<g>
</g>
<g>
</g>
<g>
</g>
<g>
</g>
<g>
</g>
<g>
</g>
</svg>
