<?xml version="1.0" encoding="iso-8859-1"?>
<!-- Generator: Adobe Illustrator 19.0.0, SVG Export Plug-In . SVG Version: 6.00 Build 0)  -->
<svg version="1.1" id="Layer_1" xmlns="http://www.w3.org/2000/svg" xmlns:xlink="http://www.w3.org/1999/xlink" x="0px" y="0px"
	 viewBox="0 0 512 512" style="enable-background:new 0 0 512 512;" xml:space="preserve">
<path style="fill:#314E55;" d="M511.867,234.008c-0.061-0.969-0.25-1.901-0.57-2.818c-0.119-0.341-0.205-0.677-0.357-1.003
	c-0.514-1.104-1.162-2.151-2.053-3.046c-0.006-0.006-0.01-0.014-0.01-0.014L448,166.25v-59.583c0-0.232-0.118-0.44-0.133-0.672
	c-0.06-0.941-0.242-1.846-0.546-2.741c-0.117-0.342-0.206-0.676-0.357-1.005c-0.519-1.133-1.173-2.21-2.088-3.124l-96-96
	c-0.919-0.919-1.998-1.575-3.135-2.095c-0.318-0.146-0.639-0.233-0.97-0.345c-0.912-0.315-1.839-0.5-2.802-0.559
	C341.75,0.112,341.553,0,341.333,0H74.667C68.776,0,64,4.776,64,10.667V166.25L3.128,227.122c0,0-0.009,0.013-0.016,0.019
	c-0.891,0.894-1.539,1.941-2.053,3.046c-0.152,0.326-0.238,0.661-0.357,1.003c-0.32,0.917-0.509,1.849-0.57,2.818
	C0.118,234.238,0,234.432,0,234.667v202.667C0,443.224,4.776,448,10.667,448H64v53.333C64,507.224,68.776,512,74.667,512h362.667
	c5.891,0,10.667-4.776,10.667-10.667V448h53.333c5.891,0,10.667-4.776,10.667-10.667V234.667
	C512,234.432,511.882,234.238,511.867,234.008z"/>
<polygon style="fill:#EAEAEA;" points="475.583,224 448,224 448,196.417 "/>
<polygon style="fill:#D8D8D8;" points="411.583,96 352,96 352,36.417 "/>
<g>
	<path style="fill:#EAEAEA;" d="M85.333,21.333h245.333v85.333c0,5.891,4.776,10.667,10.667,10.667h85.333v53.333V224H85.333
		v-53.333V21.333z"/>
	<polygon style="fill:#EAEAEA;" points="64,196.417 64,224 36.417,224 	"/>
	<rect x="85.333" y="448" style="fill:#EAEAEA;" width="341.333" height="42.667"/>
</g>
<polygon style="fill:#E9E7D1;" points="490.667,426.667 21.333,426.667 21.333,245.333 74.667,245.333 437.333,245.333 
	490.667,245.333 "/>
<g>
	<polygon style="fill:#314E55;" points="234.24,295.445 258.357,295.445 258.357,405.333 279.755,405.333 279.755,295.445 
		303.872,295.445 303.872,276.949 234.24,276.949 	"/>
	<polygon style="fill:#314E55;" points="316.565,405.333 338.506,405.333 338.506,350.208 371.328,350.208 371.328,331.531 
		338.326,331.531 338.326,296.534 374.048,296.534 374.048,276.949 316.565,276.949 	"/>
	<path style="fill:#314E55;" d="M220.459,292.181c-3.99-5.919-8.855-10.484-14.598-13.695c-5.742-3.201-12.179-4.801-19.312-4.801
		c-7.253,0-13.751,1.6-19.494,4.801c-5.742,3.211-10.608,7.776-14.597,13.695c-3.99,5.921-7.012,12.992-9.067,21.216
		s-3.083,17.407-3.083,27.562s1.059,19.371,3.174,27.649c2.115,8.288,5.168,15.392,9.157,21.313
		c3.99,5.919,8.825,10.517,14.506,13.781c5.682,3.263,12.15,4.896,19.403,4.896c7.133,0,13.57-1.633,19.312-4.896
		c5.742-3.264,10.608-7.862,14.598-13.781c3.989-5.921,7.042-13.025,9.157-21.313c2.115-8.277,3.174-17.494,3.174-27.649
		s-1.059-19.339-3.174-27.562C227.5,305.174,224.448,298.102,220.459,292.181z"/>
</g>
<path style="fill:#E9E7D1;" d="M208.854,359.359c-0.967,5.75-2.448,10.732-4.443,14.966c-1.995,4.234-4.473,7.552-7.435,9.973
	c-2.962,2.422-6.437,3.628-10.426,3.628s-7.465-1.206-10.426-3.628c-2.962-2.421-5.44-5.738-7.435-9.973s-3.475-9.216-4.443-14.966
	c-0.967-5.738-1.45-11.871-1.45-18.4c0-6.527,0.483-12.661,1.45-18.41c0.967-5.738,2.448-10.687,4.443-14.87
	c1.995-4.171,4.473-7.456,7.435-9.878c2.962-2.421,6.437-3.626,10.426-3.626c3.869,0,7.283,1.206,10.245,3.626
	c2.962,2.422,5.44,5.707,7.434,9.878c1.995,4.182,3.506,9.131,4.534,14.87c1.027,5.749,1.541,11.883,1.541,18.41
	C210.304,347.488,209.821,353.621,208.854,359.359z"/>
<g>
</g>
<g>
</g>
<g>
</g>
<g>
</g>
<g>
</g>
<g>
</g>
<g>
</g>
<g>
</g>
<g>
</g>
<g>
</g>
<g>
</g>
<g>
</g>
<g>
</g>
<g>
</g>
<g>
</g>
</svg>
