<?xml version="1.0" encoding="iso-8859-1"?>
<!-- Generator: Adobe Illustrator 19.0.0, SVG Export Plug-In . SVG Version: 6.00 Build 0)  -->
<svg version="1.1" id="Layer_1" xmlns="http://www.w3.org/2000/svg" xmlns:xlink="http://www.w3.org/1999/xlink" x="0px" y="0px"
	 viewBox="0 0 512 512" style="enable-background:new 0 0 512 512;" xml:space="preserve">
<path style="fill:#314E55;" d="M511.87,234.022c-0.06-0.975-0.249-1.913-0.572-2.836c-0.119-0.34-0.205-0.676-0.355-0.999
	c-0.51-1.094-1.154-2.128-2.034-3.016c-0.016-0.017-0.025-0.038-0.041-0.055L448,166.25v-59.583c0-0.227-0.117-0.43-0.131-0.656
	c-0.059-0.95-0.242-1.866-0.551-2.767c-0.115-0.337-0.204-0.665-0.352-0.99c-0.519-1.134-1.175-2.212-2.091-3.129l-96-96
	c-0.914-0.914-1.988-1.568-3.119-2.086c-0.332-0.152-0.668-0.242-1.014-0.361c-0.888-0.302-1.789-0.482-2.725-0.543
	C341.781,0.12,341.57,0,341.333,0H74.667C68.771,0,64,4.776,64,10.667V166.25L3.132,227.117c-0.016,0.017-0.025,0.038-0.041,0.055
	c-0.879,0.888-1.523,1.922-2.033,3.016c-0.151,0.323-0.237,0.659-0.355,0.997c-0.322,0.922-0.512,1.861-0.572,2.836
	C0.116,234.246,0,234.438,0,234.667v202.667C0,443.224,4.771,448,10.667,448H64v53.333C64,507.224,68.771,512,74.667,512h362.667
	c5.896,0,10.667-4.776,10.667-10.667V448h53.333c5.896,0,10.667-4.776,10.667-10.667V234.667
	C512,234.438,511.884,234.247,511.87,234.022z"/>
<polygon style="fill:#EAEAEA;" points="475.583,224 448,224 448,196.417 "/>
<polygon style="fill:#D8D8D8;" points="411.583,96 352,96 352,36.417 "/>
<g>
	<path style="fill:#EAEAEA;" d="M85.333,21.333h245.333v85.333c0,5.891,4.771,10.667,10.667,10.667h85.333v53.333V224H85.333
		v-53.333V21.333z"/>
	<polygon style="fill:#EAEAEA;" points="64,196.417 64,224 36.417,224 	"/>
	<rect x="85.333" y="448" style="fill:#EAEAEA;" width="341.333" height="42.667"/>
	<polygon style="fill:#EAEAEA;" points="490.667,426.667 21.333,426.667 21.333,245.333 74.667,245.333 437.333,245.333 
		490.667,245.333 	"/>
</g>
<g>
	<polygon style="fill:#314E55;" points="275.221,328.992 236.779,328.992 236.779,276.949 215.2,276.949 215.2,405.333 
		236.779,405.333 236.779,348.394 275.221,348.394 275.221,405.333 296.8,405.333 296.8,276.949 275.221,276.949 	"/>
	<path style="fill:#314E55;" d="M185.37,285.013c-3.445-2.954-7.344-5.046-11.696-6.25c-4.351-1.206-8.583-1.814-12.693-1.814
		H125.44v128.384h21.397v-51.499h15.232c4.473,0,8.825-0.789,13.057-2.357c4.231-1.569,7.978-3.99,11.242-7.254
		c3.264-3.264,5.893-7.339,7.888-12.245c1.995-4.897,2.992-10.603,2.992-17.131c0-7.253-1.118-13.301-3.355-18.133
		C191.656,291.883,188.816,287.979,185.37,285.013z"/>
</g>
<path style="fill:#E4AD40;" d="M171.68,330.72c-3.264,3.562-7.434,5.344-12.512,5.344h-12.331v-40.799h12.331
	c5.078,0,9.248,1.568,12.512,4.715c3.264,3.146,4.897,8.159,4.897,15.051C176.576,321.921,174.944,327.147,171.68,330.72z"/>
<path style="fill:#314E55;" d="M382.842,285.013c-3.445-2.954-7.344-5.046-11.696-6.25c-4.352-1.206-8.583-1.814-12.693-1.814
	h-35.541v128.384h21.397v-51.499h15.232c4.473,0,8.825-0.789,13.057-2.357c4.231-1.569,7.978-3.99,11.242-7.254
	c3.264-3.264,5.893-7.339,7.888-12.245c1.995-4.897,2.992-10.603,2.992-17.131c0-7.253-1.118-13.301-3.355-18.133
	C389.128,291.883,386.288,287.979,382.842,285.013z"/>
<path style="fill:#E4AD40;" d="M369.152,330.72c-3.264,3.562-7.434,5.344-12.512,5.344h-12.331v-40.799h12.331
	c5.078,0,9.248,1.568,12.512,4.715c3.264,3.146,4.897,8.159,4.897,15.051C374.048,321.921,372.416,327.147,369.152,330.72z"/>
<g>
</g>
<g>
</g>
<g>
</g>
<g>
</g>
<g>
</g>
<g>
</g>
<g>
</g>
<g>
</g>
<g>
</g>
<g>
</g>
<g>
</g>
<g>
</g>
<g>
</g>
<g>
</g>
<g>
</g>
</svg>
