<?xml version="1.0" encoding="iso-8859-1"?>
<!-- Generator: Adobe Illustrator 19.0.0, SVG Export Plug-In . SVG Version: 6.00 Build 0)  -->
<svg version="1.1" id="Layer_1" xmlns="http://www.w3.org/2000/svg" xmlns:xlink="http://www.w3.org/1999/xlink" x="0px" y="0px"
	 viewBox="0 0 512 512" style="enable-background:new 0 0 512 512;" xml:space="preserve">
<path style="fill:#314E55;" d="M441.543,97.321l-94.613-94.5C345.118,1.019,342.665,0,340.104,0H77.283
	c-5.335,0-9.66,4.321-9.66,9.66V502.34c0,5.34,4.325,9.66,9.66,9.66h357.434c5.335,0,9.66-4.321,9.66-9.66V104.16
	C444.377,101.594,443.358,99.142,441.543,97.321z"/>
<g>
	<polygon style="fill:#FFFFFF;" points="411.396,96.604 347.774,96.604 347.774,32.981 	"/>
	<path style="fill:#FFFFFF;" d="M86.943,492.679V19.321h241.509v86.943c0,5.34,4.325,9.66,9.66,9.66h86.943v376.755H86.943z"/>
</g>
<path style="fill:#314E55;" d="M256,154.566c-71.91,0-130.415,58.5-130.415,130.415S184.09,415.396,256,415.396
	s130.415-58.5,130.415-130.415S327.91,154.566,256,154.566z"/>
<path style="fill:#F28544;" d="M256,396.075c-61.259,0-111.094-49.84-111.094-111.094S194.741,173.887,256,173.887
	s111.094,49.84,111.094,111.094S317.259,396.075,256,396.075z"/>
<path style="fill:#314E55;" d="M297.538,230.302c-4.132-2.849-9.255-4.793-15.368-5.811c-4.359-0.792-10.67-1.189-18.934-1.189
	h-46.953v124.472h16.472V297.17h31.925c17.604,0,29.774-3.66,36.509-11c6.736-7.321,10.104-16.283,10.104-26.868
	c0-6.17-1.259-11.83-3.778-16.981C304.995,237.17,301.67,233.17,297.538,230.302z"/>
<path style="fill:#F28544;" d="M287.604,276.538c-4.472,3.962-12.028,5.943-22.67,5.943h-32.179v-44.49h31.84
	c7.472,0,12.594,0.368,15.368,1.104c4.302,1.189,7.769,3.641,10.401,7.34c2.632,3.717,3.948,8.17,3.948,13.377
	C294.311,267,292.075,272.576,287.604,276.538z"/>
<g>
</g>
<g>
</g>
<g>
</g>
<g>
</g>
<g>
</g>
<g>
</g>
<g>
</g>
<g>
</g>
<g>
</g>
<g>
</g>
<g>
</g>
<g>
</g>
<g>
</g>
<g>
</g>
<g>
</g>
</svg>
