<?xml version="1.0" encoding="iso-8859-1"?>
<!-- Generator: Adobe Illustrator 19.0.0, SVG Export Plug-In . SVG Version: 6.00 Build 0)  -->
<svg version="1.1" id="Layer_1" xmlns="http://www.w3.org/2000/svg" xmlns:xlink="http://www.w3.org/1999/xlink" x="0px" y="0px"
	 viewBox="0 0 512 512" style="enable-background:new 0 0 512 512;" xml:space="preserve">
<path style="fill:#314E55;" d="M511.867,234.008c-0.061-0.969-0.25-1.901-0.57-2.818c-0.119-0.341-0.205-0.677-0.357-1.003
	c-0.514-1.104-1.162-2.151-2.053-3.046c-0.006-0.006-0.01-0.014-0.01-0.014L448,166.25v-59.583c0-0.232-0.118-0.44-0.133-0.672
	c-0.06-0.941-0.242-1.846-0.546-2.741c-0.117-0.342-0.206-0.676-0.357-1.005c-0.519-1.133-1.173-2.21-2.088-3.124l-96-96
	c-0.919-0.919-1.999-1.575-3.136-2.096c-0.318-0.146-0.639-0.232-0.969-0.344c-0.911-0.315-1.837-0.499-2.798-0.557
	C341.753,0.115,341.555,0,341.333,0H74.667C68.776,0,64,4.776,64,10.667V166.25L3.128,227.122c0,0-0.009,0.013-0.016,0.019
	c-0.891,0.894-1.539,1.941-2.053,3.046c-0.152,0.326-0.238,0.661-0.357,1.003c-0.32,0.917-0.509,1.849-0.57,2.818
	C0.118,234.238,0,234.432,0,234.667v202.667C0,443.224,4.776,448,10.667,448H64v53.333C64,507.224,68.776,512,74.667,512h362.667
	c5.891,0,10.667-4.776,10.667-10.667V448h53.333c5.891,0,10.667-4.776,10.667-10.667V234.667
	C512,234.432,511.882,234.238,511.867,234.008z"/>
<polygon style="fill:#EAEAEA;" points="475.583,224 448,224 448,196.417 "/>
<polygon style="fill:#D8D8D8;" points="411.583,96 352,96 352,36.417 "/>
<g>
	<path style="fill:#EAEAEA;" d="M85.333,21.333h245.333v85.333c0,5.891,4.776,10.667,10.667,10.667h85.333v53.333V224H85.333
		v-53.333V21.333z"/>
	<polygon style="fill:#EAEAEA;" points="64,196.417 64,224 36.417,224 	"/>
	<rect x="85.333" y="448" style="fill:#EAEAEA;" width="341.333" height="42.667"/>
</g>
<polygon style="fill:#81A4E3;" points="490.667,426.667 21.333,426.667 21.333,245.333 74.667,245.333 437.333,245.333 
	490.667,245.333 "/>
<g>
	<path style="fill:#314E55;" d="M294.624,297.44c1.571-1.45,3.325-2.506,5.258-3.178c1.934-0.661,3.928-0.992,5.984-0.992
		c7.133,0,13.056,2.837,17.771,8.522l11.968-15.594c-3.506-4.107-7.827-7.221-12.966-9.345c-5.138-2.112-10.971-3.168-17.499-3.168
		c-4.472,0-8.885,0.758-13.237,2.262c-4.352,1.514-8.251,3.84-11.696,6.987c-3.445,3.146-6.227,7.104-8.342,11.871
		c-2.115,4.78-3.173,10.496-3.173,17.142c0,5.323,0.695,9.878,2.085,13.685c1.39,3.819,3.264,7.137,5.622,9.974
		c2.357,2.848,5.077,5.29,8.159,7.349c3.083,2.059,6.377,3.926,9.883,5.621c5.561,2.784,10.155,5.803,13.781,9.068
		c3.627,3.263,5.44,7.68,5.44,13.237c0,5.685-1.511,10.09-4.533,13.237c-3.022,3.147-6.83,4.715-11.424,4.715
		c-4.11,0-8.13-0.97-12.059-2.901c-3.929-1.931-7.283-4.597-10.064-7.979l-11.786,15.957c3.627,4.236,8.462,7.734,14.506,10.518
		s12.633,4.171,19.766,4.171c4.956,0,9.671-0.842,14.144-2.539c4.473-1.695,8.371-4.203,11.696-7.53
		c3.325-3.318,5.984-7.404,7.978-12.236c1.995-4.832,2.992-10.4,2.992-16.682c0-5.44-0.846-10.155-2.538-14.145
		c-1.693-3.988-3.869-7.434-6.528-10.336c-2.659-2.901-5.622-5.375-8.885-7.434c-3.264-2.06-6.467-3.872-9.611-5.44
		c-5.32-2.656-9.611-5.473-12.875-8.438c-3.264-2.954-4.896-7.158-4.896-12.598c0-3.147,0.453-5.867,1.36-8.16
		C291.814,300.768,293.053,298.891,294.624,297.44z"/>
	<path style="fill:#314E55;" d="M243.398,285.013c-3.445-2.954-7.345-5.046-11.697-6.25c-4.351-1.206-8.583-1.814-12.693-1.814
		h-35.542v128.384h21.397v-51.499h15.233c4.473,0,8.824-0.789,13.056-2.357c4.231-1.569,7.978-3.99,11.242-7.254
		c3.264-3.264,5.894-7.339,7.888-12.245c1.995-4.897,2.992-10.603,2.992-17.131c0-7.253-1.118-13.301-3.355-18.133
		C249.683,291.883,246.843,287.979,243.398,285.013z"/>
</g>
<path style="fill:#81A4E3;" d="M229.707,330.71c-3.264,3.573-7.435,5.354-12.512,5.354h-12.331v-40.799h12.331
	c5.078,0,9.248,1.568,12.512,4.715c3.264,3.146,4.896,8.159,4.896,15.051C234.603,321.921,232.971,327.147,229.707,330.71z"/>
<g>
</g>
<g>
</g>
<g>
</g>
<g>
</g>
<g>
</g>
<g>
</g>
<g>
</g>
<g>
</g>
<g>
</g>
<g>
</g>
<g>
</g>
<g>
</g>
<g>
</g>
<g>
</g>
<g>
</g>
</svg>
