<?xml version="1.0" encoding="iso-8859-1"?>
<!-- Generator: Adobe Illustrator 19.0.0, SVG Export Plug-In . SVG Version: 6.00 Build 0)  -->
<svg version="1.1" id="Layer_1" xmlns="http://www.w3.org/2000/svg" xmlns:xlink="http://www.w3.org/1999/xlink" x="0px" y="0px"
	 viewBox="0 0 512 512" style="enable-background:new 0 0 512 512;" xml:space="preserve">
<path style="fill:#314E55;" d="M511.867,234.008c-0.061-0.969-0.25-1.901-0.57-2.818c-0.119-0.341-0.205-0.677-0.357-1.003
	c-0.514-1.104-1.162-2.151-2.053-3.046c-0.006-0.006-0.01-0.014-0.01-0.014L448,166.25v-59.583c0-0.232-0.118-0.44-0.133-0.672
	c-0.06-0.941-0.242-1.846-0.546-2.741c-0.117-0.342-0.206-0.676-0.357-1.005c-0.519-1.133-1.173-2.21-2.088-3.124l-96-96
	c-0.919-0.922-2.001-1.577-3.138-2.096c-0.316-0.146-0.634-0.23-0.963-0.344c-0.913-0.315-1.839-0.5-2.802-0.557
	C341.753,0.113,341.555,0,341.333,0H74.667C68.776,0,64,4.776,64,10.667V166.25L3.128,227.122c0,0-0.009,0.013-0.016,0.019
	c-0.891,0.894-1.539,1.941-2.053,3.046c-0.152,0.326-0.238,0.661-0.357,1.003c-0.32,0.917-0.509,1.849-0.57,2.818
	C0.118,234.238,0,234.432,0,234.667v202.667C0,443.224,4.776,448,10.667,448H64v53.333C64,507.224,68.776,512,74.667,512h362.667
	c5.891,0,10.667-4.776,10.667-10.667V448h53.333c5.891,0,10.667-4.776,10.667-10.667V234.667
	C512,234.432,511.882,234.238,511.867,234.008z"/>
<polygon style="fill:#EAEAEA;" points="475.583,224 448,224 448,196.417 "/>
<polygon style="fill:#D8D8D8;" points="411.583,96 352,96 352,36.417 "/>
<g>
	<path style="fill:#EAEAEA;" d="M85.333,21.333h245.333v85.333c0,5.891,4.776,10.667,10.667,10.667h85.333v53.333V224H85.333
		v-53.333V21.333z"/>
	<polygon style="fill:#EAEAEA;" points="64,196.417 64,224 36.417,224 	"/>
	<rect x="85.333" y="448" style="fill:#EAEAEA;" width="341.333" height="42.667"/>
</g>
<polygon style="fill:#81A4E3;" points="490.667,426.667 21.333,426.667 21.333,245.333 74.667,245.333 437.333,245.333 
	490.667,245.333 "/>
<g>
	<path style="fill:#314E55;" d="M243.034,300.448c1.572-1.418,3.325-2.443,5.259-3.094c1.934-0.639,3.928-0.97,5.984-0.97
		c7.133,0,13.056,2.763,17.771,8.298l11.968-15.178c-3.506-4-7.827-7.029-12.966-9.089c-5.138-2.058-10.971-3.082-17.499-3.082
		c-4.473,0-8.886,0.736-13.238,2.208c-4.351,1.471-8.251,3.733-11.696,6.794c-3.445,3.051-6.226,6.901-8.341,11.552
		c-2.115,4.651-3.173,10.208-3.173,16.672c0,5.173,0.695,9.611,2.085,13.323c1.39,3.702,3.264,6.934,5.621,9.707
		c2.357,2.762,5.078,5.141,8.16,7.135c3.083,2.005,6.376,3.829,9.883,5.473c5.561,2.708,10.154,5.642,13.781,8.82
		c3.627,3.18,5.44,7.467,5.44,12.885c0,5.526-1.512,9.814-4.533,12.875c-3.022,3.061-6.83,4.587-11.425,4.587
		c-4.109,0-8.13-0.939-12.059-2.827c-3.928-1.878-7.283-4.47-10.064-7.755l-11.786,15.519c3.626,4.118,8.462,7.531,14.506,10.241
		c6.045,2.698,12.632,4.053,19.765,4.053c4.957,0,9.672-0.822,14.145-2.475c4.472-1.642,8.371-4.085,11.696-7.318
		c3.325-3.232,5.984-7.199,7.978-11.904c1.995-4.715,2.992-10.122,2.992-16.234c0-5.29-0.846-9.878-2.539-13.761
		c-1.693-3.883-3.869-7.232-6.528-10.059c-2.659-2.827-5.621-5.237-8.885-7.232c-3.264-2.005-6.467-3.766-9.611-5.29
		c-5.319-2.593-9.611-5.323-12.874-8.214c-3.264-2.88-4.896-6.965-4.896-12.257c0-3.061,0.453-5.706,1.36-7.935
		C240.224,303.68,241.463,301.855,243.034,300.448z"/>
	<path style="fill:#314E55;" d="M335.333,280.512h-32.277v124.907h32.096c16.562,0,29.103-5.44,37.626-16.32
		c8.523-10.88,12.784-26.198,12.784-45.952c0-19.766-4.261-35.147-12.784-46.145S351.774,280.512,335.333,280.512z"/>
</g>
<path style="fill:#81A4E3;" d="M361.717,362.283c-1.39,5.473-3.355,10.027-5.893,13.674c-2.539,3.648-5.561,6.379-9.067,8.203
	c-3.506,1.824-7.314,2.741-11.424,2.741h-10.336V299.03h10.336c4.11,0,7.918,0.917,11.424,2.741
	c3.506,1.824,6.528,4.555,9.067,8.203c2.538,3.647,4.503,8.234,5.893,13.759c1.39,5.526,2.085,12,2.085,19.414
	C363.803,350.432,363.107,356.811,361.717,362.283z"/>
<path style="fill:#314E55;" d="M191.808,288.363c-3.445-2.88-7.344-4.918-11.696-6.091c-4.352-1.173-8.583-1.761-12.693-1.761
	h-35.541v124.907h21.397v-50.102h15.232c4.473,0,8.825-0.768,13.056-2.294c4.232-1.535,7.979-3.882,11.243-7.061
	c3.264-3.178,5.893-7.146,7.888-11.904c1.995-4.768,2.992-10.326,2.992-16.672c0-7.061-1.118-12.939-3.355-17.643
	C198.094,295.04,195.253,291.242,191.808,288.363z"/>
<path style="fill:#81A4E3;" d="M178.117,332.822c-3.264,3.466-7.434,5.205-12.512,5.205h-12.331v-39.701h12.331
	c5.078,0,9.248,1.537,12.512,4.586c3.264,3.062,4.897,7.947,4.897,14.646C183.014,324.267,181.382,329.354,178.117,332.822z"/>
<g>
</g>
<g>
</g>
<g>
</g>
<g>
</g>
<g>
</g>
<g>
</g>
<g>
</g>
<g>
</g>
<g>
</g>
<g>
</g>
<g>
</g>
<g>
</g>
<g>
</g>
<g>
</g>
<g>
</g>
</svg>
