<?xml version="1.0" encoding="iso-8859-1"?>
<!-- Generator: Adobe Illustrator 19.0.0, SVG Export Plug-In . SVG Version: 6.00 Build 0)  -->
<svg version="1.1" id="Layer_1" xmlns="http://www.w3.org/2000/svg" xmlns:xlink="http://www.w3.org/1999/xlink" x="0px" y="0px"
	 viewBox="0 0 512 512" style="enable-background:new 0 0 512 512;" xml:space="preserve">
<path style="fill:#314E55;" d="M441.543,97.321l-94.613-94.5C345.118,1.019,342.665,0,340.104,0H77.283
	c-5.335,0-9.66,4.321-9.66,9.66V502.34c0,5.34,4.325,9.66,9.66,9.66h357.434c5.335,0,9.66-4.321,9.66-9.66V104.16
	C444.377,101.594,443.358,99.142,441.543,97.321z"/>
<g>
	<polygon style="fill:#FFFFFF;" points="411.396,96.604 347.774,96.604 347.774,32.981 	"/>
	<path style="fill:#FFFFFF;" d="M86.943,492.679V19.321h241.509v86.943c0,5.34,4.325,9.66,9.66,9.66h86.943v376.755H86.943z"/>
</g>
<path style="fill:#314E55;" d="M256,154.566c-71.91,0-130.415,58.5-130.415,130.415S184.09,415.396,256,415.396
	s130.415-58.5,130.415-130.415S327.91,154.566,256,154.566z"/>
<path style="fill:#E4AD40;" d="M256,396.075c-61.259,0-111.094-49.84-111.094-111.094S194.741,173.887,256,173.887
	s111.094,49.84,111.094,111.094S317.259,396.075,256,396.075z"/>
<path style="fill:#314E55;" d="M281.255,297.34c-2.264-2.038-5.575-4.104-9.934-6.198c11.943-1.642,20.774-5.49,26.491-11.547
	c5.717-6.057,8.576-13.5,8.576-22.33c0-6.849-1.726-13.104-5.179-18.764c-3.453-5.66-8.066-9.604-13.84-11.84
	c-5.774-2.236-14.207-3.358-25.302-3.358h-55.189v124.471h16.472V292.5h19.104c4.245,0,7.302,0.198,9.17,0.594
	c2.547,0.623,5.052,1.726,7.514,3.311c2.462,1.585,5.25,4.359,8.363,8.321c3.113,3.962,7.076,9.679,11.887,17.151l16.471,25.896
	h20.717l-21.651-33.877C290.623,307.274,286.066,301.755,281.255,297.34z"/>
<path style="fill:#E4AD40;" d="M258.755,278.236h-35.406v-41.179h39.396c9.226,0,15.976,1.896,20.25,5.689
	c4.274,3.792,6.41,8.632,6.41,14.519c0,4.019-1.104,7.745-3.311,11.17c-2.208,3.425-5.434,5.915-9.679,7.472
	C272.17,277.462,266.283,278.236,258.755,278.236z"/>
<g>
</g>
<g>
</g>
<g>
</g>
<g>
</g>
<g>
</g>
<g>
</g>
<g>
</g>
<g>
</g>
<g>
</g>
<g>
</g>
<g>
</g>
<g>
</g>
<g>
</g>
<g>
</g>
<g>
</g>
</svg>
