<?xml version="1.0" encoding="iso-8859-1"?>
<!-- Generator: Adobe Illustrator 19.0.0, SVG Export Plug-In . SVG Version: 6.00 Build 0)  -->
<svg version="1.1" id="Layer_1" xmlns="http://www.w3.org/2000/svg" xmlns:xlink="http://www.w3.org/1999/xlink" x="0px" y="0px"
	 viewBox="0 0 512 512" style="enable-background:new 0 0 512 512;" xml:space="preserve">
<path style="fill:#314E55;" d="M511.87,234.022c-0.06-0.975-0.249-1.913-0.572-2.836c-0.119-0.34-0.205-0.676-0.355-0.999
	c-0.51-1.094-1.154-2.128-2.034-3.016c-0.016-0.017-0.025-0.038-0.041-0.055L448,166.25v-59.583c0-0.227-0.117-0.43-0.131-0.656
	c-0.059-0.95-0.242-1.866-0.551-2.767c-0.115-0.337-0.204-0.665-0.352-0.99c-0.519-1.134-1.175-2.212-2.091-3.129l-96-96
	c-0.911-0.909-1.981-1.561-3.107-2.078c-0.346-0.159-0.695-0.253-1.056-0.375c-0.867-0.292-1.745-0.466-2.658-0.529
	C341.807,0.125,341.583,0,341.333,0H74.667C68.771,0,64,4.776,64,10.667V166.25L3.132,227.117c-0.016,0.017-0.025,0.038-0.041,0.055
	c-0.879,0.888-1.523,1.922-2.033,3.016c-0.151,0.323-0.237,0.659-0.355,0.997c-0.322,0.922-0.512,1.861-0.572,2.836
	C0.116,234.246,0,234.438,0,234.667v202.667C0,443.224,4.771,448,10.667,448H64v53.333C64,507.224,68.771,512,74.667,512h362.667
	c5.896,0,10.667-4.776,10.667-10.667V448h53.333c5.896,0,10.667-4.776,10.667-10.667V234.667
	C512,234.438,511.884,234.247,511.87,234.022z"/>
<polygon style="fill:#EAEAEA;" points="475.583,224 448,224 448,196.417 "/>
<polygon style="fill:#D8D8D8;" points="411.583,96 352,96 352,36.417 "/>
<g>
	<path style="fill:#EAEAEA;" d="M85.333,21.333h245.333v85.333c0,5.891,4.771,10.667,10.667,10.667h85.333v53.333V224H85.333
		v-53.333V21.333z"/>
	<polygon style="fill:#EAEAEA;" points="64,196.417 64,224 36.417,224 	"/>
	<rect x="85.333" y="448" style="fill:#EAEAEA;" width="341.333" height="42.667"/>
</g>
<polygon style="fill:#E9E7D1;" points="490.667,426.667 21.333,426.667 21.333,245.333 74.667,245.333 437.333,245.333 
	490.667,245.333 "/>
<path style="fill:#314E55;" d="M210.757,342.858c2.357-1.631,4.504-3.776,6.438-6.431c1.934-2.656,3.536-5.888,4.805-9.707
	c1.27-3.809,1.905-8.181,1.905-13.142c0-6.41-0.907-11.904-2.72-16.501c-1.814-4.596-4.322-8.405-7.525-11.423
	c-3.203-3.019-7.042-5.227-11.515-6.624c-4.473-1.387-9.369-2.081-14.688-2.081h-36.629v128.384h21.034V350.57h12.149l19.947,54.763
	h22.848l-23.029-59.115C206.072,345.611,208.4,344.501,210.757,342.858z"/>
<path style="fill:#E9E7D1;" d="M197.339,329.621c-3.445,3.328-7.827,4.992-13.146,4.992h-12.331v-39.531h12.331
	c2.176,0,4.352,0.299,6.528,0.907c2.176,0.608,4.141,1.631,5.893,3.082c1.753,1.451,3.173,3.445,4.261,5.984
	c1.089,2.539,1.632,5.738,1.632,9.611C202.506,321.313,200.784,326.303,197.339,329.621z"/>
<g>
	<polygon style="fill:#314E55;" points="229.344,295.445 253.462,295.445 253.462,405.333 274.859,405.333 274.859,295.445 
		298.976,295.445 298.976,276.949 229.344,276.949 	"/>
	<polygon style="fill:#314E55;" points="311.669,405.333 333.611,405.333 333.611,350.208 366.432,350.208 366.432,331.531 
		333.429,331.531 333.429,296.534 369.152,296.534 369.152,276.949 311.669,276.949 	"/>
</g>
<g>
</g>
<g>
</g>
<g>
</g>
<g>
</g>
<g>
</g>
<g>
</g>
<g>
</g>
<g>
</g>
<g>
</g>
<g>
</g>
<g>
</g>
<g>
</g>
<g>
</g>
<g>
</g>
<g>
</g>
</svg>
