<?xml version="1.0" encoding="iso-8859-1"?>
<!-- Generator: Adobe Illustrator 19.0.0, SVG Export Plug-In . SVG Version: 6.00 Build 0)  -->
<svg version="1.1" id="Layer_1" xmlns="http://www.w3.org/2000/svg" xmlns:xlink="http://www.w3.org/1999/xlink" x="0px" y="0px"
	 viewBox="0 0 512 512" style="enable-background:new 0 0 512 512;" xml:space="preserve">
<path style="fill:#314E55;" d="M441.547,97.321l-94.613-94.5C345.123,1.019,342.66,0,340.104,0H77.283c-5.34,0-9.66,4.321-9.66,9.66
	V502.34c0,5.34,4.321,9.66,9.66,9.66h357.434c5.34,0,9.66-4.321,9.66-9.66V104.16C444.377,101.594,443.358,99.142,441.547,97.321z"
	/>
<g>
	<polygon style="fill:#FFFFFF;" points="411.396,96.604 347.774,96.604 347.774,32.981 	"/>
	<path style="fill:#FFFFFF;" d="M86.943,492.679V19.321h241.509v86.943c0,5.34,4.321,9.66,9.66,9.66h86.943v376.755H86.943z"/>
</g>
<path style="fill:#314E55;" d="M256,154.566c-71.915,0-130.415,58.5-130.415,130.415S184.085,415.396,256,415.396
	s130.415-58.5,130.415-130.415S327.915,154.566,256,154.566z"/>
<path style="fill:#EAEAEA;" d="M256,396.075c-61.255,0-111.094-49.84-111.094-111.094S194.745,173.887,256,173.887
	s111.094,49.84,111.094,111.094S317.255,396.075,256,396.075z"/>
<g>
	<path style="fill:#314E55;" d="M233.066,282.632c-3.906-2.057-9.934-4.047-18.085-5.972c-8.151-1.925-13.283-3.774-15.396-5.547
		c-1.66-1.396-2.49-3.075-2.49-5.038c0-2.151,0.887-3.868,2.66-5.151c2.755-2,6.566-3,11.434-3c4.717,0,8.255,0.934,10.613,2.802
		c2.358,1.868,3.896,4.934,4.613,9.198l16.755-0.736c-0.264-7.623-3.028-13.717-8.292-18.283s-13.104-6.849-23.519-6.849
		c-6.377,0-11.821,0.962-16.33,2.887c-4.509,1.925-7.962,4.726-10.359,8.405s-3.594,7.632-3.594,11.859
		c0,6.566,2.547,12.132,7.642,16.698c3.623,3.245,9.924,5.981,18.906,8.207c6.981,1.736,11.453,2.944,13.415,3.623
		c2.868,1.019,4.877,2.217,6.028,3.594c1.151,1.377,1.726,3.047,1.726,5.009c0,3.057-1.368,5.726-4.104,8.009
		c-2.736,2.283-6.802,3.425-12.198,3.425c-5.094,0-9.142-1.283-12.141-3.849c-3-2.566-4.991-6.585-5.972-12.057l-16.302,1.585
		c1.094,9.283,4.453,16.349,10.076,21.198s13.679,7.274,24.17,7.274c7.208,0,13.227-1.01,18.057-3.028
		c4.83-2.019,8.566-5.104,11.207-9.255c2.641-4.151,3.962-8.604,3.962-13.358c0-5.245-1.104-9.651-3.311-13.217
		S236.972,284.689,233.066,282.632z"/>
	<polygon style="fill:#314E55;" points="299.547,302.075 284.491,245.472 259.415,245.472 259.415,328.453 274.981,328.453 
		274.981,263.132 291.396,328.453 307.528,328.453 324,263.132 324,328.453 339.566,328.453 339.566,245.472 314.434,245.472 	"/>
</g>
<g>
</g>
<g>
</g>
<g>
</g>
<g>
</g>
<g>
</g>
<g>
</g>
<g>
</g>
<g>
</g>
<g>
</g>
<g>
</g>
<g>
</g>
<g>
</g>
<g>
</g>
<g>
</g>
<g>
</g>
</svg>
