<?xml version="1.0" encoding="iso-8859-1"?>
<!-- Generator: Adobe Illustrator 19.0.0, SVG Export Plug-In . SVG Version: 6.00 Build 0)  -->
<svg version="1.1" id="Layer_1" xmlns="http://www.w3.org/2000/svg" xmlns:xlink="http://www.w3.org/1999/xlink" x="0px" y="0px"
	 viewBox="0 0 512 512" style="enable-background:new 0 0 512 512;" xml:space="preserve">
<path style="fill:#314E55;" d="M511.87,234.022c-0.06-0.975-0.249-1.913-0.572-2.836c-0.119-0.34-0.205-0.676-0.355-0.999
	c-0.51-1.094-1.154-2.128-2.034-3.016c-0.016-0.017-0.025-0.038-0.041-0.055L448,166.25v-59.583c0-0.227-0.117-0.43-0.131-0.656
	c-0.059-0.95-0.242-1.866-0.551-2.767c-0.115-0.337-0.204-0.665-0.352-0.99c-0.519-1.134-1.175-2.212-2.091-3.129l-96-96
	c-0.913-0.914-1.986-1.566-3.117-2.083c-0.336-0.156-0.675-0.246-1.025-0.365c-0.88-0.299-1.773-0.477-2.701-0.539
	C341.792,0.122,341.576,0,341.333,0H74.667C68.771,0,64,4.776,64,10.667V166.25L3.132,227.117c-0.016,0.017-0.025,0.038-0.041,0.055
	c-0.879,0.888-1.523,1.922-2.033,3.016c-0.151,0.323-0.237,0.659-0.355,0.997c-0.322,0.922-0.512,1.861-0.572,2.836
	C0.116,234.246,0,234.438,0,234.667v202.667C0,443.224,4.771,448,10.667,448H64v53.333C64,507.224,68.771,512,74.667,512h362.667
	c5.896,0,10.667-4.776,10.667-10.667V448h53.333c5.896,0,10.667-4.776,10.667-10.667V234.667
	C512,234.438,511.884,234.247,511.87,234.022z"/>
<polygon style="fill:#EAEAEA;" points="448,196.417 475.583,224 448,224 "/>
<polygon style="fill:#D8D8D8;" points="352,36.417 411.583,96 352,96 "/>
<g>
	<path style="fill:#EAEAEA;" d="M85.333,170.667V21.333h245.333v85.333c0,5.891,4.771,10.667,10.667,10.667h85.333v53.333V224
		H85.333V170.667z"/>
	<polygon style="fill:#EAEAEA;" points="64,196.417 64,224 36.417,224 	"/>
	<rect x="85.333" y="448" style="fill:#EAEAEA;" width="341.333" height="42.667"/>
</g>
<polygon style="fill:#DBCF56;" points="490.667,426.667 21.333,426.667 21.333,245.333 74.667,245.333 437.333,245.333 
	490.667,245.333 "/>
<g>
	<path style="fill:#314E55;" d="M337.76,314.326c1.792-3.488,4.033-6.251,6.72-8.288c2.688-2.038,5.824-3.061,9.408-3.061
		c6.471,0,11.747,2.932,15.829,8.81l10.304-12.544c-2.887-4.181-6.621-7.392-11.2-9.631c-4.579-2.239-9.906-3.359-15.979-3.359
		c-5.874,0-11.225,1.365-16.053,4.106c-4.829,2.742-8.935,6.572-12.32,11.499c-3.385,4.928-5.998,10.806-7.84,17.622
		c-1.842,6.815-2.763,14.261-2.763,22.324c0,8.065,0.921,15.478,2.763,22.251c1.842,6.773,4.43,12.618,7.765,17.547
		c3.335,4.929,7.417,8.789,12.245,11.573c4.829,2.784,10.229,4.181,16.202,4.181c6.571,0,12.022-1.29,16.352-3.883
		c4.331-2.591,7.89-5.973,10.677-10.154l-10.304-12.096c-1.693,2.593-3.808,4.779-6.346,6.57c-2.538,1.793-5.55,2.689-9.034,2.689
		c-3.683,0-6.894-1.025-9.632-3.061c-2.738-2.038-5.003-4.801-6.795-8.289c-1.792-3.487-3.136-7.594-4.032-12.319
		c-0.896-4.725-1.344-9.729-1.344-15.009c0-5.375,0.448-10.431,1.344-15.156S335.968,317.814,337.76,314.326z"/>
	<polygon style="fill:#314E55;" points="410.336,288.939 392.565,288.939 392.565,394.667 410.336,394.667 410.336,347.776 
		441.995,347.776 441.995,394.667 459.766,394.667 459.766,288.939 441.995,288.939 441.995,331.797 410.336,331.797 	"/>
	<polygon style="fill:#314E55;" points="215.606,347.478 243.531,347.478 243.531,332.842 215.606,332.842 215.606,304.768 
		245.771,304.768 245.771,288.939 198.432,288.939 198.432,394.667 247.264,394.667 247.264,378.687 215.606,378.687 	"/>
	<polygon style="fill:#314E55;" points="252.491,304.171 272.352,304.171 272.352,394.667 289.973,394.667 289.973,304.171 
		309.835,304.171 309.835,288.939 252.491,288.939 	"/>
	<polygon style="fill:#314E55;" points="184.693,288.939 164.533,288.939 137.654,334.784 137.205,334.784 137.205,288.939 
		119.285,288.939 119.285,394.667 137.205,394.667 137.205,343.295 137.654,343.295 165.878,394.667 186.635,394.667 
		153.632,337.621 	"/>
	<path style="fill:#314E55;" d="M69.856,305.814c1.294-1.195,2.738-2.07,4.331-2.613c1.593-0.544,3.235-0.822,4.928-0.822
		c5.874,0,10.752,2.336,14.635,7.018l9.856-12.842c-2.887-3.382-6.446-5.952-10.678-7.69c-4.231-1.739-9.034-2.613-14.41-2.613
		c-3.683,0-7.318,0.618-10.902,1.866c-3.584,1.249-6.794,3.158-9.632,5.75c-2.837,2.591-5.127,5.845-6.869,9.781
		c-1.742,3.936-2.613,8.639-2.613,14.112c0,4.384,0.573,8.138,1.717,11.275c1.145,3.135,2.688,5.876,4.63,8.212
		c1.941,2.337,4.181,4.353,6.719,6.048c2.539,1.697,5.251,3.233,8.139,4.63c4.579,2.293,8.363,4.779,11.35,7.466
		s4.48,6.326,4.48,10.901c0,4.683-1.245,8.31-3.733,10.902c-2.488,2.591-5.624,3.882-9.408,3.882c-3.384,0-6.695-0.799-9.93-2.389
		c-3.236-1.589-5.998-3.786-8.289-6.57l-9.706,13.142c2.986,3.487,6.969,6.367,11.947,8.661c4.978,2.293,10.403,3.434,16.277,3.434
		c4.082,0,7.965-0.693,11.648-2.09c3.683-1.397,6.894-3.456,9.632-6.198c2.738-2.741,4.928-6.102,6.571-10.079
		c1.643-3.979,2.463-8.565,2.463-13.739c0-4.479-0.697-8.362-2.09-11.647c-1.394-3.285-3.186-6.122-5.376-8.512
		c-2.189-2.389-4.629-4.427-7.317-6.124c-2.688-1.695-5.326-3.189-7.915-4.479c-4.381-2.187-7.915-4.501-10.603-6.944
		c-2.687-2.443-4.032-5.898-4.032-10.379c0-2.593,0.374-4.832,1.121-6.72C67.541,308.555,68.562,307.008,69.856,305.814z"/>
</g>
<g>
</g>
<g>
</g>
<g>
</g>
<g>
</g>
<g>
</g>
<g>
</g>
<g>
</g>
<g>
</g>
<g>
</g>
<g>
</g>
<g>
</g>
<g>
</g>
<g>
</g>
<g>
</g>
<g>
</g>
</svg>
