<?xml version="1.0" encoding="iso-8859-1"?>
<!-- Generator: Adobe Illustrator 19.0.0, SVG Export Plug-In . SVG Version: 6.00 Build 0)  -->
<svg version="1.1" id="Layer_1" xmlns="http://www.w3.org/2000/svg" xmlns:xlink="http://www.w3.org/1999/xlink" x="0px" y="0px"
	 viewBox="0 0 512 512" style="enable-background:new 0 0 512 512;" xml:space="preserve">
<path style="fill:#314E55;" d="M504.204,18.265c-0.274-5.661-4.801-10.193-10.467-10.462L330.41,0.026
	c-3.099-0.225-6.106,1.01-8.298,3.212L3.23,322.115c-2.062,2.062-3.222,4.855-3.222,7.777s1.16,5.714,3.222,7.777l171.109,171.109
	c2.148,2.148,4.963,3.222,7.777,3.222s5.628-1.074,7.777-3.222L508.769,189.9c2.191-2.191,3.357-5.209,3.212-8.303L504.204,18.265z"
	/>
<polygon style="fill:#5ECB66;" points="182.115,485.447 26.56,329.892 334.228,22.229 482.705,29.307 489.773,177.784 "/>
<g>
	
		<rect x="57.014" y="225.62" transform="matrix(-0.7071 0.7071 -0.7071 -0.7071 469.3073 278.8425)" style="fill:#314E55;" width="239.778" height="21.995"/>
	
		<rect x="101.385" y="259.003" transform="matrix(-0.7071 0.7071 -0.7071 -0.7071 568.6584 304.4555)" style="fill:#314E55;" width="239.778" height="21.995"/>
	
		<rect x="156.027" y="317.129" transform="matrix(-0.7071 0.7071 -0.7071 -0.7071 643.2844 389.7957)" style="fill:#314E55;" width="169.772" height="21.995"/>
	<path style="fill:#314E55;" d="M353.219,96.569c-8.308,8.314-12.884,19.356-12.884,31.107s4.576,22.804,12.884,31.107
		c8.314,8.314,19.361,12.89,31.112,12.89s22.798-4.576,31.107-12.89c8.308-8.303,12.89-19.345,12.89-31.107
		c0-11.751-4.576-22.793-12.89-31.107C398.821,79.942,369.836,79.942,353.219,96.569z"/>
</g>
<path style="fill:#FFFFFF;" d="M399.885,143.229c-8.314,8.314-22.798,8.314-31.112,0c-4.152-4.157-6.439-9.678-6.439-15.553
	c0-5.875,2.288-11.396,6.439-15.553c4.157-4.157,9.683-6.445,15.559-6.445s11.396,2.288,15.553,6.445
	c4.157,4.157,6.445,9.678,6.445,15.553C406.329,133.552,404.041,139.073,399.885,143.229z"/>
<g>
</g>
<g>
</g>
<g>
</g>
<g>
</g>
<g>
</g>
<g>
</g>
<g>
</g>
<g>
</g>
<g>
</g>
<g>
</g>
<g>
</g>
<g>
</g>
<g>
</g>
<g>
</g>
<g>
</g>
</svg>
