<?xml version="1.0" encoding="iso-8859-1"?>
<!-- Generator: Adobe Illustrator 19.0.0, SVG Export Plug-In . SVG Version: 6.00 Build 0)  -->
<svg version="1.1" id="Layer_1" xmlns="http://www.w3.org/2000/svg" xmlns:xlink="http://www.w3.org/1999/xlink" x="0px" y="0px"
	 viewBox="0 0 512 512" style="enable-background:new 0 0 512 512;" xml:space="preserve">
<path style="fill:#314E55;" d="M433.609,161.456l-6.586-138.332c-0.232-4.794-4.066-8.633-8.865-8.861L279.83,7.677
	c-2.62-0.1-5.172,0.864-7.028,2.72L2.729,280.466C0.983,282.213,0,284.578,0,287.052c0,2.474,0.983,4.84,2.729,6.586
	l144.919,144.919c1.819,1.819,4.203,2.729,6.586,2.729s4.767-0.91,6.586-2.729l270.069-270.069
	C432.745,166.633,433.732,164.076,433.609,161.456z"/>
<polygon style="fill:#E9E7D1;" points="154.234,418.798 22.488,287.052 283.064,26.481 408.815,32.476 414.801,158.227 "/>
<g>
	<path style="fill:#314E55;" d="M407.273,313.826l10.926,0.164l0.286-18.631l-11.212-0.164c-13.1,0-25.909,2.402-38.072,7.15
		l-8.679,3.384l6.768,17.357l8.679-3.384C385.967,315.799,396.502,313.826,407.273,313.826z"/>
	<path style="fill:#314E55;" d="M323.351,380.936c2.474-11.035,7.019-21.306,13.514-30.53l5.363-7.614l-15.238-10.726l-5.363,7.623
		c-7.905,11.226-13.446,23.735-16.452,37.171l-2.038,9.088l18.181,4.076L323.351,380.936z"/>
	<path style="fill:#314E55;" d="M500.16,350.706l-5.076-7.815c-3.971-6.113-8.624-11.854-13.832-17.048
		c-4.453-4.458-9.32-8.524-14.465-12.09l-7.655-5.313l-10.621,15.301l7.651,5.313c4.239,2.947,8.251,6.295,11.926,9.961
		c4.285,4.285,8.11,9.006,11.376,14.028l5.072,7.815L500.16,350.706z"/>
	<path style="fill:#314E55;" d="M493.373,391.479l-0.105,9.316c-0.123,11.326-2.42,22.334-6.827,32.705l-3.644,8.57l17.148,7.287
		l3.644-8.579c5.363-12.618,8.156-26,8.31-39.782l0.1-9.316L493.373,391.479z"/>
	<path style="fill:#314E55;" d="M454.592,471.662c-9.416,6.213-19.823,10.453-30.926,12.609l-9.147,1.765l3.543,18.295l9.143-1.774
		c13.514-2.611,26.182-7.778,37.649-15.338l7.774-5.131l-10.257-15.556L454.592,471.662z"/>
	<path style="fill:#314E55;" d="M346.463,460.645l-1.788-1.837c-7.774-8.242-13.755-17.749-17.762-28.274l-3.321-8.706
		l-17.407,6.641l3.316,8.706c4.148,10.88,10.016,20.869,17.485,29.766l-0.286,0.291l10.826,11.144l0.291-0.282
		c8.683,7.724,18.486,13.891,29.22,18.349l8.602,3.584l7.155-17.203l-8.597-3.575C363.806,474.928,354.477,468.669,346.463,460.645z
		"/>
	<rect x="352.686" y="391.354" style="fill:#314E55;" width="111.786" height="18.631"/>
	<path style="fill:#314E55;" d="M299.148,89.443c-7.037,7.041-10.912,16.393-10.912,26.346s3.876,19.313,10.912,26.346
		c7.041,7.041,16.398,10.917,26.35,10.917s19.309-3.876,26.345-10.917c7.037-7.032,10.917-16.384,10.917-26.346
		c0-9.952-3.875-19.304-10.917-26.346C337.77,75.36,313.221,75.36,299.148,89.443z"/>
</g>
<path style="fill:#FFFFFF;" d="M338.671,128.961c-7.041,7.041-19.309,7.041-26.35,0c-3.516-3.521-5.454-8.197-5.454-13.173
	s1.938-9.652,5.454-13.173c3.521-3.521,8.201-5.458,13.177-5.458s9.652,1.938,13.173,5.458c3.521,3.521,5.458,8.197,5.458,13.173
	S342.191,125.44,338.671,128.961z"/>
<g>
</g>
<g>
</g>
<g>
</g>
<g>
</g>
<g>
</g>
<g>
</g>
<g>
</g>
<g>
</g>
<g>
</g>
<g>
</g>
<g>
</g>
<g>
</g>
<g>
</g>
<g>
</g>
<g>
</g>
</svg>
