<?xml version="1.0" encoding="iso-8859-1"?>
<!-- Generator: Adobe Illustrator 19.0.0, SVG Export Plug-In . SVG Version: 6.00 Build 0)  -->
<svg version="1.1" id="Layer_1" xmlns="http://www.w3.org/2000/svg" xmlns:xlink="http://www.w3.org/1999/xlink" x="0px" y="0px"
	 viewBox="0 0 512 512" style="enable-background:new 0 0 512 512;" xml:space="preserve">
<path style="fill:#314E55;" d="M433.602,161.462l-6.586-138.33c-0.228-4.794-4.066-8.633-8.861-8.861l-138.33-6.586
	c-2.775-0.1-5.185,0.864-7.032,2.72L2.729,280.47c-3.639,3.639-3.639,9.534,0,13.172l144.916,144.916
	c1.819,1.819,4.203,2.729,6.586,2.729c2.383,0,4.767-0.91,6.586-2.729l270.064-270.064
	C432.737,166.639,433.729,164.082,433.602,161.462z"/>
<polygon style="fill:#81A4E3;" points="154.231,418.8 22.488,287.056 283.055,26.49 408.803,32.485 414.798,158.233 "/>
<g>
	<path style="fill:#314E55;" d="M360.525,305.723l6.768,17.357l8.679-3.384c9.98-3.894,20.505-5.868,31.294-5.868l10.935,0.164
		l0.291-18.631l-11.226-0.164c-13.118,0-25.927,2.402-38.062,7.141L360.525,305.723z"/>
	<path style="fill:#314E55;" d="M323.355,380.929c2.474-11.035,7.023-21.305,13.509-30.53l5.367-7.614l-15.238-10.725l-5.358,7.623
		c-7.914,11.226-13.445,23.734-16.457,37.17l-2.038,9.088l18.176,4.076L323.355,380.929z"/>
	<path style="fill:#314E55;" d="M493.369,391.481l-0.1,9.315c-0.127,11.326-2.42,22.324-6.832,32.695l-3.648,8.579l17.148,7.287
		l3.639-8.569c5.376-12.627,8.169-26.018,8.324-39.79l0.1-9.315L493.369,391.481z"/>
	<path style="fill:#314E55;" d="M500.165,350.717l-5.076-7.814c-3.966-6.104-8.624-11.844-13.837-17.057
		c-4.449-4.449-9.315-8.515-14.464-12.09l-7.651-5.313l-10.625,15.301l7.651,5.313c4.239,2.947,8.251,6.295,11.917,9.961
		c4.294,4.294,8.124,9.015,11.38,14.037l5.076,7.814L500.165,350.717z"/>
	<path style="fill:#314E55;" d="M346.452,460.646l-1.792-1.829c-7.778-8.26-13.755-17.767-17.757-28.283l-3.32-8.706l-17.412,6.641
		l3.32,8.706c4.148,10.871,10.016,20.859,17.484,29.775l-0.282,0.282l10.798,11.144l0.309-0.291
		c8.688,7.732,18.503,13.9,29.238,18.367l8.597,3.575l7.159-17.202l-8.606-3.584C363.809,474.928,354.475,468.67,346.452,460.646z"
		/>
	<path style="fill:#314E55;" d="M454.588,471.672c-9.415,6.222-19.813,10.453-30.921,12.6l-9.143,1.756l3.521,18.294l9.152-1.765
		c13.518-2.602,26.19-7.76,37.653-15.328l7.778-5.14l-10.271-15.547L454.588,471.672z"/>
	<path style="fill:#314E55;" d="M461.075,413.196l-13.172-13.172l-30.129,30.136v-79.551h-18.631v79.699l-30.284-30.284
		l-13.172,13.172l46.113,46.113c1.747,1.747,4.112,2.729,6.586,2.729s4.84-0.983,6.586-2.729L461.075,413.196z"/>
	<path style="fill:#314E55;" d="M299.147,89.45c-7.041,7.041-10.916,16.393-10.916,26.345s3.875,19.313,10.916,26.345
		c7.032,7.041,16.393,10.916,26.345,10.916s19.304-3.875,26.345-10.916c7.041-7.032,10.916-16.384,10.916-26.345
		c0-9.952-3.875-19.304-10.916-26.345C337.746,75.359,313.202,75.377,299.147,89.45z"/>
</g>
<path style="fill:#FFFFFF;" d="M338.665,128.968c-7.041,7.041-19.304,7.041-26.345,0c-3.521-3.521-5.458-8.196-5.458-13.172
	c0-4.976,1.938-9.652,5.458-13.172c3.521-3.521,8.196-5.458,13.172-5.458s9.652,1.938,13.172,5.458
	c3.521,3.521,5.458,8.196,5.458,13.172C344.123,120.772,342.185,125.447,338.665,128.968z"/>
<g>
</g>
<g>
</g>
<g>
</g>
<g>
</g>
<g>
</g>
<g>
</g>
<g>
</g>
<g>
</g>
<g>
</g>
<g>
</g>
<g>
</g>
<g>
</g>
<g>
</g>
<g>
</g>
<g>
</g>
</svg>
