<?xml version="1.0" encoding="iso-8859-1"?>
<!-- Generator: Adobe Illustrator 19.0.0, SVG Export Plug-In . SVG Version: 6.00 Build 0)  -->
<svg version="1.1" id="Layer_1" xmlns="http://www.w3.org/2000/svg" xmlns:xlink="http://www.w3.org/1999/xlink" x="0px" y="0px"
	 viewBox="0 0 512 512" style="enable-background:new 0 0 512 512;" xml:space="preserve">
<path style="fill:#314E55;" d="M441.543,97.321l-94.613-94.5C345.118,1.019,342.665,0,340.104,0H77.283
	c-5.335,0-9.66,4.321-9.66,9.66V502.34c0,5.34,4.325,9.66,9.66,9.66h357.434c5.335,0,9.66-4.321,9.66-9.66V104.16
	C444.377,101.594,443.358,99.142,441.543,97.321z"/>
<g>
	<polygon style="fill:#FFFFFF;" points="411.396,96.604 347.774,96.604 347.774,32.981 	"/>
	<path style="fill:#FFFFFF;" d="M86.943,492.679V19.321h241.509v86.943c0,5.34,4.325,9.66,9.66,9.66h86.943v376.755H86.943z"/>
</g>
<path style="fill:#314E55;" d="M256,154.566c-71.91,0-130.415,58.5-130.415,130.415S184.09,415.396,256,415.396
	s130.415-58.5,130.415-130.415S327.91,154.566,256,154.566z"/>
<path style="fill:#C59981;" d="M256,396.075c-61.259,0-111.094-49.84-111.094-111.094S194.741,173.887,256,173.887
	s111.094,49.84,111.094,111.094S317.259,396.075,256,396.075z"/>
<g>
	<polygon style="fill:#314E55;" points="176.377,259.509 201,259.509 201,328.453 217.755,328.453 217.755,259.509 242.321,259.509 
		242.321,245.472 176.377,245.472 	"/>
	<polygon style="fill:#314E55;" points="293.038,302.075 277.981,245.472 252.906,245.472 252.906,328.453 268.472,328.453 
		268.472,263.132 284.887,328.453 301.019,328.453 317.49,263.132 317.49,328.453 333.056,328.453 333.056,245.472 307.925,245.472 
			"/>
</g>
<g>
</g>
<g>
</g>
<g>
</g>
<g>
</g>
<g>
</g>
<g>
</g>
<g>
</g>
<g>
</g>
<g>
</g>
<g>
</g>
<g>
</g>
<g>
</g>
<g>
</g>
<g>
</g>
<g>
</g>
</svg>
