<?xml version="1.0" encoding="iso-8859-1"?>
<!-- Generator: Adobe Illustrator 19.0.0, SVG Export Plug-In . SVG Version: 6.00 Build 0)  -->
<svg version="1.1" id="Layer_1" xmlns="http://www.w3.org/2000/svg" xmlns:xlink="http://www.w3.org/1999/xlink" x="0px" y="0px"
	 viewBox="0 0 512 512" style="enable-background:new 0 0 512 512;" xml:space="preserve">
<path style="fill:#314E55;" d="M441.547,97.321l-94.613-94.5C345.123,1.019,342.66,0,340.104,0H77.283c-5.34,0-9.66,4.321-9.66,9.66
	V502.34c0,5.34,4.321,9.66,9.66,9.66h357.434c5.34,0,9.66-4.321,9.66-9.66V104.16C444.377,101.594,443.358,99.142,441.547,97.321z"
	/>
<g>
	<polygon style="fill:#D26CBA;" points="411.396,96.604 347.774,96.604 347.774,32.981 	"/>
	<path style="fill:#D26CBA;" d="M86.943,492.679V19.321h241.509v86.943c0,5.34,4.321,9.66,9.66,9.66h86.943v376.755H86.943z"/>
</g>
<path style="fill:#314E55;" d="M342.906,281.424L207.66,204.141c-2.981-1.707-6.66-1.698-9.642,0.028
	c-2.981,1.736-4.811,4.915-4.811,8.359v154.566c0,3.443,1.83,6.623,4.811,8.358c1.5,0.868,3.17,1.302,4.849,1.302
	c1.651,0,3.311-0.425,4.793-1.273l135.245-77.283c3.009-1.717,4.868-4.925,4.868-8.387
	C347.774,286.349,345.915,283.142,342.906,281.424z"/>
<polygon style="fill:#5ECB66;" points="212.528,350.443 212.528,229.179 318.642,289.811 "/>
<g>
</g>
<g>
</g>
<g>
</g>
<g>
</g>
<g>
</g>
<g>
</g>
<g>
</g>
<g>
</g>
<g>
</g>
<g>
</g>
<g>
</g>
<g>
</g>
<g>
</g>
<g>
</g>
<g>
</g>
</svg>
