<?xml version="1.0" encoding="iso-8859-1"?>
<!-- Generator: Adobe Illustrator 19.0.0, SVG Export Plug-In . SVG Version: 6.00 Build 0)  -->
<svg version="1.1" id="Layer_1" xmlns="http://www.w3.org/2000/svg" xmlns:xlink="http://www.w3.org/1999/xlink" x="0px" y="0px"
	 viewBox="0 0 512 512" style="enable-background:new 0 0 512 512;" xml:space="preserve">
<path style="fill:#314E55;" d="M511.87,234.022c-0.06-0.975-0.249-1.913-0.572-2.836c-0.119-0.34-0.205-0.676-0.355-0.999
	c-0.51-1.094-1.154-2.128-2.034-3.016c-0.016-0.017-0.025-0.038-0.041-0.055L448,166.25v-59.583c0-0.227-0.117-0.43-0.131-0.656
	c-0.059-0.95-0.242-1.866-0.551-2.767c-0.115-0.337-0.204-0.665-0.352-0.99c-0.519-1.134-1.175-2.212-2.091-3.129l-96-96
	c-0.911-0.909-1.981-1.561-3.107-2.078c-0.346-0.159-0.695-0.253-1.056-0.375c-0.867-0.292-1.745-0.466-2.658-0.529
	C341.807,0.125,341.583,0,341.333,0H74.667C68.771,0,64,4.776,64,10.667V166.25L3.132,227.117c-0.016,0.017-0.025,0.038-0.041,0.055
	c-0.879,0.888-1.523,1.922-2.033,3.016c-0.151,0.323-0.237,0.659-0.355,0.997c-0.322,0.922-0.512,1.861-0.572,2.836
	C0.116,234.246,0,234.438,0,234.667v202.667C0,443.224,4.771,448,10.667,448H64v53.333C64,507.224,68.771,512,74.667,512h362.667
	c5.896,0,10.667-4.776,10.667-10.667V448h53.333c5.896,0,10.667-4.776,10.667-10.667V234.667
	C512,234.438,511.884,234.247,511.87,234.022z"/>
<polygon style="fill:#EAEAEA;" points="475.583,224 448,224 448,196.417 "/>
<polygon style="fill:#D8D8D8;" points="411.583,96 352,96 352,36.417 "/>
<g>
	<path style="fill:#EAEAEA;" d="M85.333,21.333h245.333v85.333c0,5.891,4.771,10.667,10.667,10.667h85.333v53.333V224H85.333
		v-53.333V21.333z"/>
	<polygon style="fill:#EAEAEA;" points="64,196.417 64,224 36.417,224 	"/>
	<rect x="85.333" y="448" style="fill:#EAEAEA;" width="341.333" height="42.667"/>
</g>
<polygon style="fill:#73C9C9;" points="490.667,426.667 21.333,426.667 21.333,245.333 74.667,245.333 437.333,245.333 
	490.667,245.333 "/>
<g>
	<polygon style="fill:#314E55;" points="259.99,276.949 238.048,276.949 238.048,405.333 295.35,405.333 295.35,385.206 
		259.99,385.206 	"/>
	<path style="fill:#314E55;" d="M330.891,297.44c1.571-1.45,3.325-2.506,5.258-3.178c1.934-0.661,3.929-0.992,5.984-0.992
		c7.133,0,13.056,2.837,17.771,8.522l11.967-15.594c-3.506-4.107-7.827-7.221-12.965-9.345c-5.139-2.112-10.971-3.168-17.499-3.168
		c-4.473,0-8.885,0.758-13.238,2.262c-4.352,1.514-8.251,3.84-11.696,6.987c-3.445,3.146-6.226,7.104-8.341,11.871
		c-2.115,4.78-3.173,10.496-3.173,17.142c0,5.323,0.695,9.878,2.085,13.685c1.389,3.819,3.264,7.137,5.621,9.974
		c2.358,2.848,5.078,5.29,8.161,7.349c3.083,2.059,6.376,3.926,9.883,5.621c5.561,2.784,10.154,5.803,13.781,9.068
		c3.626,3.263,5.44,7.68,5.44,13.237c0,5.685-1.512,10.09-4.534,13.237c-3.022,3.147-6.829,4.715-11.424,4.715
		c-4.11,0-8.13-0.97-12.059-2.901s-7.283-4.598-10.064-7.979l-11.787,15.957c3.627,4.236,8.462,7.734,14.507,10.518
		c6.044,2.784,12.632,4.171,19.765,4.171c4.957,0,9.671-0.842,14.144-2.539c4.473-1.695,8.371-4.203,11.696-7.53
		c3.325-3.318,5.984-7.404,7.979-12.236c1.994-4.832,2.991-10.4,2.991-16.682c0-5.44-0.846-10.155-2.538-14.145
		c-1.693-3.988-3.869-7.434-6.528-10.336c-2.659-2.901-5.621-5.375-8.885-7.434c-3.264-2.06-6.467-3.872-9.611-5.44
		c-5.32-2.656-9.611-5.473-12.874-8.438c-3.264-2.954-4.897-7.158-4.897-12.598c0-3.147,0.454-5.867,1.36-8.16
		C328.08,300.768,329.32,298.891,330.891,297.44z"/>
	<polygon style="fill:#314E55;" points="221.003,276.949 198.699,276.949 179.84,321.195 160.8,276.949 138.133,276.949 
		167.146,337.697 135.051,405.333 157.717,405.333 179.296,356.191 200.693,405.333 224.085,405.333 191.808,337.697 	"/>
</g>
<g>
</g>
<g>
</g>
<g>
</g>
<g>
</g>
<g>
</g>
<g>
</g>
<g>
</g>
<g>
</g>
<g>
</g>
<g>
</g>
<g>
</g>
<g>
</g>
<g>
</g>
<g>
</g>
<g>
</g>
</svg>
