<?xml version="1.0" encoding="iso-8859-1"?>
<!-- Generator: Adobe Illustrator 19.0.0, SVG Export Plug-In . SVG Version: 6.00 Build 0)  -->
<svg version="1.1" id="Layer_1" xmlns="http://www.w3.org/2000/svg" xmlns:xlink="http://www.w3.org/1999/xlink" x="0px" y="0px"
	 viewBox="0 0 512 512" style="enable-background:new 0 0 512 512;" xml:space="preserve">
<path style="fill:#314E55;" d="M511.867,234.008c-0.061-0.969-0.25-1.901-0.57-2.818c-0.119-0.341-0.205-0.677-0.357-1.003
	c-0.514-1.104-1.162-2.151-2.053-3.046c-0.006-0.006-0.01-0.014-0.01-0.014L448,166.25v-59.583c0-0.232-0.118-0.44-0.133-0.672
	c-0.06-0.941-0.242-1.846-0.546-2.741c-0.117-0.342-0.206-0.676-0.357-1.005c-0.519-1.133-1.173-2.21-2.088-3.124l-96-96
	c-0.919-0.919-1.998-1.575-3.135-2.095c-0.318-0.146-0.639-0.233-0.97-0.345c-0.912-0.315-1.839-0.5-2.802-0.559
	C341.75,0.112,341.553,0,341.333,0H74.667C68.776,0,64,4.776,64,10.667V166.25L3.128,227.122c0,0-0.009,0.013-0.016,0.019
	c-0.891,0.894-1.539,1.941-2.053,3.046c-0.152,0.326-0.238,0.661-0.357,1.003c-0.32,0.917-0.509,1.849-0.57,2.818
	C0.118,234.238,0,234.432,0,234.667v202.667C0,443.224,4.776,448,10.667,448H64v53.333C64,507.224,68.776,512,74.667,512h362.667
	c5.891,0,10.667-4.776,10.667-10.667V448h53.333c5.891,0,10.667-4.776,10.667-10.667V234.667
	C512,234.432,511.882,234.238,511.867,234.008z"/>
<polygon style="fill:#EAEAEA;" points="475.583,224 448,224 448,196.417 "/>
<polygon style="fill:#D8D8D8;" points="411.583,96 352,96 352,36.417 "/>
<g>
	<path style="fill:#EAEAEA;" d="M85.333,21.333h245.333v85.333c0,5.891,4.776,10.667,10.667,10.667h85.333v53.333V224H85.333
		v-53.333V21.333z"/>
	<polygon style="fill:#EAEAEA;" points="64,196.417 64,224 36.417,224 	"/>
	<rect x="85.333" y="448" style="fill:#EAEAEA;" width="341.333" height="42.667"/>
</g>
<polygon style="fill:#73C9C9;" points="490.667,426.667 21.333,426.667 21.333,245.333 74.667,245.333 437.333,245.333 
	490.667,245.333 "/>
<g>
	<polygon style="fill:#314E55;" points="155.542,296.171 195.798,296.171 152.64,387.382 152.64,405.333 219.734,405.333 
		219.734,385.749 176.758,385.749 219.734,294.539 219.734,276.949 155.542,276.949 	"/>
	<rect x="239.307" y="276.96" style="fill:#314E55;" width="21.76" height="128.373"/>
	<path style="fill:#314E55;" d="M347.121,285.013c-3.445-2.954-7.345-5.046-11.696-6.25c-4.352-1.206-8.584-1.814-12.693-1.814
		h-35.542v128.384h21.397v-51.499h15.233c4.473,0,8.824-0.789,13.056-2.357c4.231-1.569,7.978-3.99,11.242-7.254
		c3.264-3.264,5.894-7.339,7.888-12.245c1.995-4.897,2.992-10.603,2.992-17.131c0-7.253-1.118-13.301-3.355-18.133
		C353.406,291.883,350.566,287.979,347.121,285.013z"/>
</g>
<path style="fill:#73C9C9;" d="M333.43,330.72c-3.264,3.562-7.435,5.344-12.512,5.344h-12.331v-40.799h12.331
	c5.078,0,9.248,1.568,12.512,4.715c3.264,3.146,4.896,8.159,4.896,15.051C338.326,321.921,336.693,327.147,333.43,330.72z"/>
<g>
</g>
<g>
</g>
<g>
</g>
<g>
</g>
<g>
</g>
<g>
</g>
<g>
</g>
<g>
</g>
<g>
</g>
<g>
</g>
<g>
</g>
<g>
</g>
<g>
</g>
<g>
</g>
<g>
</g>
</svg>
